<mxfile host="Electron" agent="Mozilla/5.0 (Windows NT 10.0; Win64; x64) AppleWebKit/537.36 (KHTML, like Gecko) draw.io/24.7.5 Chrome/126.0.6478.183 Electron/31.3.0 Safari/537.36" version="24.7.5">
  <diagram name="Page-1" id="2YBvvXClWsGukQMizWep">
    <mxGraphModel dx="830" dy="478" grid="1" gridSize="10" guides="1" tooltips="1" connect="1" arrows="1" fold="1" page="1" pageScale="1" pageWidth="850" pageHeight="1100" math="0" shadow="0">
      <root>
        <mxCell id="0" />
        <mxCell id="1" parent="0" />
        <mxCell id="aM9ryv3xv72pqoxQDRHE-1" value="&lt;div style=&quot;&quot;&gt;&lt;font style=&quot;font-size: 12px;&quot;&gt;Agent&lt;/font&gt;&lt;/div&gt;" style="shape=umlLifeline;perimeter=lifelinePerimeter;whiteSpace=wrap;html=1;container=0;dropTarget=0;collapsible=0;recursiveResize=0;outlineConnect=0;portConstraint=eastwest;newEdgeStyle={&quot;edgeStyle&quot;:&quot;elbowEdgeStyle&quot;,&quot;elbow&quot;:&quot;vertical&quot;,&quot;curved&quot;:0,&quot;rounded&quot;:0};" parent="1" vertex="1">
          <mxGeometry x="310" y="100" width="100" height="250" as="geometry" />
        </mxCell>
        <mxCell id="3Jq0MLk4zh9v0wgFh3Rh-9" value="&lt;span style=&quot;color: rgba(0, 0, 0, 0); font-family: monospace; font-size: 0px; text-align: start;&quot;&gt;%3CmxGraphModel%3E%3Croot%3E%3CmxCell%20id%3D%220%22%2F%3E%3CmxCell%20id%3D%221%22%20parent%3D%220%22%2F%3E%3CmxCell%20id%3D%222%22%20value%3D%22%26lt%3Bspan%20style%3D%26quot%3Bcolor%3A%20rgba(0%2C%200%2C%200%2C%200)%3B%20font-family%3A%20monospace%3B%20font-size%3A%200px%3B%20text-align%3A%20start%3B%20background-color%3A%20rgb(27%2C%2029%2C%2030)%3B%26quot%3B%26gt%3B%253CmxGraphModel%253E%253Croot%253E%253CmxCell%2520id%253D%25220%2522%252F%253E%253CmxCell%2520id%253D%25221%2522%2520parent%253D%25220%2522%252F%253E%253CmxCell%2520id%253D%25222%2522%2520value%253D%2522Module%2526lt%253Bdiv%2526gt%253BAgent%2526lt%253B%252Fdiv%2526gt%253B%2522%2520style%253D%2522shape%253DumlLifeline%253Bperimeter%253DlifelinePerimeter%253BwhiteSpace%253Dwrap%253Bhtml%253D1%253Bcontainer%253D0%253BdropTarget%253D0%253Bcollapsible%253D0%253BrecursiveResize%253D0%253BoutlineConnect%253D0%253BportConstraint%253Deastwest%253BnewEdgeStyle%253D%257B%2526quot%253BedgeStyle%2526quot%253B%253A%2526quot%253BelbowEdgeStyle%2526quot%253B%252C%2526quot%253Belbow%2526quot%253B%253A%2526quot%253Bvertical%2526quot%253B%252C%2526quot%253Bcurved%2526quot%253B%253A0%252C%2526quot%253Brounded%2526quot%253B%253A0%257D%253B%2522%2520vertex%253D%25221%2522%2520parent%253D%25221%2522%253E%253CmxGeometry%2520x%253D%2522220%2522%2520y%253D%252240%2522%2520width%253D%2522100%2522%2520height%253D%2522240%2522%2520as%253D%2522geometry%2522%252F%253E%253C%252FmxCell%253E%253CmxCell%2520id%253D%25223%2522%2520value%253D%2522%2522%2520style%253D%2522html%253D1%253Bpoints%253D%255B%255D%253Bperimeter%253DorthogonalPerimeter%253BoutlineConnect%253D0%253BtargetShapes%253DumlLifeline%253BportConstraint%253Deastwest%253BnewEdgeStyle%253D%257B%2526quot%253BedgeStyle%2526quot%253B%253A%2526quot%253BelbowEdgeStyle%2526quot%253B%252C%2526quot%253Belbow%2526quot%253B%253A%2526quot%253Bvertical%2526quot%253B%252C%2526quot%253Bcurved%2526quot%253B%253A0%252C%2526quot%253Brounded%2526quot%253B%253A0%257D%253B%2522%2520vertex%253D%25221%2522%2520parent%253D%25222%2522%253E%253CmxGeometry%2520x%253D%252245%2522%2520y%253D%252280%2522%2520width%253D%252210%2522%2520height%253D%2522110%2522%2520as%253D%2522geometry%2522%252F%253E%253C%252FmxCell%253E%253C%252Froot%253E%253C%252FmxGraphModel%253E%26lt%3B%2Fspan%26gt%3B%22%20style%3D%22endArrow%3Dblock%3Bhtml%3D1%3Brounded%3D0%3BendFill%3D1%3B%22%20edge%3D%221%22%20parent%3D%221%22%3E%3CmxGeometry%20width%3D%2250%22%20height%3D%2250%22%20relative%3D%221%22%20as%3D%22geometry%22%3E%3CmxPoint%20x%3D%22525%22%20y%3D%22220%22%20as%3D%22sourcePoint%22%2F%3E%3CmxPoint%20x%3D%22410%22%20y%3D%22220%22%20as%3D%22targetPoint%22%2F%3E%3CArray%20as%3D%22points%22%3E%3CmxPoint%20x%3D%22470%22%20y%3D%22220%22%2F%3E%3C%2FArray%3E%3C%2FmxGeometry%3E%3C%2FmxCell%3E%3CmxCell%20id%3D%223%22%20value%3D%22Skill%20Result%22%20style%3D%22edgeLabel%3Bhtml%3D1%3Balign%3Dcenter%3BverticalAlign%3Dmiddle%3Bresizable%3D0%3Bpoints%3D%5B%5D%3BlabelBackgroundColor%3Dnone%3B%22%20vertex%3D%221%22%20connectable%3D%220%22%20parent%3D%222%22%3E%3CmxGeometry%20x%3D%220.1879%22%20relative%3D%221%22%20as%3D%22geometry%22%3E%3CmxPoint%20x%3D%2213%22%20y%3D%22-10%22%20as%3D%22offset%22%2F%3E%3C%2FmxGeometry%3E%3C%2FmxCell%3E%3C%2Froot%3E%3C%2FmxGraphModel%3E&lt;/span&gt;&lt;span style=&quot;color: rgba(0, 0, 0, 0); font-family: monospace; font-size: 0px; text-align: start;&quot;&gt;%3CmxGraphModel%3E%3Croot%3E%3CmxCell%20id%3D%220%22%2F%3E%3CmxCell%20id%3D%221%22%20parent%3D%220%22%2F%3E%3CmxCell%20id%3D%222%22%20value%3D%22%26lt%3Bspan%20style%3D%26quot%3Bcolor%3A%20rgba(0%2C%200%2C%200%2C%200)%3B%20font-family%3A%20monospace%3B%20font-size%3A%200px%3B%20text-align%3A%20start%3B%20background-color%3A%20rgb(27%2C%2029%2C%2030)%3B%26quot%3B%26gt%3B%253CmxGraphModel%253E%253Croot%253E%253CmxCell%2520id%253D%25220%2522%252F%253E%253CmxCell%2520id%253D%25221%2522%2520parent%253D%25220%2522%252F%253E%253CmxCell%2520id%253D%25222%2522%2520value%253D%2522Module%2526lt%253Bdiv%2526gt%253BAgent%2526lt%253B%252Fdiv%2526gt%253B%2522%2520style%253D%2522shape%253DumlLifeline%253Bperimeter%253DlifelinePerimeter%253BwhiteSpace%253Dwrap%253Bhtml%253D1%253Bcontainer%253D0%253BdropTarget%253D0%253Bcollapsible%253D0%253BrecursiveResize%253D0%253BoutlineConnect%253D0%253BportConstraint%253Deastwest%253BnewEdgeStyle%253D%257B%2526quot%253BedgeStyle%2526quot%253B%253A%2526quot%253BelbowEdgeStyle%2526quot%253B%252C%2526quot%253Belbow%2526quot%253B%253A%2526quot%253Bvertical%2526quot%253B%252C%2526quot%253Bcurved%2526quot%253B%253A0%252C%2526quot%253Brounded%2526quot%253B%253A0%257D%253B%2522%2520vertex%253D%25221%2522%2520parent%253D%25221%2522%253E%253CmxGeometry%2520x%253D%2522220%2522%2520y%253D%252240%2522%2520width%253D%2522100%2522%2520height%253D%2522240%2522%2520as%253D%2522geometry%2522%252F%253E%253C%252FmxCell%253E%253CmxCell%2520id%253D%25223%2522%2520value%253D%2522%2522%2520style%253D%2522html%253D1%253Bpoints%253D%255B%255D%253Bperimeter%253DorthogonalPerimeter%253BoutlineConnect%253D0%253BtargetShapes%253DumlLifeline%253BportConstraint%253Deastwest%253BnewEdgeStyle%253D%257B%2526quot%253BedgeStyle%2526quot%253B%253A%2526quot%253BelbowEdgeStyle%2526quot%253B%252C%2526quot%253Belbow%2526quot%253B%253A%2526quot%253Bvertical%2526quot%253B%252C%2526quot%253Bcurved%2526quot%253B%253A0%252C%2526quot%253Brounded%2526quot%253B%253A0%257D%253B%2522%2520vertex%253D%25221%2522%2520parent%253D%25222%2522%253E%253CmxGeometry%2520x%253D%252245%2522%2520y%253D%252280%2522%2520width%253D%252210%2522%2520height%253D%2522110%2522%2520as%253D%2522geometry%2522%252F%253E%253C%252FmxCell%253E%253C%252Froot%253E%253C%252FmxGraphModel%253E%26lt%3B%2Fspan%26gt%3B%22%20style%3D%22endArrow%3Dblock%3Bhtml%3D1%3Brounded%3D0%3BendFill%3D1%3B%22%20edge%3D%221%22%20parent%3D%221%22%3E%3CmxGeometry%20width%3D%2250%22%20height%3D%2250%22%20relative%3D%221%22%20as%3D%22geometry%22%3E%3CmxPoint%20x%3D%22525%22%20y%3D%22220%22%20as%3D%22sourcePoint%22%2F%3E%3CmxPoint%20x%3D%22410%22%20y%3D%22220%22%20as%3D%22targetPoint%22%2F%3E%3CArray%20as%3D%22points%22%3E%3CmxPoint%20x%3D%22470%22%20y%3D%22220%22%2F%3E%3C%2FArray%3E%3C%2FmxGeometry%3E%3C%2FmxCell%3E%3CmxCell%20id%3D%223%22%20value%3D%22Skill%20Result%22%20style%3D%22edgeLabel%3Bhtml%3D1%3Balign%3Dcenter%3BverticalAlign%3Dmiddle%3Bresizable%3D0%3Bpoints%3D%5B%5D%3BlabelBackgroundColor%3Dnone%3B%22%20vertex%3D%221%22%20connectable%3D%220%22%20parent%3D%222%22%3E%3CmxGeometry%20x%3D%220.1879%22%20relative%3D%221%22%20as%3D%22geometry%22%3E%3CmxPoint%20x%3D%2213%22%20y%3D%22-10%22%20as%3D%22offset%22%2F%3E%3C%2FmxGeometry%3E%3C%2FmxCell%3E%3C%2Froot%3E%3C%2FmxGraphModel%3E&lt;/span&gt;&lt;span style=&quot;color: rgba(0, 0, 0, 0); font-family: monospace; font-size: 0px; text-align: start;&quot;&gt;%3CmxGraphModel%3E%3Croot%3E%3CmxCell%20id%3D%220%22%2F%3E%3CmxCell%20id%3D%221%22%20parent%3D%220%22%2F%3E%3CmxCell%20id%3D%222%22%20value%3D%22%26lt%3Bspan%20style%3D%26quot%3Bcolor%3A%20rgba(0%2C%200%2C%200%2C%200)%3B%20font-family%3A%20monospace%3B%20font-size%3A%200px%3B%20text-align%3A%20start%3B%20background-color%3A%20rgb(27%2C%2029%2C%2030)%3B%26quot%3B%26gt%3B%253CmxGraphModel%253E%253Croot%253E%253CmxCell%2520id%253D%25220%2522%252F%253E%253CmxCell%2520id%253D%25221%2522%2520parent%253D%25220%2522%252F%253E%253CmxCell%2520id%253D%25222%2522%2520value%253D%2522Module%2526lt%253Bdiv%2526gt%253BAgent%2526lt%253B%252Fdiv%2526gt%253B%2522%2520style%253D%2522shape%253DumlLifeline%253Bperimeter%253DlifelinePerimeter%253BwhiteSpace%253Dwrap%253Bhtml%253D1%253Bcontainer%253D0%253BdropTarget%253D0%253Bcollapsible%253D0%253BrecursiveResize%253D0%253BoutlineConnect%253D0%253BportConstraint%253Deastwest%253BnewEdgeStyle%253D%257B%2526quot%253BedgeStyle%2526quot%253B%253A%2526quot%253BelbowEdgeStyle%2526quot%253B%252C%2526quot%253Belbow%2526quot%253B%253A%2526quot%253Bvertical%2526quot%253B%252C%2526quot%253Bcurved%2526quot%253B%253A0%252C%2526quot%253Brounded%2526quot%253B%253A0%257D%253B%2522%2520vertex%253D%25221%2522%2520parent%253D%25221%2522%253E%253CmxGeometry%2520x%253D%2522220%2522%2520y%253D%252240%2522%2520width%253D%2522100%2522%2520height%253D%2522240%2522%2520as%253D%2522geometry%2522%252F%253E%253C%252FmxCell%253E%253CmxCell%2520id%253D%25223%2522%2520value%253D%2522%2522%2520style%253D%2522html%253D1%253Bpoints%253D%255B%255D%253Bperimeter%253DorthogonalPerimeter%253BoutlineConnect%253D0%253BtargetShapes%253DumlLifeline%253BportConstraint%253Deastwest%253BnewEdgeStyle%253D%257B%2526quot%253BedgeStyle%2526quot%253B%253A%2526quot%253BelbowEdgeStyle%2526quot%253B%252C%2526quot%253Belbow%2526quot%253B%253A%2526quot%253Bvertical%2526quot%253B%252C%2526quot%253Bcurved%2526quot%253B%253A0%252C%2526quot%253Brounded%2526quot%253B%253A0%257D%253B%2522%2520vertex%253D%25221%2522%2520parent%253D%25222%2522%253E%253CmxGeometry%2520x%253D%252245%2522%2520y%253D%252280%2522%2520width%253D%252210%2522%2520height%253D%2522110%2522%2520as%253D%2522geometry%2522%252F%253E%253C%252FmxCell%253E%253C%252Froot%253E%253C%252FmxGraphModel%253E%26lt%3B%2Fspan%26gt%3B%22%20style%3D%22endArrow%3Dblock%3Bhtml%3D1%3Brounded%3D0%3BendFill%3D1%3B%22%20edge%3D%221%22%20parent%3D%221%22%3E%3CmxGeometry%20width%3D%2250%22%20height%3D%2250%22%20relative%3D%221%22%20as%3D%22geometry%22%3E%3CmxPoint%20x%3D%22525%22%20y%3D%22220%22%20as%3D%22sourcePoint%22%2F%3E%3CmxPoint%20x%3D%22410%22%20y%3D%22220%22%20as%3D%22targetPoint%22%2F%3E%3CArray%20as%3D%22points%22%3E%3CmxPoint%20x%3D%22470%22%20y%3D%22220%22%2F%3E%3C%2FArray%3E%3C%2FmxGeometry%3E%3C%2FmxCell%3E%3CmxCell%20id%3D%223%22%20value%3D%22Skill%20Result%22%20style%3D%22edgeLabel%3Bhtml%3D1%3Balign%3Dcenter%3BverticalAlign%3Dmiddle%3Bresizable%3D0%3Bpoints%3D%5B%5D%3BlabelBackgroundColor%3Dnone%3B%22%20vertex%3D%221%22%20connectable%3D%220%22%20parent%3D%222%22%3E%3CmxGeometry%20x%3D%220.1879%22%20relative%3D%221%22%20as%3D%22geometry%22%3E%3CmxPoint%20x%3D%2213%22%20y%3D%22-10%22%20as%3D%22offset%22%2F%3E%3C%2FmxGeometry%3E%3C%2FmxCell%3E%3C%2Froot%3E%3C%2FmxGraphModel%3E&lt;/span&gt;&lt;span style=&quot;color: rgba(0, 0, 0, 0); font-family: monospace; font-size: 0px; text-align: start;&quot;&gt;%3CmxGraphModel%3E%3Croot%3E%3CmxCell%20id%3D%220%22%2F%3E%3CmxCell%20id%3D%221%22%20parent%3D%220%22%2F%3E%3CmxCell%20id%3D%222%22%20value%3D%22%26lt%3Bspan%20style%3D%26quot%3Bcolor%3A%20rgba(0%2C%200%2C%200%2C%200)%3B%20font-family%3A%20monospace%3B%20font-size%3A%200px%3B%20text-align%3A%20start%3B%20background-color%3A%20rgb(27%2C%2029%2C%2030)%3B%26quot%3B%26gt%3B%253CmxGraphModel%253E%253Croot%253E%253CmxCell%2520id%253D%25220%2522%252F%253E%253CmxCell%2520id%253D%25221%2522%2520parent%253D%25220%2522%252F%253E%253CmxCell%2520id%253D%25222%2522%2520value%253D%2522Module%2526lt%253Bdiv%2526gt%253BAgent%2526lt%253B%252Fdiv%2526gt%253B%2522%2520style%253D%2522shape%253DumlLifeline%253Bperimeter%253DlifelinePerimeter%253BwhiteSpace%253Dwrap%253Bhtml%253D1%253Bcontainer%253D0%253BdropTarget%253D0%253Bcollapsible%253D0%253BrecursiveResize%253D0%253BoutlineConnect%253D0%253BportConstraint%253Deastwest%253BnewEdgeStyle%253D%257B%2526quot%253BedgeStyle%2526quot%253B%253A%2526quot%253BelbowEdgeStyle%2526quot%253B%252C%2526quot%253Belbow%2526quot%253B%253A%2526quot%253Bvertical%2526quot%253B%252C%2526quot%253Bcurved%2526quot%253B%253A0%252C%2526quot%253Brounded%2526quot%253B%253A0%257D%253B%2522%2520vertex%253D%25221%2522%2520parent%253D%25221%2522%253E%253CmxGeometry%2520x%253D%2522220%2522%2520y%253D%252240%2522%2520width%253D%2522100%2522%2520height%253D%2522240%2522%2520as%253D%2522geometry%2522%252F%253E%253C%252FmxCell%253E%253CmxCell%2520id%253D%25223%2522%2520value%253D%2522%2522%2520style%253D%2522html%253D1%253Bpoints%253D%255B%255D%253Bperimeter%253DorthogonalPerimeter%253BoutlineConnect%253D0%253BtargetShapes%253DumlLifeline%253BportConstraint%253Deastwest%253BnewEdgeStyle%253D%257B%2526quot%253BedgeStyle%2526quot%253B%253A%2526quot%253BelbowEdgeStyle%2526quot%253B%252C%2526quot%253Belbow%2526quot%253B%253A%2526quot%253Bvertical%2526quot%253B%252C%2526quot%253Bcurved%2526quot%253B%253A0%252C%2526quot%253Brounded%2526quot%253B%253A0%257D%253B%2522%2520vertex%253D%25221%2522%2520parent%253D%25222%2522%253E%253CmxGeometry%2520x%253D%252245%2522%2520y%253D%252280%2522%2520width%253D%252210%2522%2520height%253D%2522110%2522%2520as%253D%2522geometry%2522%252F%253E%253C%252FmxCell%253E%253C%252Froot%253E%253C%252FmxGraphModel%253E%26lt%3B%2Fspan%26gt%3B%22%20style%3D%22endArrow%3Dblock%3Bhtml%3D1%3Brounded%3D0%3BendFill%3D1%3B%22%20edge%3D%221%22%20parent%3D%221%22%3E%3CmxGeometry%20width%3D%2250%22%20height%3D%2250%22%20relative%3D%221%22%20as%3D%22geometry%22%3E%3CmxPoint%20x%3D%22525%22%20y%3D%22220%22%20as%3D%22sourcePoint%22%2F%3E%3CmxPoint%20x%3D%22410%22%20y%3D%22220%22%20as%3D%22targetPoint%22%2F%3E%3CArray%20as%3D%22points%22%3E%3CmxPoint%20x%3D%22470%22%20y%3D%22220%22%2F%3E%3C%2FArray%3E%3C%2FmxGeometry%3E%3C%2FmxCell%3E%3CmxCell%20id%3D%223%22%20value%3D%22Skill%20Result%22%20style%3D%22edgeLabel%3Bhtml%3D1%3Balign%3Dcenter%3BverticalAlign%3Dmiddle%3Bresizable%3D0%3Bpoints%3D%5B%5D%3BlabelBackgroundColor%3Dnone%3B%22%20vertex%3D%221%22%20connectable%3D%220%22%20parent%3D%222%22%3E%3CmxGeometry%20x%3D%220.1879%22%20relative%3D%221%22%20as%3D%22geometry%22%3E%3CmxPoint%20x%3D%2213%22%20y%3D%22-10%22%20as%3D%22offset%22%2F%3E%3C%2FmxGeometry%3E%3C%2FmxCell%3E%3C%2Froot%3E%3C%2FmxGraphModel%3E&lt;/span&gt;&lt;span style=&quot;color: rgba(0, 0, 0, 0); font-family: monospace; font-size: 0px; text-align: start;&quot;&gt;%3CmxGraphModel%3E%3Croot%3E%3CmxCell%20id%3D%220%22%2F%3E%3CmxCell%20id%3D%221%22%20parent%3D%220%22%2F%3E%3CmxCell%20id%3D%222%22%20value%3D%22%26lt%3Bspan%20style%3D%26quot%3Bcolor%3A%20rgba(0%2C%200%2C%200%2C%200)%3B%20font-family%3A%20monospace%3B%20font-size%3A%200px%3B%20text-align%3A%20start%3B%20background-color%3A%20rgb(27%2C%2029%2C%2030)%3B%26quot%3B%26gt%3B%253CmxGraphModel%253E%253Croot%253E%253CmxCell%2520id%253D%25220%2522%252F%253E%253CmxCell%2520id%253D%25221%2522%2520parent%253D%25220%2522%252F%253E%253CmxCell%2520id%253D%25222%2522%2520value%253D%2522Module%2526lt%253Bdiv%2526gt%253BAgent%2526lt%253B%252Fdiv%2526gt%253B%2522%2520style%253D%2522shape%253DumlLifeline%253Bperimeter%253DlifelinePerimeter%253BwhiteSpace%253Dwrap%253Bhtml%253D1%253Bcontainer%253D0%253BdropTarget%253D0%253Bcollapsible%253D0%253BrecursiveResize%253D0%253BoutlineConnect%253D0%253BportConstraint%253Deastwest%253BnewEdgeStyle%253D%257B%2526quot%253BedgeStyle%2526quot%253B%253A%2526quot%253BelbowEdgeStyle%2526quot%253B%252C%2526quot%253Belbow%2526quot%253B%253A%2526quot%253Bvertical%2526quot%253B%252C%2526quot%253Bcurved%2526quot%253B%253A0%252C%2526quot%253Brounded%2526quot%253B%253A0%257D%253B%2522%2520vertex%253D%25221%2522%2520parent%253D%25221%2522%253E%253CmxGeometry%2520x%253D%2522220%2522%2520y%253D%252240%2522%2520width%253D%2522100%2522%2520height%253D%2522240%2522%2520as%253D%2522geometry%2522%252F%253E%253C%252FmxCell%253E%253CmxCell%2520id%253D%25223%2522%2520value%253D%2522%2522%2520style%253D%2522html%253D1%253Bpoints%253D%255B%255D%253Bperimeter%253DorthogonalPerimeter%253BoutlineConnect%253D0%253BtargetShapes%253DumlLifeline%253BportConstraint%253Deastwest%253BnewEdgeStyle%253D%257B%2526quot%253BedgeStyle%2526quot%253B%253A%2526quot%253BelbowEdgeStyle%2526quot%253B%252C%2526quot%253Belbow%2526quot%253B%253A%2526quot%253Bvertical%2526quot%253B%252C%2526quot%253Bcurved%2526quot%253B%253A0%252C%2526quot%253Brounded%2526quot%253B%253A0%257D%253B%2522%2520vertex%253D%25221%2522%2520parent%253D%25222%2522%253E%253CmxGeometry%2520x%253D%252245%2522%2520y%253D%252280%2522%2520width%253D%252210%2522%2520height%253D%2522110%2522%2520as%253D%2522geometry%2522%252F%253E%253C%252FmxCell%253E%253C%252Froot%253E%253C%252FmxGraphModel%253E%26lt%3B%2Fspan%26gt%3B%22%20style%3D%22endArrow%3Dblock%3Bhtml%3D1%3Brounded%3D0%3BendFill%3D1%3B%22%20edge%3D%221%22%20parent%3D%221%22%3E%3CmxGeometry%20width%3D%2250%22%20height%3D%2250%22%20relative%3D%221%22%20as%3D%22geometry%22%3E%3CmxPoint%20x%3D%22525%22%20y%3D%22220%22%20as%3D%22sourcePoint%22%2F%3E%3CmxPoint%20x%3D%22410%22%20y%3D%22220%22%20as%3D%22targetPoint%22%2F%3E%3CArray%20as%3D%22points%22%3E%3CmxPoint%20x%3D%22470%22%20y%3D%22220%22%2F%3E%3C%2FArray%3E%3C%2FmxGeometry%3E%3C%2FmxCell%3E%3CmxCell%20id%3D%223%22%20value%3D%22Skill%20Result%22%20style%3D%22edgeLabel%3Bhtml%3D1%3Balign%3Dcenter%3BverticalAlign%3Dmiddle%3Bresizable%3D0%3Bpoints%3D%5B%5D%3BlabelBackgroundColor%3Dnone%3B%22%20vertex%3D%221%22%20connectable%3D%220%22%20parent%3D%222%22%3E%3CmxGeometry%20x%3D%220.1879%22%20relative%3D%221%22%20as%3D%22geometry%22%3E%3CmxPoint%20x%3D%2213%22%20y%3D%22-10%22%20as%3D%22offset%22%2F%3E%3C%2FmxGeometry%3E%3C%2FmxCell%3E%3C%2Froot%3E%3C%2FmxGraphModel%3E&lt;/span&gt;&lt;span style=&quot;color: rgba(0, 0, 0, 0); font-family: monospace; font-size: 0px; text-align: start;&quot;&gt;%3CmxGraphModel%3E%3Croot%3E%3CmxCell%20id%3D%220%22%2F%3E%3CmxCell%20id%3D%221%22%20parent%3D%220%22%2F%3E%3CmxCell%20id%3D%222%22%20value%3D%22%26lt%3Bspan%20style%3D%26quot%3Bcolor%3A%20rgba(0%2C%200%2C%200%2C%200)%3B%20font-family%3A%20monospace%3B%20font-size%3A%200px%3B%20text-align%3A%20start%3B%20background-color%3A%20rgb(27%2C%2029%2C%2030)%3B%26quot%3B%26gt%3B%253CmxGraphModel%253E%253Croot%253E%253CmxCell%2520id%253D%25220%2522%252F%253E%253CmxCell%2520id%253D%25221%2522%2520parent%253D%25220%2522%252F%253E%253CmxCell%2520id%253D%25222%2522%2520value%253D%2522Module%2526lt%253Bdiv%2526gt%253BAgent%2526lt%253B%252Fdiv%2526gt%253B%2522%2520style%253D%2522shape%253DumlLifeline%253Bperimeter%253DlifelinePerimeter%253BwhiteSpace%253Dwrap%253Bhtml%253D1%253Bcontainer%253D0%253BdropTarget%253D0%253Bcollapsible%253D0%253BrecursiveResize%253D0%253BoutlineConnect%253D0%253BportConstraint%253Deastwest%253BnewEdgeStyle%253D%257B%2526quot%253BedgeStyle%2526quot%253B%253A%2526quot%253BelbowEdgeStyle%2526quot%253B%252C%2526quot%253Belbow%2526quot%253B%253A%2526quot%253Bvertical%2526quot%253B%252C%2526quot%253Bcurved%2526quot%253B%253A0%252C%2526quot%253Brounded%2526quot%253B%253A0%257D%253B%2522%2520vertex%253D%25221%2522%2520parent%253D%25221%2522%253E%253CmxGeometry%2520x%253D%2522220%2522%2520y%253D%252240%2522%2520width%253D%2522100%2522%2520height%253D%2522240%2522%2520as%253D%2522geometry%2522%252F%253E%253C%252FmxCell%253E%253CmxCell%2520id%253D%25223%2522%2520value%253D%2522%2522%2520style%253D%2522html%253D1%253Bpoints%253D%255B%255D%253Bperimeter%253DorthogonalPerimeter%253BoutlineConnect%253D0%253BtargetShapes%253DumlLifeline%253BportConstraint%253Deastwest%253BnewEdgeStyle%253D%257B%2526quot%253BedgeStyle%2526quot%253B%253A%2526quot%253BelbowEdgeStyle%2526quot%253B%252C%2526quot%253Belbow%2526quot%253B%253A%2526quot%253Bvertical%2526quot%253B%252C%2526quot%253Bcurved%2526quot%253B%253A0%252C%2526quot%253Brounded%2526quot%253B%253A0%257D%253B%2522%2520vertex%253D%25221%2522%2520parent%253D%25222%2522%253E%253CmxGeometry%2520x%253D%252245%2522%2520y%253D%252280%2522%2520width%253D%252210%2522%2520height%253D%2522110%2522%2520as%253D%2522geometry%2522%252F%253E%253C%252FmxCell%253E%253C%252Froot%253E%253C%252FmxGraphModel%253E%26lt%3B%2Fspan%26gt%3B%22%20style%3D%22endArrow%3Dblock%3Bhtml%3D1%3Brounded%3D0%3BendFill%3D1%3B%22%20edge%3D%221%22%20parent%3D%221%22%3E%3CmxGeometry%20width%3D%2250%22%20height%3D%2250%22%20relative%3D%221%22%20as%3D%22geometry%22%3E%3CmxPoint%20x%3D%22525%22%20y%3D%22220%22%20as%3D%22sourcePoint%22%2F%3E%3CmxPoint%20x%3D%22410%22%20y%3D%22220%22%20as%3D%22targetPoint%22%2F%3E%3CArray%20as%3D%22points%22%3E%3CmxPoint%20x%3D%22470%22%20y%3D%22220%22%2F%3E%3C%2FArray%3E%3C%2FmxGeometry%3E%3C%2FmxCell%3E%3CmxCell%20id%3D%223%22%20value%3D%22Skill%20Result%22%20style%3D%22edgeLabel%3Bhtml%3D1%3Balign%3Dcenter%3BverticalAlign%3Dmiddle%3Bresizable%3D0%3Bpoints%3D%5B%5D%3BlabelBackgroundColor%3Dnone%3B%22%20vertex%3D%221%22%20connectable%3D%220%22%20parent%3D%222%22%3E%3CmxGeometry%20x%3D%220.1879%22%20relative%3D%221%22%20as%3D%22geometry%22%3E%3CmxPoint%20x%3D%2213%22%20y%3D%22-10%22%20as%3D%22offset%22%2F%3E%3C%2FmxGeometry%3E%3C%2FmxCell%3E%3C%2Froot%3E%3C%2FmxGraphModel%3E&lt;/span&gt;&lt;span style=&quot;color: rgba(0, 0, 0, 0); font-family: monospace; font-size: 0px; text-align: start;&quot;&gt;%3CmxGraphModel%3E%3Croot%3E%3CmxCell%20id%3D%220%22%2F%3E%3CmxCell%20id%3D%221%22%20parent%3D%220%22%2F%3E%3CmxCell%20id%3D%222%22%20value%3D%22%26lt%3Bspan%20style%3D%26quot%3Bcolor%3A%20rgba(0%2C%200%2C%200%2C%200)%3B%20font-family%3A%20monospace%3B%20font-size%3A%200px%3B%20text-align%3A%20start%3B%20background-color%3A%20rgb(27%2C%2029%2C%2030)%3B%26quot%3B%26gt%3B%253CmxGraphModel%253E%253Croot%253E%253CmxCell%2520id%253D%25220%2522%252F%253E%253CmxCell%2520id%253D%25221%2522%2520parent%253D%25220%2522%252F%253E%253CmxCell%2520id%253D%25222%2522%2520value%253D%2522Module%2526lt%253Bdiv%2526gt%253BAgent%2526lt%253B%252Fdiv%2526gt%253B%2522%2520style%253D%2522shape%253DumlLifeline%253Bperimeter%253DlifelinePerimeter%253BwhiteSpace%253Dwrap%253Bhtml%253D1%253Bcontainer%253D0%253BdropTarget%253D0%253Bcollapsible%253D0%253BrecursiveResize%253D0%253BoutlineConnect%253D0%253BportConstraint%253Deastwest%253BnewEdgeStyle%253D%257B%2526quot%253BedgeStyle%2526quot%253B%253A%2526quot%253BelbowEdgeStyle%2526quot%253B%252C%2526quot%253Belbow%2526quot%253B%253A%2526quot%253Bvertical%2526quot%253B%252C%2526quot%253Bcurved%2526quot%253B%253A0%252C%2526quot%253Brounded%2526quot%253B%253A0%257D%253B%2522%2520vertex%253D%25221%2522%2520parent%253D%25221%2522%253E%253CmxGeometry%2520x%253D%2522220%2522%2520y%253D%252240%2522%2520width%253D%2522100%2522%2520height%253D%2522240%2522%2520as%253D%2522geometry%2522%252F%253E%253C%252FmxCell%253E%253CmxCell%2520id%253D%25223%2522%2520value%253D%2522%2522%2520style%253D%2522html%253D1%253Bpoints%253D%255B%255D%253Bperimeter%253DorthogonalPerimeter%253BoutlineConnect%253D0%253BtargetShapes%253DumlLifeline%253BportConstraint%253Deastwest%253BnewEdgeStyle%253D%257B%2526quot%253BedgeStyle%2526quot%253B%253A%2526quot%253BelbowEdgeStyle%2526quot%253B%252C%2526quot%253Belbow%2526quot%253B%253A%2526quot%253Bvertical%2526quot%253B%252C%2526quot%253Bcurved%2526quot%253B%253A0%252C%2526quot%253Brounded%2526quot%253B%253A0%257D%253B%2522%2520vertex%253D%25221%2522%2520parent%253D%25222%2522%253E%253CmxGeometry%2520x%253D%252245%2522%2520y%253D%252280%2522%2520width%253D%252210%2522%2520height%253D%2522110%2522%2520as%253D%2522geometry%2522%252F%253E%253C%252FmxCell%253E%253C%252Froot%253E%253C%252FmxGraphModel%253E%26lt%3B%2Fspan%26gt%3B%22%20style%3D%22endArrow%3Dblock%3Bhtml%3D1%3Brounded%3D0%3BendFill%3D1%3B%22%20edge%3D%221%22%20parent%3D%221%22%3E%3CmxGeometry%20width%3D%2250%22%20height%3D%2250%22%20relative%3D%221%22%20as%3D%22geometry%22%3E%3CmxPoint%20x%3D%22525%22%20y%3D%22220%22%20as%3D%22sourcePoint%22%2F%3E%3CmxPoint%20x%3D%22410%22%20y%3D%22220%22%20as%3D%22targetPoint%22%2F%3E%3CArray%20as%3D%22points%22%3E%3CmxPoint%20x%3D%22470%22%20y%3D%22220%22%2F%3E%3C%2FArray%3E%3C%2FmxGeometry%3E%3C%2FmxCell%3E%3CmxCell%20id%3D%223%22%20value%3D%22Skill%20Result%22%20style%3D%22edgeLabel%3Bhtml%3D1%3Balign%3Dcenter%3BverticalAlign%3Dmiddle%3Bresizable%3D0%3Bpoints%3D%5B%5D%3BlabelBackgroundColor%3Dnone%3B%22%20vertex%3D%221%22%20connectable%3D%220%22%20parent%3D%222%22%3E%3CmxGeometry%20x%3D%220.1879%22%20relative%3D%221%22%20as%3D%22geometry%22%3E%3CmxPoint%20x%3D%2213%22%20y%3D%22-10%22%20as%3D%22offset%22%2F%3E%3C%2FmxGeometry%3E%3C%2FmxCell%3E%3C%2Froot%3E%3C%2FmxGraphModel%3E&lt;/span&gt;&lt;span style=&quot;color: rgba(0, 0, 0, 0); font-family: monospace; font-size: 0px; text-align: start;&quot;&gt;%3CmxGraphModel%3E%3Croot%3E%3CmxCell%20id%3D%220%22%2F%3E%3CmxCell%20id%3D%221%22%20parent%3D%220%22%2F%3E%3CmxCell%20id%3D%222%22%20value%3D%22%26lt%3Bspan%20style%3D%26quot%3Bcolor%3A%20rgba(0%2C%200%2C%200%2C%200)%3B%20font-family%3A%20monospace%3B%20font-size%3A%200px%3B%20text-align%3A%20start%3B%20background-color%3A%20rgb(27%2C%2029%2C%2030)%3B%26quot%3B%26gt%3B%253CmxGraphModel%253E%253Croot%253E%253CmxCell%2520id%253D%25220%2522%252F%253E%253CmxCell%2520id%253D%25221%2522%2520parent%253D%25220%2522%252F%253E%253CmxCell%2520id%253D%25222%2522%2520value%253D%2522Module%2526lt%253Bdiv%2526gt%253BAgent%2526lt%253B%252Fdiv%2526gt%253B%2522%2520style%253D%2522shape%253DumlLifeline%253Bperimeter%253DlifelinePerimeter%253BwhiteSpace%253Dwrap%253Bhtml%253D1%253Bcontainer%253D0%253BdropTarget%253D0%253Bcollapsible%253D0%253BrecursiveResize%253D0%253BoutlineConnect%253D0%253BportConstraint%253Deastwest%253BnewEdgeStyle%253D%257B%2526quot%253BedgeStyle%2526quot%253B%253A%2526quot%253BelbowEdgeStyle%2526quot%253B%252C%2526quot%253Belbow%2526quot%253B%253A%2526quot%253Bvertical%2526quot%253B%252C%2526quot%253Bcurved%2526quot%253B%253A0%252C%2526quot%253Brounded%2526quot%253B%253A0%257D%253B%2522%2520vertex%253D%25221%2522%2520parent%253D%25221%2522%253E%253CmxGeometry%2520x%253D%2522220%2522%2520y%253D%252240%2522%2520width%253D%2522100%2522%2520height%253D%2522240%2522%2520as%253D%2522geometry%2522%252F%253E%253C%252FmxCell%253E%253CmxCell%2520id%253D%25223%2522%2520value%253D%2522%2522%2520style%253D%2522html%253D1%253Bpoints%253D%255B%255D%253Bperimeter%253DorthogonalPerimeter%253BoutlineConnect%253D0%253BtargetShapes%253DumlLifeline%253BportConstraint%253Deastwest%253BnewEdgeStyle%253D%257B%2526quot%253BedgeStyle%2526quot%253B%253A%2526quot%253BelbowEdgeStyle%2526quot%253B%252C%2526quot%253Belbow%2526quot%253B%253A%2526quot%253Bvertical%2526quot%253B%252C%2526quot%253Bcurved%2526quot%253B%253A0%252C%2526quot%253Brounded%2526quot%253B%253A0%257D%253B%2522%2520vertex%253D%25221%2522%2520parent%253D%25222%2522%253E%253CmxGeometry%2520x%253D%252245%2522%2520y%253D%252280%2522%2520width%253D%252210%2522%2520height%253D%2522110%2522%2520as%253D%2522geometry%2522%252F%253E%253C%252FmxCell%253E%253C%252Froot%253E%253C%252FmxGraphModel%253E%26lt%3B%2Fspan%26gt%3B%22%20style%3D%22endArrow%3Dblock%3Bhtml%3D1%3Brounded%3D0%3BendFill%3D1%3B%22%20edge%3D%221%22%20parent%3D%221%22%3E%3CmxGeometry%20width%3D%2250%22%20height%3D%2250%22%20relative%3D%221%22%20as%3D%22geometry%22%3E%3CmxPoint%20x%3D%22525%22%20y%3D%22220%22%20as%3D%22sourcePoint%22%2F%3E%3CmxPoint%20x%3D%22410%22%20y%3D%22220%22%20as%3D%22targetPoint%22%2F%3E%3CArray%20as%3D%22points%22%3E%3CmxPoint%20x%3D%22470%22%20y%3D%22220%22%2F%3E%3C%2FArray%3E%3C%2FmxGeometry%3E%3C%2FmxCell%3E%3CmxCell%20id%3D%223%22%20value%3D%22Skill%20Result%22%20style%3D%22edgeLabel%3Bhtml%3D1%3Balign%3Dcenter%3BverticalAlign%3Dmiddle%3Bresizable%3D0%3Bpoints%3D%5B%5D%3BlabelBackgroundColor%3Dnone%3B%22%20vertex%3D%221%22%20connectable%3D%220%22%20parent%3D%222%22%3E%3CmxGeometry%20x%3D%220.1879%22%20relative%3D%221%22%20as%3D%22geometry%22%3E%3CmxPoint%20x%3D%2213%22%20y%3D%22-10%22%20as%3D%22offset%22%2F%3E%3C%2FmxGeometry%3E%3C%2FmxCell%3E%3C%2Froot%3E%3C%2FmxGraphModel%3E&lt;/span&gt;&lt;span style=&quot;color: rgba(0, 0, 0, 0); font-family: monospace; font-size: 0px; text-align: start;&quot;&gt;%3CmxGraphModel%3E%3Croot%3E%3CmxCell%20id%3D%220%22%2F%3E%3CmxCell%20id%3D%221%22%20parent%3D%220%22%2F%3E%3CmxCell%20id%3D%222%22%20value%3D%22%26lt%3Bspan%20style%3D%26quot%3Bcolor%3A%20rgba(0%2C%200%2C%200%2C%200)%3B%20font-family%3A%20monospace%3B%20font-size%3A%200px%3B%20text-align%3A%20start%3B%20background-color%3A%20rgb(27%2C%2029%2C%2030)%3B%26quot%3B%26gt%3B%253CmxGraphModel%253E%253Croot%253E%253CmxCell%2520id%253D%25220%2522%252F%253E%253CmxCell%2520id%253D%25221%2522%2520parent%253D%25220%2522%252F%253E%253CmxCell%2520id%253D%25222%2522%2520value%253D%2522Module%2526lt%253Bdiv%2526gt%253BAgent%2526lt%253B%252Fdiv%2526gt%253B%2522%2520style%253D%2522shape%253DumlLifeline%253Bperimeter%253DlifelinePerimeter%253BwhiteSpace%253Dwrap%253Bhtml%253D1%253Bcontainer%253D0%253BdropTarget%253D0%253Bcollapsible%253D0%253BrecursiveResize%253D0%253BoutlineConnect%253D0%253BportConstraint%253Deastwest%253BnewEdgeStyle%253D%257B%2526quot%253BedgeStyle%2526quot%253B%253A%2526quot%253BelbowEdgeStyle%2526quot%253B%252C%2526quot%253Belbow%2526quot%253B%253A%2526quot%253Bvertical%2526quot%253B%252C%2526quot%253Bcurved%2526quot%253B%253A0%252C%2526quot%253Brounded%2526quot%253B%253A0%257D%253B%2522%2520vertex%253D%25221%2522%2520parent%253D%25221%2522%253E%253CmxGeometry%2520x%253D%2522220%2522%2520y%253D%252240%2522%2520width%253D%2522100%2522%2520height%253D%2522240%2522%2520as%253D%2522geometry%2522%252F%253E%253C%252FmxCell%253E%253CmxCell%2520id%253D%25223%2522%2520value%253D%2522%2522%2520style%253D%2522html%253D1%253Bpoints%253D%255B%255D%253Bperimeter%253DorthogonalPerimeter%253BoutlineConnect%253D0%253BtargetShapes%253DumlLifeline%253BportConstraint%253Deastwest%253BnewEdgeStyle%253D%257B%2526quot%253BedgeStyle%2526quot%253B%253A%2526quot%253BelbowEdgeStyle%2526quot%253B%252C%2526quot%253Belbow%2526quot%253B%253A%2526quot%253Bvertical%2526quot%253B%252C%2526quot%253Bcurved%2526quot%253B%253A0%252C%2526quot%253Brounded%2526quot%253B%253A0%257D%253B%2522%2520vertex%253D%25221%2522%2520parent%253D%25222%2522%253E%253CmxGeometry%2520x%253D%252245%2522%2520y%253D%252280%2522%2520width%253D%252210%2522%2520height%253D%2522110%2522%2520as%253D%2522geometry%2522%252F%253E%253C%252FmxCell%253E%253C%252Froot%253E%253C%252FmxGraphModel%253E%26lt%3B%2Fspan%26gt%3B%22%20style%3D%22endArrow%3Dblock%3Bhtml%3D1%3Brounded%3D0%3BendFill%3D1%3B%22%20edge%3D%221%22%20parent%3D%221%22%3E%3CmxGeometry%20width%3D%2250%22%20height%3D%2250%22%20relative%3D%221%22%20as%3D%22geometry%22%3E%3CmxPoint%20x%3D%22525%22%20y%3D%22220%22%20as%3D%22sourcePoint%22%2F%3E%3CmxPoint%20x%3D%22410%22%20y%3D%22220%22%20as%3D%22targetPoint%22%2F%3E%3CArray%20as%3D%22points%22%3E%3CmxPoint%20x%3D%22470%22%20y%3D%22220%22%2F%3E%3C%2FArray%3E%3C%2FmxGeometry%3E%3C%2FmxCell%3E%3CmxCell%20id%3D%223%22%20value%3D%22Skill%20Result%22%20style%3D%22edgeLabel%3Bhtml%3D1%3Balign%3Dcenter%3BverticalAlign%3Dmiddle%3Bresizable%3D0%3Bpoints%3D%5B%5D%3BlabelBackgroundColor%3Dnone%3B%22%20vertex%3D%221%22%20connectable%3D%220%22%20parent%3D%222%22%3E%3CmxGeometry%20x%3D%220.1879%22%20relative%3D%221%22%20as%3D%22geometry%22%3E%3CmxPoint%20x%3D%2213%22%20y%3D%22-10%22%20as%3D%22offset%22%2F%3E%3C%2FmxGeometry%3E%3C%2FmxCell%3E%3C%2Froot%3E%3C%2FmxGraphModel%3E&lt;/span&gt;&lt;span style=&quot;color: rgba(0, 0, 0, 0); font-family: monospace; font-size: 0px; text-align: start;&quot;&gt;%3CmxGraphModel%3E%3Croot%3E%3CmxCell%20id%3D%220%22%2F%3E%3CmxCell%20id%3D%221%22%20parent%3D%220%22%2F%3E%3CmxCell%20id%3D%222%22%20value%3D%22%26lt%3Bspan%20style%3D%26quot%3Bcolor%3A%20rgba(0%2C%200%2C%200%2C%200)%3B%20font-family%3A%20monospace%3B%20font-size%3A%200px%3B%20text-align%3A%20start%3B%20background-color%3A%20rgb(27%2C%2029%2C%2030)%3B%26quot%3B%26gt%3B%253CmxGraphModel%253E%253Croot%253E%253CmxCell%2520id%253D%25220%2522%252F%253E%253CmxCell%2520id%253D%25221%2522%2520parent%253D%25220%2522%252F%253E%253CmxCell%2520id%253D%25222%2522%2520value%253D%2522Module%2526lt%253Bdiv%2526gt%253BAgent%2526lt%253B%252Fdiv%2526gt%253B%2522%2520style%253D%2522shape%253DumlLifeline%253Bperimeter%253DlifelinePerimeter%253BwhiteSpace%253Dwrap%253Bhtml%253D1%253Bcontainer%253D0%253BdropTarget%253D0%253Bcollapsible%253D0%253BrecursiveResize%253D0%253BoutlineConnect%253D0%253BportConstraint%253Deastwest%253BnewEdgeStyle%253D%257B%2526quot%253BedgeStyle%2526quot%253B%253A%2526quot%253BelbowEdgeStyle%2526quot%253B%252C%2526quot%253Belbow%2526quot%253B%253A%2526quot%253Bvertical%2526quot%253B%252C%2526quot%253Bcurved%2526quot%253B%253A0%252C%2526quot%253Brounded%2526quot%253B%253A0%257D%253B%2522%2520vertex%253D%25221%2522%2520parent%253D%25221%2522%253E%253CmxGeometry%2520x%253D%2522220%2522%2520y%253D%252240%2522%2520width%253D%2522100%2522%2520height%253D%2522240%2522%2520as%253D%2522geometry%2522%252F%253E%253C%252FmxCell%253E%253CmxCell%2520id%253D%25223%2522%2520value%253D%2522%2522%2520style%253D%2522html%253D1%253Bpoints%253D%255B%255D%253Bperimeter%253DorthogonalPerimeter%253BoutlineConnect%253D0%253BtargetShapes%253DumlLifeline%253BportConstraint%253Deastwest%253BnewEdgeStyle%253D%257B%2526quot%253BedgeStyle%2526quot%253B%253A%2526quot%253BelbowEdgeStyle%2526quot%253B%252C%2526quot%253Belbow%2526quot%253B%253A%2526quot%253Bvertical%2526quot%253B%252C%2526quot%253Bcurved%2526quot%253B%253A0%252C%2526quot%253Brounded%2526quot%253B%253A0%257D%253B%2522%2520vertex%253D%25221%2522%2520parent%253D%25222%2522%253E%253CmxGeometry%2520x%253D%252245%2522%2520y%253D%252280%2522%2520width%253D%252210%2522%2520height%253D%2522110%2522%2520as%253D%2522geometry%2522%252F%253E%253C%252FmxCell%253E%253C%252Froot%253E%253C%252FmxGraphModel%253E%26lt%3B%2Fspan%26gt%3B%22%20style%3D%22endArrow%3Dblock%3Bhtml%3D1%3Brounded%3D0%3BendFill%3D1%3B%22%20edge%3D%221%22%20parent%3D%221%22%3E%3CmxGeometry%20width%3D%2250%22%20height%3D%2250%22%20relative%3D%221%22%20as%3D%22geometry%22%3E%3CmxPoint%20x%3D%22525%22%20y%3D%22220%22%20as%3D%22sourcePoint%22%2F%3E%3CmxPoint%20x%3D%22410%22%20y%3D%22220%22%20as%3D%22targetPoint%22%2F%3E%3CArray%20as%3D%22points%22%3E%3CmxPoint%20x%3D%22470%22%20y%3D%22220%22%2F%3E%3C%2FArray%3E%3C%2FmxGeometry%3E%3C%2FmxCell%3E%3CmxCell%20id%3D%223%22%20value%3D%22Skill%20Result%22%20style%3D%22edgeLabel%3Bhtml%3D1%3Balign%3Dcenter%3BverticalAlign%3Dmiddle%3Bresizable%3D0%3Bpoints%3D%5B%5D%3BlabelBackgroundColor%3Dnone%3B%22%20vertex%3D%221%22%20connectable%3D%220%22%20parent%3D%222%22%3E%3CmxGeometry%20x%3D%220.1879%22%20relative%3D%221%22%20as%3D%22geometry%22%3E%3CmxPoint%20x%3D%2213%22%20y%3D%22-10%22%20as%3D%22offset%22%2F%3E%3C%2FmxGeometry%3E%3C%2FmxCell%3E%3C%2Froot%3E%3C%2FmxGraphModel%3E&lt;/span&gt;&lt;span style=&quot;color: rgba(0, 0, 0, 0); font-family: monospace; font-size: 0px; text-align: start;&quot;&gt;%3CmxGraphModel%3E%3Croot%3E%3CmxCell%20id%3D%220%22%2F%3E%3CmxCell%20id%3D%221%22%20parent%3D%220%22%2F%3E%3CmxCell%20id%3D%222%22%20value%3D%22%26lt%3Bspan%20style%3D%26quot%3Bcolor%3A%20rgba(0%2C%200%2C%200%2C%200)%3B%20font-family%3A%20monospace%3B%20font-size%3A%200px%3B%20text-align%3A%20start%3B%20background-color%3A%20rgb(27%2C%2029%2C%2030)%3B%26quot%3B%26gt%3B%253CmxGraphModel%253E%253Croot%253E%253CmxCell%2520id%253D%25220%2522%252F%253E%253CmxCell%2520id%253D%25221%2522%2520parent%253D%25220%2522%252F%253E%253CmxCell%2520id%253D%25222%2522%2520value%253D%2522Module%2526lt%253Bdiv%2526gt%253BAgent%2526lt%253B%252Fdiv%2526gt%253B%2522%2520style%253D%2522shape%253DumlLifeline%253Bperimeter%253DlifelinePerimeter%253BwhiteSpace%253Dwrap%253Bhtml%253D1%253Bcontainer%253D0%253BdropTarget%253D0%253Bcollapsible%253D0%253BrecursiveResize%253D0%253BoutlineConnect%253D0%253BportConstraint%253Deastwest%253BnewEdgeStyle%253D%257B%2526quot%253BedgeStyle%2526quot%253B%253A%2526quot%253BelbowEdgeStyle%2526quot%253B%252C%2526quot%253Belbow%2526quot%253B%253A%2526quot%253Bvertical%2526quot%253B%252C%2526quot%253Bcurved%2526quot%253B%253A0%252C%2526quot%253Brounded%2526quot%253B%253A0%257D%253B%2522%2520vertex%253D%25221%2522%2520parent%253D%25221%2522%253E%253CmxGeometry%2520x%253D%2522220%2522%2520y%253D%252240%2522%2520width%253D%2522100%2522%2520height%253D%2522240%2522%2520as%253D%2522geometry%2522%252F%253E%253C%252FmxCell%253E%253CmxCell%2520id%253D%25223%2522%2520value%253D%2522%2522%2520style%253D%2522html%253D1%253Bpoints%253D%255B%255D%253Bperimeter%253DorthogonalPerimeter%253BoutlineConnect%253D0%253BtargetShapes%253DumlLifeline%253BportConstraint%253Deastwest%253BnewEdgeStyle%253D%257B%2526quot%253BedgeStyle%2526quot%253B%253A%2526quot%253BelbowEdgeStyle%2526quot%253B%252C%2526quot%253Belbow%2526quot%253B%253A%2526quot%253Bvertical%2526quot%253B%252C%2526quot%253Bcurved%2526quot%253B%253A0%252C%2526quot%253Brounded%2526quot%253B%253A0%257D%253B%2522%2520vertex%253D%25221%2522%2520parent%253D%25222%2522%253E%253CmxGeometry%2520x%253D%252245%2522%2520y%253D%252280%2522%2520width%253D%252210%2522%2520height%253D%2522110%2522%2520as%253D%2522geometry%2522%252F%253E%253C%252FmxCell%253E%253C%252Froot%253E%253C%252FmxGraphModel%253E%26lt%3B%2Fspan%26gt%3B%22%20style%3D%22endArrow%3Dblock%3Bhtml%3D1%3Brounded%3D0%3BendFill%3D1%3B%22%20edge%3D%221%22%20parent%3D%221%22%3E%3CmxGeometry%20width%3D%2250%22%20height%3D%2250%22%20relative%3D%221%22%20as%3D%22geometry%22%3E%3CmxPoint%20x%3D%22525%22%20y%3D%22220%22%20as%3D%22sourcePoint%22%2F%3E%3CmxPoint%20x%3D%22410%22%20y%3D%22220%22%20as%3D%22targetPoint%22%2F%3E%3CArray%20as%3D%22points%22%3E%3CmxPoint%20x%3D%22470%22%20y%3D%22220%22%2F%3E%3C%2FArray%3E%3C%2FmxGeometry%3E%3C%2FmxCell%3E%3CmxCell%20id%3D%223%22%20value%3D%22Skill%20Result%22%20style%3D%22edgeLabel%3Bhtml%3D1%3Balign%3Dcenter%3BverticalAlign%3Dmiddle%3Bresizable%3D0%3Bpoints%3D%5B%5D%3BlabelBackgroundColor%3Dnone%3B%22%20vertex%3D%221%22%20connectable%3D%220%22%20parent%3D%222%22%3E%3CmxGeometry%20x%3D%220.1879%22%20relative%3D%221%22%20as%3D%22geometry%22%3E%3CmxPoint%20x%3D%2213%22%20y%3D%22-10%22%20as%3D%22offset%22%2F%3E%3C%2FmxGeometry%3E%3C%2FmxCell%3E%3C%2Froot%3E%3C%2FmxGraphModel%3E&lt;/span&gt;&lt;span style=&quot;color: rgba(0, 0, 0, 0); font-family: monospace; font-size: 0px; text-align: start;&quot;&gt;%3CmxGraphModel%3E%3Croot%3E%3CmxCell%20id%3D%220%22%2F%3E%3CmxCell%20id%3D%221%22%20parent%3D%220%22%2F%3E%3CmxCell%20id%3D%222%22%20value%3D%22%26lt%3Bspan%20style%3D%26quot%3Bcolor%3A%20rgba(0%2C%200%2C%200%2C%200)%3B%20font-family%3A%20monospace%3B%20font-size%3A%200px%3B%20text-align%3A%20start%3B%20background-color%3A%20rgb(27%2C%2029%2C%2030)%3B%26quot%3B%26gt%3B%253CmxGraphModel%253E%253Croot%253E%253CmxCell%2520id%253D%25220%2522%252F%253E%253CmxCell%2520id%253D%25221%2522%2520parent%253D%25220%2522%252F%253E%253CmxCell%2520id%253D%25222%2522%2520value%253D%2522Module%2526lt%253Bdiv%2526gt%253BAgent%2526lt%253B%252Fdiv%2526gt%253B%2522%2520style%253D%2522shape%253DumlLifeline%253Bperimeter%253DlifelinePerimeter%253BwhiteSpace%253Dwrap%253Bhtml%253D1%253Bcontainer%253D0%253BdropTarget%253D0%253Bcollapsible%253D0%253BrecursiveResize%253D0%253BoutlineConnect%253D0%253BportConstraint%253Deastwest%253BnewEdgeStyle%253D%257B%2526quot%253BedgeStyle%2526quot%253B%253A%2526quot%253BelbowEdgeStyle%2526quot%253B%252C%2526quot%253Belbow%2526quot%253B%253A%2526quot%253Bvertical%2526quot%253B%252C%2526quot%253Bcurved%2526quot%253B%253A0%252C%2526quot%253Brounded%2526quot%253B%253A0%257D%253B%2522%2520vertex%253D%25221%2522%2520parent%253D%25221%2522%253E%253CmxGeometry%2520x%253D%2522220%2522%2520y%253D%252240%2522%2520width%253D%2522100%2522%2520height%253D%2522240%2522%2520as%253D%2522geometry%2522%252F%253E%253C%252FmxCell%253E%253CmxCell%2520id%253D%25223%2522%2520value%253D%2522%2522%2520style%253D%2522html%253D1%253Bpoints%253D%255B%255D%253Bperimeter%253DorthogonalPerimeter%253BoutlineConnect%253D0%253BtargetShapes%253DumlLifeline%253BportConstraint%253Deastwest%253BnewEdgeStyle%253D%257B%2526quot%253BedgeStyle%2526quot%253B%253A%2526quot%253BelbowEdgeStyle%2526quot%253B%252C%2526quot%253Belbow%2526quot%253B%253A%2526quot%253Bvertical%2526quot%253B%252C%2526quot%253Bcurved%2526quot%253B%253A0%252C%2526quot%253Brounded%2526quot%253B%253A0%257D%253B%2522%2520vertex%253D%25221%2522%2520parent%253D%25222%2522%253E%253CmxGeometry%2520x%253D%252245%2522%2520y%253D%252280%2522%2520width%253D%252210%2522%2520height%253D%2522110%2522%2520as%253D%2522geometry%2522%252F%253E%253C%252FmxCell%253E%253C%252Froot%253E%253C%252FmxGraphModel%253E%26lt%3B%2Fspan%26gt%3B%22%20style%3D%22endArrow%3Dblock%3Bhtml%3D1%3Brounded%3D0%3BendFill%3D1%3B%22%20edge%3D%221%22%20parent%3D%221%22%3E%3CmxGeometry%20width%3D%2250%22%20height%3D%2250%22%20relative%3D%221%22%20as%3D%22geometry%22%3E%3CmxPoint%20x%3D%22525%22%20y%3D%22220%22%20as%3D%22sourcePoint%22%2F%3E%3CmxPoint%20x%3D%22410%22%20y%3D%22220%22%20as%3D%22targetPoint%22%2F%3E%3CArray%20as%3D%22points%22%3E%3CmxPoint%20x%3D%22470%22%20y%3D%22220%22%2F%3E%3C%2FArray%3E%3C%2FmxGeometry%3E%3C%2FmxCell%3E%3CmxCell%20id%3D%223%22%20value%3D%22Skill%20Result%22%20style%3D%22edgeLabel%3Bhtml%3D1%3Balign%3Dcenter%3BverticalAlign%3Dmiddle%3Bresizable%3D0%3Bpoints%3D%5B%5D%3BlabelBackgroundColor%3Dnone%3B%22%20vertex%3D%221%22%20connectable%3D%220%22%20parent%3D%222%22%3E%3CmxGeometry%20x%3D%220.1879%22%20relative%3D%221%22%20as%3D%22geometry%22%3E%3CmxPoint%20x%3D%2213%22%20y%3D%22-10%22%20as%3D%22offset%22%2F%3E%3C%2FmxGeometry%3E%3C%2FmxCell%3E%3C%2Froot%3E%3C%2FmxGraphModel%3E&lt;/span&gt;&lt;span style=&quot;color: rgba(0, 0, 0, 0); font-family: monospace; font-size: 0px; text-align: start;&quot;&gt;%3CmxGraphModel%3E%3Croot%3E%3CmxCell%20id%3D%220%22%2F%3E%3CmxCell%20id%3D%221%22%20parent%3D%220%22%2F%3E%3CmxCell%20id%3D%222%22%20value%3D%22%26lt%3Bspan%20style%3D%26quot%3Bcolor%3A%20rgba(0%2C%200%2C%200%2C%200)%3B%20font-family%3A%20monospace%3B%20font-size%3A%200px%3B%20text-align%3A%20start%3B%20background-color%3A%20rgb(27%2C%2029%2C%2030)%3B%26quot%3B%26gt%3B%253CmxGraphModel%253E%253Croot%253E%253CmxCell%2520id%253D%25220%2522%252F%253E%253CmxCell%2520id%253D%25221%2522%2520parent%253D%25220%2522%252F%253E%253CmxCell%2520id%253D%25222%2522%2520value%253D%2522Module%2526lt%253Bdiv%2526gt%253BAgent%2526lt%253B%252Fdiv%2526gt%253B%2522%2520style%253D%2522shape%253DumlLifeline%253Bperimeter%253DlifelinePerimeter%253BwhiteSpace%253Dwrap%253Bhtml%253D1%253Bcontainer%253D0%253BdropTarget%253D0%253Bcollapsible%253D0%253BrecursiveResize%253D0%253BoutlineConnect%253D0%253BportConstraint%253Deastwest%253BnewEdgeStyle%253D%257B%2526quot%253BedgeStyle%2526quot%253B%253A%2526quot%253BelbowEdgeStyle%2526quot%253B%252C%2526quot%253Belbow%2526quot%253B%253A%2526quot%253Bvertical%2526quot%253B%252C%2526quot%253Bcurved%2526quot%253B%253A0%252C%2526quot%253Brounded%2526quot%253B%253A0%257D%253B%2522%2520vertex%253D%25221%2522%2520parent%253D%25221%2522%253E%253CmxGeometry%2520x%253D%2522220%2522%2520y%253D%252240%2522%2520width%253D%2522100%2522%2520height%253D%2522240%2522%2520as%253D%2522geometry%2522%252F%253E%253C%252FmxCell%253E%253CmxCell%2520id%253D%25223%2522%2520value%253D%2522%2522%2520style%253D%2522html%253D1%253Bpoints%253D%255B%255D%253Bperimeter%253DorthogonalPerimeter%253BoutlineConnect%253D0%253BtargetShapes%253DumlLifeline%253BportConstraint%253Deastwest%253BnewEdgeStyle%253D%257B%2526quot%253BedgeStyle%2526quot%253B%253A%2526quot%253BelbowEdgeStyle%2526quot%253B%252C%2526quot%253Belbow%2526quot%253B%253A%2526quot%253Bvertical%2526quot%253B%252C%2526quot%253Bcurved%2526quot%253B%253A0%252C%2526quot%253Brounded%2526quot%253B%253A0%257D%253B%2522%2520vertex%253D%25221%2522%2520parent%253D%25222%2522%253E%253CmxGeometry%2520x%253D%252245%2522%2520y%253D%252280%2522%2520width%253D%252210%2522%2520height%253D%2522110%2522%2520as%253D%2522geometry%2522%252F%253E%253C%252FmxCell%253E%253C%252Froot%253E%253C%252FmxGraphModel%253E%26lt%3B%2Fspan%26gt%3B%22%20style%3D%22endArrow%3Dblock%3Bhtml%3D1%3Brounded%3D0%3BendFill%3D1%3B%22%20edge%3D%221%22%20parent%3D%221%22%3E%3CmxGeometry%20width%3D%2250%22%20height%3D%2250%22%20relative%3D%221%22%20as%3D%22geometry%22%3E%3CmxPoint%20x%3D%22525%22%20y%3D%22220%22%20as%3D%22sourcePoint%22%2F%3E%3CmxPoint%20x%3D%22410%22%20y%3D%22220%22%20as%3D%22targetPoint%22%2F%3E%3CArray%20as%3D%22points%22%3E%3CmxPoint%20x%3D%22470%22%20y%3D%22220%22%2F%3E%3C%2FArray%3E%3C%2FmxGeometry%3E%3C%2FmxCell%3E%3CmxCell%20id%3D%223%22%20value%3D%22Skill%20Result%22%20style%3D%22edgeLabel%3Bhtml%3D1%3Balign%3Dcenter%3BverticalAlign%3Dmiddle%3Bresizable%3D0%3Bpoints%3D%5B%5D%3BlabelBackgroundColor%3Dnone%3B%22%20vertex%3D%221%22%20connectable%3D%220%22%20parent%3D%222%22%3E%3CmxGeometry%20x%3D%220.1879%22%20relative%3D%221%22%20as%3D%22geometry%22%3E%3CmxPoint%20x%3D%2213%22%20y%3D%22-10%22%20as%3D%22offset%22%2F%3E%3C%2FmxGeometry%3E%3C%2FmxCell%3E%3C%2Froot%3E%3C%2FmxGraphModel%3E&lt;/span&gt;&lt;span style=&quot;color: rgba(0, 0, 0, 0); font-family: monospace; font-size: 0px; text-align: start;&quot;&gt;%3CmxGraphModel%3E%3Croot%3E%3CmxCell%20id%3D%220%22%2F%3E%3CmxCell%20id%3D%221%22%20parent%3D%220%22%2F%3E%3CmxCell%20id%3D%222%22%20value%3D%22%26lt%3Bspan%20style%3D%26quot%3Bcolor%3A%20rgba(0%2C%200%2C%200%2C%200)%3B%20font-family%3A%20monospace%3B%20font-size%3A%200px%3B%20text-align%3A%20start%3B%20background-color%3A%20rgb(27%2C%2029%2C%2030)%3B%26quot%3B%26gt%3B%253CmxGraphModel%253E%253Croot%253E%253CmxCell%2520id%253D%25220%2522%252F%253E%253CmxCell%2520id%253D%25221%2522%2520parent%253D%25220%2522%252F%253E%253CmxCell%2520id%253D%25222%2522%2520value%253D%2522Module%2526lt%253Bdiv%2526gt%253BAgent%2526lt%253B%252Fdiv%2526gt%253B%2522%2520style%253D%2522shape%253DumlLifeline%253Bperimeter%253DlifelinePerimeter%253BwhiteSpace%253Dwrap%253Bhtml%253D1%253Bcontainer%253D0%253BdropTarget%253D0%253Bcollapsible%253D0%253BrecursiveResize%253D0%253BoutlineConnect%253D0%253BportConstraint%253Deastwest%253BnewEdgeStyle%253D%257B%2526quot%253BedgeStyle%2526quot%253B%253A%2526quot%253BelbowEdgeStyle%2526quot%253B%252C%2526quot%253Belbow%2526quot%253B%253A%2526quot%253Bvertical%2526quot%253B%252C%2526quot%253Bcurved%2526quot%253B%253A0%252C%2526quot%253Brounded%2526quot%253B%253A0%257D%253B%2522%2520vertex%253D%25221%2522%2520parent%253D%25221%2522%253E%253CmxGeometry%2520x%253D%2522220%2522%2520y%253D%252240%2522%2520width%253D%2522100%2522%2520height%253D%2522240%2522%2520as%253D%2522geometry%2522%252F%253E%253C%252FmxCell%253E%253CmxCell%2520id%253D%25223%2522%2520value%253D%2522%2522%2520style%253D%2522html%253D1%253Bpoints%253D%255B%255D%253Bperimeter%253DorthogonalPerimeter%253BoutlineConnect%253D0%253BtargetShapes%253DumlLifeline%253BportConstraint%253Deastwest%253BnewEdgeStyle%253D%257B%2526quot%253BedgeStyle%2526quot%253B%253A%2526quot%253BelbowEdgeStyle%2526quot%253B%252C%2526quot%253Belbow%2526quot%253B%253A%2526quot%253Bvertical%2526quot%253B%252C%2526quot%253Bcurved%2526quot%253B%253A0%252C%2526quot%253Brounded%2526quot%253B%253A0%257D%253B%2522%2520vertex%253D%25221%2522%2520parent%253D%25222%2522%253E%253CmxGeometry%2520x%253D%252245%2522%2520y%253D%252280%2522%2520width%253D%252210%2522%2520height%253D%2522110%2522%2520as%253D%2522geometry%2522%252F%253E%253C%252FmxCell%253E%253C%252Froot%253E%253C%252FmxGraphModel%253E%26lt%3B%2Fspan%26gt%3B%22%20style%3D%22endArrow%3Dblock%3Bhtml%3D1%3Brounded%3D0%3BendFill%3D1%3B%22%20edge%3D%221%22%20parent%3D%221%22%3E%3CmxGeometry%20width%3D%2250%22%20height%3D%2250%22%20relative%3D%221%22%20as%3D%22geometry%22%3E%3CmxPoint%20x%3D%22525%22%20y%3D%22220%22%20as%3D%22sourcePoint%22%2F%3E%3CmxPoint%20x%3D%22410%22%20y%3D%22220%22%20as%3D%22targetPoint%22%2F%3E%3CArray%20as%3D%22points%22%3E%3CmxPoint%20x%3D%22470%22%20y%3D%22220%22%2F%3E%3C%2FArray%3E%3C%2FmxGeometry%3E%3C%2FmxCell%3E%3CmxCell%20id%3D%223%22%20value%3D%22Skill%20Result%22%20style%3D%22edgeLabel%3Bhtml%3D1%3Balign%3Dcenter%3BverticalAlign%3Dmiddle%3Bresizable%3D0%3Bpoints%3D%5B%5D%3BlabelBackgroundColor%3Dnone%3B%22%20vertex%3D%221%22%20connectable%3D%220%22%20parent%3D%222%22%3E%3CmxGeometry%20x%3D%220.1879%22%20relative%3D%221%22%20as%3D%22geometry%22%3E%3CmxPoint%20x%3D%2213%22%20y%3D%22-10%22%20as%3D%22offset%22%2F%3E%3C%2FmxGeometry%3E%3C%2FmxCell%3E%3C%2Froot%3E%3C%2FmxGraphModel%3E&lt;/span&gt;" style="html=1;points=[];perimeter=orthogonalPerimeter;outlineConnect=0;targetShapes=umlLifeline;portConstraint=eastwest;newEdgeStyle={&quot;edgeStyle&quot;:&quot;elbowEdgeStyle&quot;,&quot;elbow&quot;:&quot;vertical&quot;,&quot;curved&quot;:0,&quot;rounded&quot;:0};" parent="aM9ryv3xv72pqoxQDRHE-1" vertex="1">
          <mxGeometry x="45" y="90" width="10" height="40" as="geometry" />
        </mxCell>
        <mxCell id="DJSpjsadpEVMZx1hX49n-23" value="&lt;span style=&quot;color: rgba(0, 0, 0, 0); font-family: monospace; font-size: 0px; text-align: start;&quot;&gt;%3CmxGraphModel%3E%3Croot%3E%3CmxCell%20id%3D%220%22%2F%3E%3CmxCell%20id%3D%221%22%20parent%3D%220%22%2F%3E%3CmxCell%20id%3D%222%22%20value%3D%22%26lt%3Bspan%20style%3D%26quot%3Bcolor%3A%20rgba(0%2C%200%2C%200%2C%200)%3B%20font-family%3A%20monospace%3B%20font-size%3A%200px%3B%20text-align%3A%20start%3B%20background-color%3A%20rgb(27%2C%2029%2C%2030)%3B%26quot%3B%26gt%3B%253CmxGraphModel%253E%253Croot%253E%253CmxCell%2520id%253D%25220%2522%252F%253E%253CmxCell%2520id%253D%25221%2522%2520parent%253D%25220%2522%252F%253E%253CmxCell%2520id%253D%25222%2522%2520value%253D%2522Module%2526lt%253Bdiv%2526gt%253BAgent%2526lt%253B%252Fdiv%2526gt%253B%2522%2520style%253D%2522shape%253DumlLifeline%253Bperimeter%253DlifelinePerimeter%253BwhiteSpace%253Dwrap%253Bhtml%253D1%253Bcontainer%253D0%253BdropTarget%253D0%253Bcollapsible%253D0%253BrecursiveResize%253D0%253BoutlineConnect%253D0%253BportConstraint%253Deastwest%253BnewEdgeStyle%253D%257B%2526quot%253BedgeStyle%2526quot%253B%253A%2526quot%253BelbowEdgeStyle%2526quot%253B%252C%2526quot%253Belbow%2526quot%253B%253A%2526quot%253Bvertical%2526quot%253B%252C%2526quot%253Bcurved%2526quot%253B%253A0%252C%2526quot%253Brounded%2526quot%253B%253A0%257D%253B%2522%2520vertex%253D%25221%2522%2520parent%253D%25221%2522%253E%253CmxGeometry%2520x%253D%2522220%2522%2520y%253D%252240%2522%2520width%253D%2522100%2522%2520height%253D%2522240%2522%2520as%253D%2522geometry%2522%252F%253E%253C%252FmxCell%253E%253CmxCell%2520id%253D%25223%2522%2520value%253D%2522%2522%2520style%253D%2522html%253D1%253Bpoints%253D%255B%255D%253Bperimeter%253DorthogonalPerimeter%253BoutlineConnect%253D0%253BtargetShapes%253DumlLifeline%253BportConstraint%253Deastwest%253BnewEdgeStyle%253D%257B%2526quot%253BedgeStyle%2526quot%253B%253A%2526quot%253BelbowEdgeStyle%2526quot%253B%252C%2526quot%253Belbow%2526quot%253B%253A%2526quot%253Bvertical%2526quot%253B%252C%2526quot%253Bcurved%2526quot%253B%253A0%252C%2526quot%253Brounded%2526quot%253B%253A0%257D%253B%2522%2520vertex%253D%25221%2522%2520parent%253D%25222%2522%253E%253CmxGeometry%2520x%253D%252245%2522%2520y%253D%252280%2522%2520width%253D%252210%2522%2520height%253D%2522110%2522%2520as%253D%2522geometry%2522%252F%253E%253C%252FmxCell%253E%253C%252Froot%253E%253C%252FmxGraphModel%253E%26lt%3B%2Fspan%26gt%3B%22%20style%3D%22endArrow%3Dblock%3Bhtml%3D1%3Brounded%3D0%3BendFill%3D1%3B%22%20edge%3D%221%22%20parent%3D%221%22%3E%3CmxGeometry%20width%3D%2250%22%20height%3D%2250%22%20relative%3D%221%22%20as%3D%22geometry%22%3E%3CmxPoint%20x%3D%22525%22%20y%3D%22220%22%20as%3D%22sourcePoint%22%2F%3E%3CmxPoint%20x%3D%22410%22%20y%3D%22220%22%20as%3D%22targetPoint%22%2F%3E%3CArray%20as%3D%22points%22%3E%3CmxPoint%20x%3D%22470%22%20y%3D%22220%22%2F%3E%3C%2FArray%3E%3C%2FmxGeometry%3E%3C%2FmxCell%3E%3CmxCell%20id%3D%223%22%20value%3D%22Skill%20Result%22%20style%3D%22edgeLabel%3Bhtml%3D1%3Balign%3Dcenter%3BverticalAlign%3Dmiddle%3Bresizable%3D0%3Bpoints%3D%5B%5D%3BlabelBackgroundColor%3Dnone%3B%22%20vertex%3D%221%22%20connectable%3D%220%22%20parent%3D%222%22%3E%3CmxGeometry%20x%3D%220.1879%22%20relative%3D%221%22%20as%3D%22geometry%22%3E%3CmxPoint%20x%3D%2213%22%20y%3D%22-10%22%20as%3D%22offset%22%2F%3E%3C%2FmxGeometry%3E%3C%2FmxCell%3E%3C%2Froot%3E%3C%2FmxGraphModel%3E&lt;/span&gt;&lt;span style=&quot;color: rgba(0, 0, 0, 0); font-family: monospace; font-size: 0px; text-align: start;&quot;&gt;%3CmxGraphModel%3E%3Croot%3E%3CmxCell%20id%3D%220%22%2F%3E%3CmxCell%20id%3D%221%22%20parent%3D%220%22%2F%3E%3CmxCell%20id%3D%222%22%20value%3D%22%26lt%3Bspan%20style%3D%26quot%3Bcolor%3A%20rgba(0%2C%200%2C%200%2C%200)%3B%20font-family%3A%20monospace%3B%20font-size%3A%200px%3B%20text-align%3A%20start%3B%20background-color%3A%20rgb(27%2C%2029%2C%2030)%3B%26quot%3B%26gt%3B%253CmxGraphModel%253E%253Croot%253E%253CmxCell%2520id%253D%25220%2522%252F%253E%253CmxCell%2520id%253D%25221%2522%2520parent%253D%25220%2522%252F%253E%253CmxCell%2520id%253D%25222%2522%2520value%253D%2522Module%2526lt%253Bdiv%2526gt%253BAgent%2526lt%253B%252Fdiv%2526gt%253B%2522%2520style%253D%2522shape%253DumlLifeline%253Bperimeter%253DlifelinePerimeter%253BwhiteSpace%253Dwrap%253Bhtml%253D1%253Bcontainer%253D0%253BdropTarget%253D0%253Bcollapsible%253D0%253BrecursiveResize%253D0%253BoutlineConnect%253D0%253BportConstraint%253Deastwest%253BnewEdgeStyle%253D%257B%2526quot%253BedgeStyle%2526quot%253B%253A%2526quot%253BelbowEdgeStyle%2526quot%253B%252C%2526quot%253Belbow%2526quot%253B%253A%2526quot%253Bvertical%2526quot%253B%252C%2526quot%253Bcurved%2526quot%253B%253A0%252C%2526quot%253Brounded%2526quot%253B%253A0%257D%253B%2522%2520vertex%253D%25221%2522%2520parent%253D%25221%2522%253E%253CmxGeometry%2520x%253D%2522220%2522%2520y%253D%252240%2522%2520width%253D%2522100%2522%2520height%253D%2522240%2522%2520as%253D%2522geometry%2522%252F%253E%253C%252FmxCell%253E%253CmxCell%2520id%253D%25223%2522%2520value%253D%2522%2522%2520style%253D%2522html%253D1%253Bpoints%253D%255B%255D%253Bperimeter%253DorthogonalPerimeter%253BoutlineConnect%253D0%253BtargetShapes%253DumlLifeline%253BportConstraint%253Deastwest%253BnewEdgeStyle%253D%257B%2526quot%253BedgeStyle%2526quot%253B%253A%2526quot%253BelbowEdgeStyle%2526quot%253B%252C%2526quot%253Belbow%2526quot%253B%253A%2526quot%253Bvertical%2526quot%253B%252C%2526quot%253Bcurved%2526quot%253B%253A0%252C%2526quot%253Brounded%2526quot%253B%253A0%257D%253B%2522%2520vertex%253D%25221%2522%2520parent%253D%25222%2522%253E%253CmxGeometry%2520x%253D%252245%2522%2520y%253D%252280%2522%2520width%253D%252210%2522%2520height%253D%2522110%2522%2520as%253D%2522geometry%2522%252F%253E%253C%252FmxCell%253E%253C%252Froot%253E%253C%252FmxGraphModel%253E%26lt%3B%2Fspan%26gt%3B%22%20style%3D%22endArrow%3Dblock%3Bhtml%3D1%3Brounded%3D0%3BendFill%3D1%3B%22%20edge%3D%221%22%20parent%3D%221%22%3E%3CmxGeometry%20width%3D%2250%22%20height%3D%2250%22%20relative%3D%221%22%20as%3D%22geometry%22%3E%3CmxPoint%20x%3D%22525%22%20y%3D%22220%22%20as%3D%22sourcePoint%22%2F%3E%3CmxPoint%20x%3D%22410%22%20y%3D%22220%22%20as%3D%22targetPoint%22%2F%3E%3CArray%20as%3D%22points%22%3E%3CmxPoint%20x%3D%22470%22%20y%3D%22220%22%2F%3E%3C%2FArray%3E%3C%2FmxGeometry%3E%3C%2FmxCell%3E%3CmxCell%20id%3D%223%22%20value%3D%22Skill%20Result%22%20style%3D%22edgeLabel%3Bhtml%3D1%3Balign%3Dcenter%3BverticalAlign%3Dmiddle%3Bresizable%3D0%3Bpoints%3D%5B%5D%3BlabelBackgroundColor%3Dnone%3B%22%20vertex%3D%221%22%20connectable%3D%220%22%20parent%3D%222%22%3E%3CmxGeometry%20x%3D%220.1879%22%20relative%3D%221%22%20as%3D%22geometry%22%3E%3CmxPoint%20x%3D%2213%22%20y%3D%22-10%22%20as%3D%22offset%22%2F%3E%3C%2FmxGeometry%3E%3C%2FmxCell%3E%3C%2Froot%3E%3C%2FmxGraphModel%3E&lt;/span&gt;&lt;span style=&quot;color: rgba(0, 0, 0, 0); font-family: monospace; font-size: 0px; text-align: start;&quot;&gt;%3CmxGraphModel%3E%3Croot%3E%3CmxCell%20id%3D%220%22%2F%3E%3CmxCell%20id%3D%221%22%20parent%3D%220%22%2F%3E%3CmxCell%20id%3D%222%22%20value%3D%22%26lt%3Bspan%20style%3D%26quot%3Bcolor%3A%20rgba(0%2C%200%2C%200%2C%200)%3B%20font-family%3A%20monospace%3B%20font-size%3A%200px%3B%20text-align%3A%20start%3B%20background-color%3A%20rgb(27%2C%2029%2C%2030)%3B%26quot%3B%26gt%3B%253CmxGraphModel%253E%253Croot%253E%253CmxCell%2520id%253D%25220%2522%252F%253E%253CmxCell%2520id%253D%25221%2522%2520parent%253D%25220%2522%252F%253E%253CmxCell%2520id%253D%25222%2522%2520value%253D%2522Module%2526lt%253Bdiv%2526gt%253BAgent%2526lt%253B%252Fdiv%2526gt%253B%2522%2520style%253D%2522shape%253DumlLifeline%253Bperimeter%253DlifelinePerimeter%253BwhiteSpace%253Dwrap%253Bhtml%253D1%253Bcontainer%253D0%253BdropTarget%253D0%253Bcollapsible%253D0%253BrecursiveResize%253D0%253BoutlineConnect%253D0%253BportConstraint%253Deastwest%253BnewEdgeStyle%253D%257B%2526quot%253BedgeStyle%2526quot%253B%253A%2526quot%253BelbowEdgeStyle%2526quot%253B%252C%2526quot%253Belbow%2526quot%253B%253A%2526quot%253Bvertical%2526quot%253B%252C%2526quot%253Bcurved%2526quot%253B%253A0%252C%2526quot%253Brounded%2526quot%253B%253A0%257D%253B%2522%2520vertex%253D%25221%2522%2520parent%253D%25221%2522%253E%253CmxGeometry%2520x%253D%2522220%2522%2520y%253D%252240%2522%2520width%253D%2522100%2522%2520height%253D%2522240%2522%2520as%253D%2522geometry%2522%252F%253E%253C%252FmxCell%253E%253CmxCell%2520id%253D%25223%2522%2520value%253D%2522%2522%2520style%253D%2522html%253D1%253Bpoints%253D%255B%255D%253Bperimeter%253DorthogonalPerimeter%253BoutlineConnect%253D0%253BtargetShapes%253DumlLifeline%253BportConstraint%253Deastwest%253BnewEdgeStyle%253D%257B%2526quot%253BedgeStyle%2526quot%253B%253A%2526quot%253BelbowEdgeStyle%2526quot%253B%252C%2526quot%253Belbow%2526quot%253B%253A%2526quot%253Bvertical%2526quot%253B%252C%2526quot%253Bcurved%2526quot%253B%253A0%252C%2526quot%253Brounded%2526quot%253B%253A0%257D%253B%2522%2520vertex%253D%25221%2522%2520parent%253D%25222%2522%253E%253CmxGeometry%2520x%253D%252245%2522%2520y%253D%252280%2522%2520width%253D%252210%2522%2520height%253D%2522110%2522%2520as%253D%2522geometry%2522%252F%253E%253C%252FmxCell%253E%253C%252Froot%253E%253C%252FmxGraphModel%253E%26lt%3B%2Fspan%26gt%3B%22%20style%3D%22endArrow%3Dblock%3Bhtml%3D1%3Brounded%3D0%3BendFill%3D1%3B%22%20edge%3D%221%22%20parent%3D%221%22%3E%3CmxGeometry%20width%3D%2250%22%20height%3D%2250%22%20relative%3D%221%22%20as%3D%22geometry%22%3E%3CmxPoint%20x%3D%22525%22%20y%3D%22220%22%20as%3D%22sourcePoint%22%2F%3E%3CmxPoint%20x%3D%22410%22%20y%3D%22220%22%20as%3D%22targetPoint%22%2F%3E%3CArray%20as%3D%22points%22%3E%3CmxPoint%20x%3D%22470%22%20y%3D%22220%22%2F%3E%3C%2FArray%3E%3C%2FmxGeometry%3E%3C%2FmxCell%3E%3CmxCell%20id%3D%223%22%20value%3D%22Skill%20Result%22%20style%3D%22edgeLabel%3Bhtml%3D1%3Balign%3Dcenter%3BverticalAlign%3Dmiddle%3Bresizable%3D0%3Bpoints%3D%5B%5D%3BlabelBackgroundColor%3Dnone%3B%22%20vertex%3D%221%22%20connectable%3D%220%22%20parent%3D%222%22%3E%3CmxGeometry%20x%3D%220.1879%22%20relative%3D%221%22%20as%3D%22geometry%22%3E%3CmxPoint%20x%3D%2213%22%20y%3D%22-10%22%20as%3D%22offset%22%2F%3E%3C%2FmxGeometry%3E%3C%2FmxCell%3E%3C%2Froot%3E%3C%2FmxGraphModel%3E&lt;/span&gt;&lt;span style=&quot;color: rgba(0, 0, 0, 0); font-family: monospace; font-size: 0px; text-align: start;&quot;&gt;%3CmxGraphModel%3E%3Croot%3E%3CmxCell%20id%3D%220%22%2F%3E%3CmxCell%20id%3D%221%22%20parent%3D%220%22%2F%3E%3CmxCell%20id%3D%222%22%20value%3D%22%26lt%3Bspan%20style%3D%26quot%3Bcolor%3A%20rgba(0%2C%200%2C%200%2C%200)%3B%20font-family%3A%20monospace%3B%20font-size%3A%200px%3B%20text-align%3A%20start%3B%20background-color%3A%20rgb(27%2C%2029%2C%2030)%3B%26quot%3B%26gt%3B%253CmxGraphModel%253E%253Croot%253E%253CmxCell%2520id%253D%25220%2522%252F%253E%253CmxCell%2520id%253D%25221%2522%2520parent%253D%25220%2522%252F%253E%253CmxCell%2520id%253D%25222%2522%2520value%253D%2522Module%2526lt%253Bdiv%2526gt%253BAgent%2526lt%253B%252Fdiv%2526gt%253B%2522%2520style%253D%2522shape%253DumlLifeline%253Bperimeter%253DlifelinePerimeter%253BwhiteSpace%253Dwrap%253Bhtml%253D1%253Bcontainer%253D0%253BdropTarget%253D0%253Bcollapsible%253D0%253BrecursiveResize%253D0%253BoutlineConnect%253D0%253BportConstraint%253Deastwest%253BnewEdgeStyle%253D%257B%2526quot%253BedgeStyle%2526quot%253B%253A%2526quot%253BelbowEdgeStyle%2526quot%253B%252C%2526quot%253Belbow%2526quot%253B%253A%2526quot%253Bvertical%2526quot%253B%252C%2526quot%253Bcurved%2526quot%253B%253A0%252C%2526quot%253Brounded%2526quot%253B%253A0%257D%253B%2522%2520vertex%253D%25221%2522%2520parent%253D%25221%2522%253E%253CmxGeometry%2520x%253D%2522220%2522%2520y%253D%252240%2522%2520width%253D%2522100%2522%2520height%253D%2522240%2522%2520as%253D%2522geometry%2522%252F%253E%253C%252FmxCell%253E%253CmxCell%2520id%253D%25223%2522%2520value%253D%2522%2522%2520style%253D%2522html%253D1%253Bpoints%253D%255B%255D%253Bperimeter%253DorthogonalPerimeter%253BoutlineConnect%253D0%253BtargetShapes%253DumlLifeline%253BportConstraint%253Deastwest%253BnewEdgeStyle%253D%257B%2526quot%253BedgeStyle%2526quot%253B%253A%2526quot%253BelbowEdgeStyle%2526quot%253B%252C%2526quot%253Belbow%2526quot%253B%253A%2526quot%253Bvertical%2526quot%253B%252C%2526quot%253Bcurved%2526quot%253B%253A0%252C%2526quot%253Brounded%2526quot%253B%253A0%257D%253B%2522%2520vertex%253D%25221%2522%2520parent%253D%25222%2522%253E%253CmxGeometry%2520x%253D%252245%2522%2520y%253D%252280%2522%2520width%253D%252210%2522%2520height%253D%2522110%2522%2520as%253D%2522geometry%2522%252F%253E%253C%252FmxCell%253E%253C%252Froot%253E%253C%252FmxGraphModel%253E%26lt%3B%2Fspan%26gt%3B%22%20style%3D%22endArrow%3Dblock%3Bhtml%3D1%3Brounded%3D0%3BendFill%3D1%3B%22%20edge%3D%221%22%20parent%3D%221%22%3E%3CmxGeometry%20width%3D%2250%22%20height%3D%2250%22%20relative%3D%221%22%20as%3D%22geometry%22%3E%3CmxPoint%20x%3D%22525%22%20y%3D%22220%22%20as%3D%22sourcePoint%22%2F%3E%3CmxPoint%20x%3D%22410%22%20y%3D%22220%22%20as%3D%22targetPoint%22%2F%3E%3CArray%20as%3D%22points%22%3E%3CmxPoint%20x%3D%22470%22%20y%3D%22220%22%2F%3E%3C%2FArray%3E%3C%2FmxGeometry%3E%3C%2FmxCell%3E%3CmxCell%20id%3D%223%22%20value%3D%22Skill%20Result%22%20style%3D%22edgeLabel%3Bhtml%3D1%3Balign%3Dcenter%3BverticalAlign%3Dmiddle%3Bresizable%3D0%3Bpoints%3D%5B%5D%3BlabelBackgroundColor%3Dnone%3B%22%20vertex%3D%221%22%20connectable%3D%220%22%20parent%3D%222%22%3E%3CmxGeometry%20x%3D%220.1879%22%20relative%3D%221%22%20as%3D%22geometry%22%3E%3CmxPoint%20x%3D%2213%22%20y%3D%22-10%22%20as%3D%22offset%22%2F%3E%3C%2FmxGeometry%3E%3C%2FmxCell%3E%3C%2Froot%3E%3C%2FmxGraphModel%3E&lt;/span&gt;&lt;span style=&quot;color: rgba(0, 0, 0, 0); font-family: monospace; font-size: 0px; text-align: start;&quot;&gt;%3CmxGraphModel%3E%3Croot%3E%3CmxCell%20id%3D%220%22%2F%3E%3CmxCell%20id%3D%221%22%20parent%3D%220%22%2F%3E%3CmxCell%20id%3D%222%22%20value%3D%22%26lt%3Bspan%20style%3D%26quot%3Bcolor%3A%20rgba(0%2C%200%2C%200%2C%200)%3B%20font-family%3A%20monospace%3B%20font-size%3A%200px%3B%20text-align%3A%20start%3B%20background-color%3A%20rgb(27%2C%2029%2C%2030)%3B%26quot%3B%26gt%3B%253CmxGraphModel%253E%253Croot%253E%253CmxCell%2520id%253D%25220%2522%252F%253E%253CmxCell%2520id%253D%25221%2522%2520parent%253D%25220%2522%252F%253E%253CmxCell%2520id%253D%25222%2522%2520value%253D%2522Module%2526lt%253Bdiv%2526gt%253BAgent%2526lt%253B%252Fdiv%2526gt%253B%2522%2520style%253D%2522shape%253DumlLifeline%253Bperimeter%253DlifelinePerimeter%253BwhiteSpace%253Dwrap%253Bhtml%253D1%253Bcontainer%253D0%253BdropTarget%253D0%253Bcollapsible%253D0%253BrecursiveResize%253D0%253BoutlineConnect%253D0%253BportConstraint%253Deastwest%253BnewEdgeStyle%253D%257B%2526quot%253BedgeStyle%2526quot%253B%253A%2526quot%253BelbowEdgeStyle%2526quot%253B%252C%2526quot%253Belbow%2526quot%253B%253A%2526quot%253Bvertical%2526quot%253B%252C%2526quot%253Bcurved%2526quot%253B%253A0%252C%2526quot%253Brounded%2526quot%253B%253A0%257D%253B%2522%2520vertex%253D%25221%2522%2520parent%253D%25221%2522%253E%253CmxGeometry%2520x%253D%2522220%2522%2520y%253D%252240%2522%2520width%253D%2522100%2522%2520height%253D%2522240%2522%2520as%253D%2522geometry%2522%252F%253E%253C%252FmxCell%253E%253CmxCell%2520id%253D%25223%2522%2520value%253D%2522%2522%2520style%253D%2522html%253D1%253Bpoints%253D%255B%255D%253Bperimeter%253DorthogonalPerimeter%253BoutlineConnect%253D0%253BtargetShapes%253DumlLifeline%253BportConstraint%253Deastwest%253BnewEdgeStyle%253D%257B%2526quot%253BedgeStyle%2526quot%253B%253A%2526quot%253BelbowEdgeStyle%2526quot%253B%252C%2526quot%253Belbow%2526quot%253B%253A%2526quot%253Bvertical%2526quot%253B%252C%2526quot%253Bcurved%2526quot%253B%253A0%252C%2526quot%253Brounded%2526quot%253B%253A0%257D%253B%2522%2520vertex%253D%25221%2522%2520parent%253D%25222%2522%253E%253CmxGeometry%2520x%253D%252245%2522%2520y%253D%252280%2522%2520width%253D%252210%2522%2520height%253D%2522110%2522%2520as%253D%2522geometry%2522%252F%253E%253C%252FmxCell%253E%253C%252Froot%253E%253C%252FmxGraphModel%253E%26lt%3B%2Fspan%26gt%3B%22%20style%3D%22endArrow%3Dblock%3Bhtml%3D1%3Brounded%3D0%3BendFill%3D1%3B%22%20edge%3D%221%22%20parent%3D%221%22%3E%3CmxGeometry%20width%3D%2250%22%20height%3D%2250%22%20relative%3D%221%22%20as%3D%22geometry%22%3E%3CmxPoint%20x%3D%22525%22%20y%3D%22220%22%20as%3D%22sourcePoint%22%2F%3E%3CmxPoint%20x%3D%22410%22%20y%3D%22220%22%20as%3D%22targetPoint%22%2F%3E%3CArray%20as%3D%22points%22%3E%3CmxPoint%20x%3D%22470%22%20y%3D%22220%22%2F%3E%3C%2FArray%3E%3C%2FmxGeometry%3E%3C%2FmxCell%3E%3CmxCell%20id%3D%223%22%20value%3D%22Skill%20Result%22%20style%3D%22edgeLabel%3Bhtml%3D1%3Balign%3Dcenter%3BverticalAlign%3Dmiddle%3Bresizable%3D0%3Bpoints%3D%5B%5D%3BlabelBackgroundColor%3Dnone%3B%22%20vertex%3D%221%22%20connectable%3D%220%22%20parent%3D%222%22%3E%3CmxGeometry%20x%3D%220.1879%22%20relative%3D%221%22%20as%3D%22geometry%22%3E%3CmxPoint%20x%3D%2213%22%20y%3D%22-10%22%20as%3D%22offset%22%2F%3E%3C%2FmxGeometry%3E%3C%2FmxCell%3E%3C%2Froot%3E%3C%2FmxGraphModel%3E&lt;/span&gt;&lt;span style=&quot;color: rgba(0, 0, 0, 0); font-family: monospace; font-size: 0px; text-align: start;&quot;&gt;%3CmxGraphModel%3E%3Croot%3E%3CmxCell%20id%3D%220%22%2F%3E%3CmxCell%20id%3D%221%22%20parent%3D%220%22%2F%3E%3CmxCell%20id%3D%222%22%20value%3D%22%26lt%3Bspan%20style%3D%26quot%3Bcolor%3A%20rgba(0%2C%200%2C%200%2C%200)%3B%20font-family%3A%20monospace%3B%20font-size%3A%200px%3B%20text-align%3A%20start%3B%20background-color%3A%20rgb(27%2C%2029%2C%2030)%3B%26quot%3B%26gt%3B%253CmxGraphModel%253E%253Croot%253E%253CmxCell%2520id%253D%25220%2522%252F%253E%253CmxCell%2520id%253D%25221%2522%2520parent%253D%25220%2522%252F%253E%253CmxCell%2520id%253D%25222%2522%2520value%253D%2522Module%2526lt%253Bdiv%2526gt%253BAgent%2526lt%253B%252Fdiv%2526gt%253B%2522%2520style%253D%2522shape%253DumlLifeline%253Bperimeter%253DlifelinePerimeter%253BwhiteSpace%253Dwrap%253Bhtml%253D1%253Bcontainer%253D0%253BdropTarget%253D0%253Bcollapsible%253D0%253BrecursiveResize%253D0%253BoutlineConnect%253D0%253BportConstraint%253Deastwest%253BnewEdgeStyle%253D%257B%2526quot%253BedgeStyle%2526quot%253B%253A%2526quot%253BelbowEdgeStyle%2526quot%253B%252C%2526quot%253Belbow%2526quot%253B%253A%2526quot%253Bvertical%2526quot%253B%252C%2526quot%253Bcurved%2526quot%253B%253A0%252C%2526quot%253Brounded%2526quot%253B%253A0%257D%253B%2522%2520vertex%253D%25221%2522%2520parent%253D%25221%2522%253E%253CmxGeometry%2520x%253D%2522220%2522%2520y%253D%252240%2522%2520width%253D%2522100%2522%2520height%253D%2522240%2522%2520as%253D%2522geometry%2522%252F%253E%253C%252FmxCell%253E%253CmxCell%2520id%253D%25223%2522%2520value%253D%2522%2522%2520style%253D%2522html%253D1%253Bpoints%253D%255B%255D%253Bperimeter%253DorthogonalPerimeter%253BoutlineConnect%253D0%253BtargetShapes%253DumlLifeline%253BportConstraint%253Deastwest%253BnewEdgeStyle%253D%257B%2526quot%253BedgeStyle%2526quot%253B%253A%2526quot%253BelbowEdgeStyle%2526quot%253B%252C%2526quot%253Belbow%2526quot%253B%253A%2526quot%253Bvertical%2526quot%253B%252C%2526quot%253Bcurved%2526quot%253B%253A0%252C%2526quot%253Brounded%2526quot%253B%253A0%257D%253B%2522%2520vertex%253D%25221%2522%2520parent%253D%25222%2522%253E%253CmxGeometry%2520x%253D%252245%2522%2520y%253D%252280%2522%2520width%253D%252210%2522%2520height%253D%2522110%2522%2520as%253D%2522geometry%2522%252F%253E%253C%252FmxCell%253E%253C%252Froot%253E%253C%252FmxGraphModel%253E%26lt%3B%2Fspan%26gt%3B%22%20style%3D%22endArrow%3Dblock%3Bhtml%3D1%3Brounded%3D0%3BendFill%3D1%3B%22%20edge%3D%221%22%20parent%3D%221%22%3E%3CmxGeometry%20width%3D%2250%22%20height%3D%2250%22%20relative%3D%221%22%20as%3D%22geometry%22%3E%3CmxPoint%20x%3D%22525%22%20y%3D%22220%22%20as%3D%22sourcePoint%22%2F%3E%3CmxPoint%20x%3D%22410%22%20y%3D%22220%22%20as%3D%22targetPoint%22%2F%3E%3CArray%20as%3D%22points%22%3E%3CmxPoint%20x%3D%22470%22%20y%3D%22220%22%2F%3E%3C%2FArray%3E%3C%2FmxGeometry%3E%3C%2FmxCell%3E%3CmxCell%20id%3D%223%22%20value%3D%22Skill%20Result%22%20style%3D%22edgeLabel%3Bhtml%3D1%3Balign%3Dcenter%3BverticalAlign%3Dmiddle%3Bresizable%3D0%3Bpoints%3D%5B%5D%3BlabelBackgroundColor%3Dnone%3B%22%20vertex%3D%221%22%20connectable%3D%220%22%20parent%3D%222%22%3E%3CmxGeometry%20x%3D%220.1879%22%20relative%3D%221%22%20as%3D%22geometry%22%3E%3CmxPoint%20x%3D%2213%22%20y%3D%22-10%22%20as%3D%22offset%22%2F%3E%3C%2FmxGeometry%3E%3C%2FmxCell%3E%3C%2Froot%3E%3C%2FmxGraphModel%3E&lt;/span&gt;&lt;span style=&quot;color: rgba(0, 0, 0, 0); font-family: monospace; font-size: 0px; text-align: start;&quot;&gt;%3CmxGraphModel%3E%3Croot%3E%3CmxCell%20id%3D%220%22%2F%3E%3CmxCell%20id%3D%221%22%20parent%3D%220%22%2F%3E%3CmxCell%20id%3D%222%22%20value%3D%22%26lt%3Bspan%20style%3D%26quot%3Bcolor%3A%20rgba(0%2C%200%2C%200%2C%200)%3B%20font-family%3A%20monospace%3B%20font-size%3A%200px%3B%20text-align%3A%20start%3B%20background-color%3A%20rgb(27%2C%2029%2C%2030)%3B%26quot%3B%26gt%3B%253CmxGraphModel%253E%253Croot%253E%253CmxCell%2520id%253D%25220%2522%252F%253E%253CmxCell%2520id%253D%25221%2522%2520parent%253D%25220%2522%252F%253E%253CmxCell%2520id%253D%25222%2522%2520value%253D%2522Module%2526lt%253Bdiv%2526gt%253BAgent%2526lt%253B%252Fdiv%2526gt%253B%2522%2520style%253D%2522shape%253DumlLifeline%253Bperimeter%253DlifelinePerimeter%253BwhiteSpace%253Dwrap%253Bhtml%253D1%253Bcontainer%253D0%253BdropTarget%253D0%253Bcollapsible%253D0%253BrecursiveResize%253D0%253BoutlineConnect%253D0%253BportConstraint%253Deastwest%253BnewEdgeStyle%253D%257B%2526quot%253BedgeStyle%2526quot%253B%253A%2526quot%253BelbowEdgeStyle%2526quot%253B%252C%2526quot%253Belbow%2526quot%253B%253A%2526quot%253Bvertical%2526quot%253B%252C%2526quot%253Bcurved%2526quot%253B%253A0%252C%2526quot%253Brounded%2526quot%253B%253A0%257D%253B%2522%2520vertex%253D%25221%2522%2520parent%253D%25221%2522%253E%253CmxGeometry%2520x%253D%2522220%2522%2520y%253D%252240%2522%2520width%253D%2522100%2522%2520height%253D%2522240%2522%2520as%253D%2522geometry%2522%252F%253E%253C%252FmxCell%253E%253CmxCell%2520id%253D%25223%2522%2520value%253D%2522%2522%2520style%253D%2522html%253D1%253Bpoints%253D%255B%255D%253Bperimeter%253DorthogonalPerimeter%253BoutlineConnect%253D0%253BtargetShapes%253DumlLifeline%253BportConstraint%253Deastwest%253BnewEdgeStyle%253D%257B%2526quot%253BedgeStyle%2526quot%253B%253A%2526quot%253BelbowEdgeStyle%2526quot%253B%252C%2526quot%253Belbow%2526quot%253B%253A%2526quot%253Bvertical%2526quot%253B%252C%2526quot%253Bcurved%2526quot%253B%253A0%252C%2526quot%253Brounded%2526quot%253B%253A0%257D%253B%2522%2520vertex%253D%25221%2522%2520parent%253D%25222%2522%253E%253CmxGeometry%2520x%253D%252245%2522%2520y%253D%252280%2522%2520width%253D%252210%2522%2520height%253D%2522110%2522%2520as%253D%2522geometry%2522%252F%253E%253C%252FmxCell%253E%253C%252Froot%253E%253C%252FmxGraphModel%253E%26lt%3B%2Fspan%26gt%3B%22%20style%3D%22endArrow%3Dblock%3Bhtml%3D1%3Brounded%3D0%3BendFill%3D1%3B%22%20edge%3D%221%22%20parent%3D%221%22%3E%3CmxGeometry%20width%3D%2250%22%20height%3D%2250%22%20relative%3D%221%22%20as%3D%22geometry%22%3E%3CmxPoint%20x%3D%22525%22%20y%3D%22220%22%20as%3D%22sourcePoint%22%2F%3E%3CmxPoint%20x%3D%22410%22%20y%3D%22220%22%20as%3D%22targetPoint%22%2F%3E%3CArray%20as%3D%22points%22%3E%3CmxPoint%20x%3D%22470%22%20y%3D%22220%22%2F%3E%3C%2FArray%3E%3C%2FmxGeometry%3E%3C%2FmxCell%3E%3CmxCell%20id%3D%223%22%20value%3D%22Skill%20Result%22%20style%3D%22edgeLabel%3Bhtml%3D1%3Balign%3Dcenter%3BverticalAlign%3Dmiddle%3Bresizable%3D0%3Bpoints%3D%5B%5D%3BlabelBackgroundColor%3Dnone%3B%22%20vertex%3D%221%22%20connectable%3D%220%22%20parent%3D%222%22%3E%3CmxGeometry%20x%3D%220.1879%22%20relative%3D%221%22%20as%3D%22geometry%22%3E%3CmxPoint%20x%3D%2213%22%20y%3D%22-10%22%20as%3D%22offset%22%2F%3E%3C%2FmxGeometry%3E%3C%2FmxCell%3E%3C%2Froot%3E%3C%2FmxGraphModel%3E&lt;/span&gt;&lt;span style=&quot;color: rgba(0, 0, 0, 0); font-family: monospace; font-size: 0px; text-align: start;&quot;&gt;%3CmxGraphModel%3E%3Croot%3E%3CmxCell%20id%3D%220%22%2F%3E%3CmxCell%20id%3D%221%22%20parent%3D%220%22%2F%3E%3CmxCell%20id%3D%222%22%20value%3D%22%26lt%3Bspan%20style%3D%26quot%3Bcolor%3A%20rgba(0%2C%200%2C%200%2C%200)%3B%20font-family%3A%20monospace%3B%20font-size%3A%200px%3B%20text-align%3A%20start%3B%20background-color%3A%20rgb(27%2C%2029%2C%2030)%3B%26quot%3B%26gt%3B%253CmxGraphModel%253E%253Croot%253E%253CmxCell%2520id%253D%25220%2522%252F%253E%253CmxCell%2520id%253D%25221%2522%2520parent%253D%25220%2522%252F%253E%253CmxCell%2520id%253D%25222%2522%2520value%253D%2522Module%2526lt%253Bdiv%2526gt%253BAgent%2526lt%253B%252Fdiv%2526gt%253B%2522%2520style%253D%2522shape%253DumlLifeline%253Bperimeter%253DlifelinePerimeter%253BwhiteSpace%253Dwrap%253Bhtml%253D1%253Bcontainer%253D0%253BdropTarget%253D0%253Bcollapsible%253D0%253BrecursiveResize%253D0%253BoutlineConnect%253D0%253BportConstraint%253Deastwest%253BnewEdgeStyle%253D%257B%2526quot%253BedgeStyle%2526quot%253B%253A%2526quot%253BelbowEdgeStyle%2526quot%253B%252C%2526quot%253Belbow%2526quot%253B%253A%2526quot%253Bvertical%2526quot%253B%252C%2526quot%253Bcurved%2526quot%253B%253A0%252C%2526quot%253Brounded%2526quot%253B%253A0%257D%253B%2522%2520vertex%253D%25221%2522%2520parent%253D%25221%2522%253E%253CmxGeometry%2520x%253D%2522220%2522%2520y%253D%252240%2522%2520width%253D%2522100%2522%2520height%253D%2522240%2522%2520as%253D%2522geometry%2522%252F%253E%253C%252FmxCell%253E%253CmxCell%2520id%253D%25223%2522%2520value%253D%2522%2522%2520style%253D%2522html%253D1%253Bpoints%253D%255B%255D%253Bperimeter%253DorthogonalPerimeter%253BoutlineConnect%253D0%253BtargetShapes%253DumlLifeline%253BportConstraint%253Deastwest%253BnewEdgeStyle%253D%257B%2526quot%253BedgeStyle%2526quot%253B%253A%2526quot%253BelbowEdgeStyle%2526quot%253B%252C%2526quot%253Belbow%2526quot%253B%253A%2526quot%253Bvertical%2526quot%253B%252C%2526quot%253Bcurved%2526quot%253B%253A0%252C%2526quot%253Brounded%2526quot%253B%253A0%257D%253B%2522%2520vertex%253D%25221%2522%2520parent%253D%25222%2522%253E%253CmxGeometry%2520x%253D%252245%2522%2520y%253D%252280%2522%2520width%253D%252210%2522%2520height%253D%2522110%2522%2520as%253D%2522geometry%2522%252F%253E%253C%252FmxCell%253E%253C%252Froot%253E%253C%252FmxGraphModel%253E%26lt%3B%2Fspan%26gt%3B%22%20style%3D%22endArrow%3Dblock%3Bhtml%3D1%3Brounded%3D0%3BendFill%3D1%3B%22%20edge%3D%221%22%20parent%3D%221%22%3E%3CmxGeometry%20width%3D%2250%22%20height%3D%2250%22%20relative%3D%221%22%20as%3D%22geometry%22%3E%3CmxPoint%20x%3D%22525%22%20y%3D%22220%22%20as%3D%22sourcePoint%22%2F%3E%3CmxPoint%20x%3D%22410%22%20y%3D%22220%22%20as%3D%22targetPoint%22%2F%3E%3CArray%20as%3D%22points%22%3E%3CmxPoint%20x%3D%22470%22%20y%3D%22220%22%2F%3E%3C%2FArray%3E%3C%2FmxGeometry%3E%3C%2FmxCell%3E%3CmxCell%20id%3D%223%22%20value%3D%22Skill%20Result%22%20style%3D%22edgeLabel%3Bhtml%3D1%3Balign%3Dcenter%3BverticalAlign%3Dmiddle%3Bresizable%3D0%3Bpoints%3D%5B%5D%3BlabelBackgroundColor%3Dnone%3B%22%20vertex%3D%221%22%20connectable%3D%220%22%20parent%3D%222%22%3E%3CmxGeometry%20x%3D%220.1879%22%20relative%3D%221%22%20as%3D%22geometry%22%3E%3CmxPoint%20x%3D%2213%22%20y%3D%22-10%22%20as%3D%22offset%22%2F%3E%3C%2FmxGeometry%3E%3C%2FmxCell%3E%3C%2Froot%3E%3C%2FmxGraphModel%3E&lt;/span&gt;&lt;span style=&quot;color: rgba(0, 0, 0, 0); font-family: monospace; font-size: 0px; text-align: start;&quot;&gt;%3CmxGraphModel%3E%3Croot%3E%3CmxCell%20id%3D%220%22%2F%3E%3CmxCell%20id%3D%221%22%20parent%3D%220%22%2F%3E%3CmxCell%20id%3D%222%22%20value%3D%22%26lt%3Bspan%20style%3D%26quot%3Bcolor%3A%20rgba(0%2C%200%2C%200%2C%200)%3B%20font-family%3A%20monospace%3B%20font-size%3A%200px%3B%20text-align%3A%20start%3B%20background-color%3A%20rgb(27%2C%2029%2C%2030)%3B%26quot%3B%26gt%3B%253CmxGraphModel%253E%253Croot%253E%253CmxCell%2520id%253D%25220%2522%252F%253E%253CmxCell%2520id%253D%25221%2522%2520parent%253D%25220%2522%252F%253E%253CmxCell%2520id%253D%25222%2522%2520value%253D%2522Module%2526lt%253Bdiv%2526gt%253BAgent%2526lt%253B%252Fdiv%2526gt%253B%2522%2520style%253D%2522shape%253DumlLifeline%253Bperimeter%253DlifelinePerimeter%253BwhiteSpace%253Dwrap%253Bhtml%253D1%253Bcontainer%253D0%253BdropTarget%253D0%253Bcollapsible%253D0%253BrecursiveResize%253D0%253BoutlineConnect%253D0%253BportConstraint%253Deastwest%253BnewEdgeStyle%253D%257B%2526quot%253BedgeStyle%2526quot%253B%253A%2526quot%253BelbowEdgeStyle%2526quot%253B%252C%2526quot%253Belbow%2526quot%253B%253A%2526quot%253Bvertical%2526quot%253B%252C%2526quot%253Bcurved%2526quot%253B%253A0%252C%2526quot%253Brounded%2526quot%253B%253A0%257D%253B%2522%2520vertex%253D%25221%2522%2520parent%253D%25221%2522%253E%253CmxGeometry%2520x%253D%2522220%2522%2520y%253D%252240%2522%2520width%253D%2522100%2522%2520height%253D%2522240%2522%2520as%253D%2522geometry%2522%252F%253E%253C%252FmxCell%253E%253CmxCell%2520id%253D%25223%2522%2520value%253D%2522%2522%2520style%253D%2522html%253D1%253Bpoints%253D%255B%255D%253Bperimeter%253DorthogonalPerimeter%253BoutlineConnect%253D0%253BtargetShapes%253DumlLifeline%253BportConstraint%253Deastwest%253BnewEdgeStyle%253D%257B%2526quot%253BedgeStyle%2526quot%253B%253A%2526quot%253BelbowEdgeStyle%2526quot%253B%252C%2526quot%253Belbow%2526quot%253B%253A%2526quot%253Bvertical%2526quot%253B%252C%2526quot%253Bcurved%2526quot%253B%253A0%252C%2526quot%253Brounded%2526quot%253B%253A0%257D%253B%2522%2520vertex%253D%25221%2522%2520parent%253D%25222%2522%253E%253CmxGeometry%2520x%253D%252245%2522%2520y%253D%252280%2522%2520width%253D%252210%2522%2520height%253D%2522110%2522%2520as%253D%2522geometry%2522%252F%253E%253C%252FmxCell%253E%253C%252Froot%253E%253C%252FmxGraphModel%253E%26lt%3B%2Fspan%26gt%3B%22%20style%3D%22endArrow%3Dblock%3Bhtml%3D1%3Brounded%3D0%3BendFill%3D1%3B%22%20edge%3D%221%22%20parent%3D%221%22%3E%3CmxGeometry%20width%3D%2250%22%20height%3D%2250%22%20relative%3D%221%22%20as%3D%22geometry%22%3E%3CmxPoint%20x%3D%22525%22%20y%3D%22220%22%20as%3D%22sourcePoint%22%2F%3E%3CmxPoint%20x%3D%22410%22%20y%3D%22220%22%20as%3D%22targetPoint%22%2F%3E%3CArray%20as%3D%22points%22%3E%3CmxPoint%20x%3D%22470%22%20y%3D%22220%22%2F%3E%3C%2FArray%3E%3C%2FmxGeometry%3E%3C%2FmxCell%3E%3CmxCell%20id%3D%223%22%20value%3D%22Skill%20Result%22%20style%3D%22edgeLabel%3Bhtml%3D1%3Balign%3Dcenter%3BverticalAlign%3Dmiddle%3Bresizable%3D0%3Bpoints%3D%5B%5D%3BlabelBackgroundColor%3Dnone%3B%22%20vertex%3D%221%22%20connectable%3D%220%22%20parent%3D%222%22%3E%3CmxGeometry%20x%3D%220.1879%22%20relative%3D%221%22%20as%3D%22geometry%22%3E%3CmxPoint%20x%3D%2213%22%20y%3D%22-10%22%20as%3D%22offset%22%2F%3E%3C%2FmxGeometry%3E%3C%2FmxCell%3E%3C%2Froot%3E%3C%2FmxGraphModel%3E&lt;/span&gt;&lt;span style=&quot;color: rgba(0, 0, 0, 0); font-family: monospace; font-size: 0px; text-align: start;&quot;&gt;%3CmxGraphModel%3E%3Croot%3E%3CmxCell%20id%3D%220%22%2F%3E%3CmxCell%20id%3D%221%22%20parent%3D%220%22%2F%3E%3CmxCell%20id%3D%222%22%20value%3D%22%26lt%3Bspan%20style%3D%26quot%3Bcolor%3A%20rgba(0%2C%200%2C%200%2C%200)%3B%20font-family%3A%20monospace%3B%20font-size%3A%200px%3B%20text-align%3A%20start%3B%20background-color%3A%20rgb(27%2C%2029%2C%2030)%3B%26quot%3B%26gt%3B%253CmxGraphModel%253E%253Croot%253E%253CmxCell%2520id%253D%25220%2522%252F%253E%253CmxCell%2520id%253D%25221%2522%2520parent%253D%25220%2522%252F%253E%253CmxCell%2520id%253D%25222%2522%2520value%253D%2522Module%2526lt%253Bdiv%2526gt%253BAgent%2526lt%253B%252Fdiv%2526gt%253B%2522%2520style%253D%2522shape%253DumlLifeline%253Bperimeter%253DlifelinePerimeter%253BwhiteSpace%253Dwrap%253Bhtml%253D1%253Bcontainer%253D0%253BdropTarget%253D0%253Bcollapsible%253D0%253BrecursiveResize%253D0%253BoutlineConnect%253D0%253BportConstraint%253Deastwest%253BnewEdgeStyle%253D%257B%2526quot%253BedgeStyle%2526quot%253B%253A%2526quot%253BelbowEdgeStyle%2526quot%253B%252C%2526quot%253Belbow%2526quot%253B%253A%2526quot%253Bvertical%2526quot%253B%252C%2526quot%253Bcurved%2526quot%253B%253A0%252C%2526quot%253Brounded%2526quot%253B%253A0%257D%253B%2522%2520vertex%253D%25221%2522%2520parent%253D%25221%2522%253E%253CmxGeometry%2520x%253D%2522220%2522%2520y%253D%252240%2522%2520width%253D%2522100%2522%2520height%253D%2522240%2522%2520as%253D%2522geometry%2522%252F%253E%253C%252FmxCell%253E%253CmxCell%2520id%253D%25223%2522%2520value%253D%2522%2522%2520style%253D%2522html%253D1%253Bpoints%253D%255B%255D%253Bperimeter%253DorthogonalPerimeter%253BoutlineConnect%253D0%253BtargetShapes%253DumlLifeline%253BportConstraint%253Deastwest%253BnewEdgeStyle%253D%257B%2526quot%253BedgeStyle%2526quot%253B%253A%2526quot%253BelbowEdgeStyle%2526quot%253B%252C%2526quot%253Belbow%2526quot%253B%253A%2526quot%253Bvertical%2526quot%253B%252C%2526quot%253Bcurved%2526quot%253B%253A0%252C%2526quot%253Brounded%2526quot%253B%253A0%257D%253B%2522%2520vertex%253D%25221%2522%2520parent%253D%25222%2522%253E%253CmxGeometry%2520x%253D%252245%2522%2520y%253D%252280%2522%2520width%253D%252210%2522%2520height%253D%2522110%2522%2520as%253D%2522geometry%2522%252F%253E%253C%252FmxCell%253E%253C%252Froot%253E%253C%252FmxGraphModel%253E%26lt%3B%2Fspan%26gt%3B%22%20style%3D%22endArrow%3Dblock%3Bhtml%3D1%3Brounded%3D0%3BendFill%3D1%3B%22%20edge%3D%221%22%20parent%3D%221%22%3E%3CmxGeometry%20width%3D%2250%22%20height%3D%2250%22%20relative%3D%221%22%20as%3D%22geometry%22%3E%3CmxPoint%20x%3D%22525%22%20y%3D%22220%22%20as%3D%22sourcePoint%22%2F%3E%3CmxPoint%20x%3D%22410%22%20y%3D%22220%22%20as%3D%22targetPoint%22%2F%3E%3CArray%20as%3D%22points%22%3E%3CmxPoint%20x%3D%22470%22%20y%3D%22220%22%2F%3E%3C%2FArray%3E%3C%2FmxGeometry%3E%3C%2FmxCell%3E%3CmxCell%20id%3D%223%22%20value%3D%22Skill%20Result%22%20style%3D%22edgeLabel%3Bhtml%3D1%3Balign%3Dcenter%3BverticalAlign%3Dmiddle%3Bresizable%3D0%3Bpoints%3D%5B%5D%3BlabelBackgroundColor%3Dnone%3B%22%20vertex%3D%221%22%20connectable%3D%220%22%20parent%3D%222%22%3E%3CmxGeometry%20x%3D%220.1879%22%20relative%3D%221%22%20as%3D%22geometry%22%3E%3CmxPoint%20x%3D%2213%22%20y%3D%22-10%22%20as%3D%22offset%22%2F%3E%3C%2FmxGeometry%3E%3C%2FmxCell%3E%3C%2Froot%3E%3C%2FmxGraphModel%3E&lt;/span&gt;&lt;span style=&quot;color: rgba(0, 0, 0, 0); font-family: monospace; font-size: 0px; text-align: start;&quot;&gt;%3CmxGraphModel%3E%3Croot%3E%3CmxCell%20id%3D%220%22%2F%3E%3CmxCell%20id%3D%221%22%20parent%3D%220%22%2F%3E%3CmxCell%20id%3D%222%22%20value%3D%22%26lt%3Bspan%20style%3D%26quot%3Bcolor%3A%20rgba(0%2C%200%2C%200%2C%200)%3B%20font-family%3A%20monospace%3B%20font-size%3A%200px%3B%20text-align%3A%20start%3B%20background-color%3A%20rgb(27%2C%2029%2C%2030)%3B%26quot%3B%26gt%3B%253CmxGraphModel%253E%253Croot%253E%253CmxCell%2520id%253D%25220%2522%252F%253E%253CmxCell%2520id%253D%25221%2522%2520parent%253D%25220%2522%252F%253E%253CmxCell%2520id%253D%25222%2522%2520value%253D%2522Module%2526lt%253Bdiv%2526gt%253BAgent%2526lt%253B%252Fdiv%2526gt%253B%2522%2520style%253D%2522shape%253DumlLifeline%253Bperimeter%253DlifelinePerimeter%253BwhiteSpace%253Dwrap%253Bhtml%253D1%253Bcontainer%253D0%253BdropTarget%253D0%253Bcollapsible%253D0%253BrecursiveResize%253D0%253BoutlineConnect%253D0%253BportConstraint%253Deastwest%253BnewEdgeStyle%253D%257B%2526quot%253BedgeStyle%2526quot%253B%253A%2526quot%253BelbowEdgeStyle%2526quot%253B%252C%2526quot%253Belbow%2526quot%253B%253A%2526quot%253Bvertical%2526quot%253B%252C%2526quot%253Bcurved%2526quot%253B%253A0%252C%2526quot%253Brounded%2526quot%253B%253A0%257D%253B%2522%2520vertex%253D%25221%2522%2520parent%253D%25221%2522%253E%253CmxGeometry%2520x%253D%2522220%2522%2520y%253D%252240%2522%2520width%253D%2522100%2522%2520height%253D%2522240%2522%2520as%253D%2522geometry%2522%252F%253E%253C%252FmxCell%253E%253CmxCell%2520id%253D%25223%2522%2520value%253D%2522%2522%2520style%253D%2522html%253D1%253Bpoints%253D%255B%255D%253Bperimeter%253DorthogonalPerimeter%253BoutlineConnect%253D0%253BtargetShapes%253DumlLifeline%253BportConstraint%253Deastwest%253BnewEdgeStyle%253D%257B%2526quot%253BedgeStyle%2526quot%253B%253A%2526quot%253BelbowEdgeStyle%2526quot%253B%252C%2526quot%253Belbow%2526quot%253B%253A%2526quot%253Bvertical%2526quot%253B%252C%2526quot%253Bcurved%2526quot%253B%253A0%252C%2526quot%253Brounded%2526quot%253B%253A0%257D%253B%2522%2520vertex%253D%25221%2522%2520parent%253D%25222%2522%253E%253CmxGeometry%2520x%253D%252245%2522%2520y%253D%252280%2522%2520width%253D%252210%2522%2520height%253D%2522110%2522%2520as%253D%2522geometry%2522%252F%253E%253C%252FmxCell%253E%253C%252Froot%253E%253C%252FmxGraphModel%253E%26lt%3B%2Fspan%26gt%3B%22%20style%3D%22endArrow%3Dblock%3Bhtml%3D1%3Brounded%3D0%3BendFill%3D1%3B%22%20edge%3D%221%22%20parent%3D%221%22%3E%3CmxGeometry%20width%3D%2250%22%20height%3D%2250%22%20relative%3D%221%22%20as%3D%22geometry%22%3E%3CmxPoint%20x%3D%22525%22%20y%3D%22220%22%20as%3D%22sourcePoint%22%2F%3E%3CmxPoint%20x%3D%22410%22%20y%3D%22220%22%20as%3D%22targetPoint%22%2F%3E%3CArray%20as%3D%22points%22%3E%3CmxPoint%20x%3D%22470%22%20y%3D%22220%22%2F%3E%3C%2FArray%3E%3C%2FmxGeometry%3E%3C%2FmxCell%3E%3CmxCell%20id%3D%223%22%20value%3D%22Skill%20Result%22%20style%3D%22edgeLabel%3Bhtml%3D1%3Balign%3Dcenter%3BverticalAlign%3Dmiddle%3Bresizable%3D0%3Bpoints%3D%5B%5D%3BlabelBackgroundColor%3Dnone%3B%22%20vertex%3D%221%22%20connectable%3D%220%22%20parent%3D%222%22%3E%3CmxGeometry%20x%3D%220.1879%22%20relative%3D%221%22%20as%3D%22geometry%22%3E%3CmxPoint%20x%3D%2213%22%20y%3D%22-10%22%20as%3D%22offset%22%2F%3E%3C%2FmxGeometry%3E%3C%2FmxCell%3E%3C%2Froot%3E%3C%2FmxGraphModel%3E&lt;/span&gt;&lt;span style=&quot;color: rgba(0, 0, 0, 0); font-family: monospace; font-size: 0px; text-align: start;&quot;&gt;%3CmxGraphModel%3E%3Croot%3E%3CmxCell%20id%3D%220%22%2F%3E%3CmxCell%20id%3D%221%22%20parent%3D%220%22%2F%3E%3CmxCell%20id%3D%222%22%20value%3D%22%26lt%3Bspan%20style%3D%26quot%3Bcolor%3A%20rgba(0%2C%200%2C%200%2C%200)%3B%20font-family%3A%20monospace%3B%20font-size%3A%200px%3B%20text-align%3A%20start%3B%20background-color%3A%20rgb(27%2C%2029%2C%2030)%3B%26quot%3B%26gt%3B%253CmxGraphModel%253E%253Croot%253E%253CmxCell%2520id%253D%25220%2522%252F%253E%253CmxCell%2520id%253D%25221%2522%2520parent%253D%25220%2522%252F%253E%253CmxCell%2520id%253D%25222%2522%2520value%253D%2522Module%2526lt%253Bdiv%2526gt%253BAgent%2526lt%253B%252Fdiv%2526gt%253B%2522%2520style%253D%2522shape%253DumlLifeline%253Bperimeter%253DlifelinePerimeter%253BwhiteSpace%253Dwrap%253Bhtml%253D1%253Bcontainer%253D0%253BdropTarget%253D0%253Bcollapsible%253D0%253BrecursiveResize%253D0%253BoutlineConnect%253D0%253BportConstraint%253Deastwest%253BnewEdgeStyle%253D%257B%2526quot%253BedgeStyle%2526quot%253B%253A%2526quot%253BelbowEdgeStyle%2526quot%253B%252C%2526quot%253Belbow%2526quot%253B%253A%2526quot%253Bvertical%2526quot%253B%252C%2526quot%253Bcurved%2526quot%253B%253A0%252C%2526quot%253Brounded%2526quot%253B%253A0%257D%253B%2522%2520vertex%253D%25221%2522%2520parent%253D%25221%2522%253E%253CmxGeometry%2520x%253D%2522220%2522%2520y%253D%252240%2522%2520width%253D%2522100%2522%2520height%253D%2522240%2522%2520as%253D%2522geometry%2522%252F%253E%253C%252FmxCell%253E%253CmxCell%2520id%253D%25223%2522%2520value%253D%2522%2522%2520style%253D%2522html%253D1%253Bpoints%253D%255B%255D%253Bperimeter%253DorthogonalPerimeter%253BoutlineConnect%253D0%253BtargetShapes%253DumlLifeline%253BportConstraint%253Deastwest%253BnewEdgeStyle%253D%257B%2526quot%253BedgeStyle%2526quot%253B%253A%2526quot%253BelbowEdgeStyle%2526quot%253B%252C%2526quot%253Belbow%2526quot%253B%253A%2526quot%253Bvertical%2526quot%253B%252C%2526quot%253Bcurved%2526quot%253B%253A0%252C%2526quot%253Brounded%2526quot%253B%253A0%257D%253B%2522%2520vertex%253D%25221%2522%2520parent%253D%25222%2522%253E%253CmxGeometry%2520x%253D%252245%2522%2520y%253D%252280%2522%2520width%253D%252210%2522%2520height%253D%2522110%2522%2520as%253D%2522geometry%2522%252F%253E%253C%252FmxCell%253E%253C%252Froot%253E%253C%252FmxGraphModel%253E%26lt%3B%2Fspan%26gt%3B%22%20style%3D%22endArrow%3Dblock%3Bhtml%3D1%3Brounded%3D0%3BendFill%3D1%3B%22%20edge%3D%221%22%20parent%3D%221%22%3E%3CmxGeometry%20width%3D%2250%22%20height%3D%2250%22%20relative%3D%221%22%20as%3D%22geometry%22%3E%3CmxPoint%20x%3D%22525%22%20y%3D%22220%22%20as%3D%22sourcePoint%22%2F%3E%3CmxPoint%20x%3D%22410%22%20y%3D%22220%22%20as%3D%22targetPoint%22%2F%3E%3CArray%20as%3D%22points%22%3E%3CmxPoint%20x%3D%22470%22%20y%3D%22220%22%2F%3E%3C%2FArray%3E%3C%2FmxGeometry%3E%3C%2FmxCell%3E%3CmxCell%20id%3D%223%22%20value%3D%22Skill%20Result%22%20style%3D%22edgeLabel%3Bhtml%3D1%3Balign%3Dcenter%3BverticalAlign%3Dmiddle%3Bresizable%3D0%3Bpoints%3D%5B%5D%3BlabelBackgroundColor%3Dnone%3B%22%20vertex%3D%221%22%20connectable%3D%220%22%20parent%3D%222%22%3E%3CmxGeometry%20x%3D%220.1879%22%20relative%3D%221%22%20as%3D%22geometry%22%3E%3CmxPoint%20x%3D%2213%22%20y%3D%22-10%22%20as%3D%22offset%22%2F%3E%3C%2FmxGeometry%3E%3C%2FmxCell%3E%3C%2Froot%3E%3C%2FmxGraphModel%3E&lt;/span&gt;&lt;span style=&quot;color: rgba(0, 0, 0, 0); font-family: monospace; font-size: 0px; text-align: start;&quot;&gt;%3CmxGraphModel%3E%3Croot%3E%3CmxCell%20id%3D%220%22%2F%3E%3CmxCell%20id%3D%221%22%20parent%3D%220%22%2F%3E%3CmxCell%20id%3D%222%22%20value%3D%22%26lt%3Bspan%20style%3D%26quot%3Bcolor%3A%20rgba(0%2C%200%2C%200%2C%200)%3B%20font-family%3A%20monospace%3B%20font-size%3A%200px%3B%20text-align%3A%20start%3B%20background-color%3A%20rgb(27%2C%2029%2C%2030)%3B%26quot%3B%26gt%3B%253CmxGraphModel%253E%253Croot%253E%253CmxCell%2520id%253D%25220%2522%252F%253E%253CmxCell%2520id%253D%25221%2522%2520parent%253D%25220%2522%252F%253E%253CmxCell%2520id%253D%25222%2522%2520value%253D%2522Module%2526lt%253Bdiv%2526gt%253BAgent%2526lt%253B%252Fdiv%2526gt%253B%2522%2520style%253D%2522shape%253DumlLifeline%253Bperimeter%253DlifelinePerimeter%253BwhiteSpace%253Dwrap%253Bhtml%253D1%253Bcontainer%253D0%253BdropTarget%253D0%253Bcollapsible%253D0%253BrecursiveResize%253D0%253BoutlineConnect%253D0%253BportConstraint%253Deastwest%253BnewEdgeStyle%253D%257B%2526quot%253BedgeStyle%2526quot%253B%253A%2526quot%253BelbowEdgeStyle%2526quot%253B%252C%2526quot%253Belbow%2526quot%253B%253A%2526quot%253Bvertical%2526quot%253B%252C%2526quot%253Bcurved%2526quot%253B%253A0%252C%2526quot%253Brounded%2526quot%253B%253A0%257D%253B%2522%2520vertex%253D%25221%2522%2520parent%253D%25221%2522%253E%253CmxGeometry%2520x%253D%2522220%2522%2520y%253D%252240%2522%2520width%253D%2522100%2522%2520height%253D%2522240%2522%2520as%253D%2522geometry%2522%252F%253E%253C%252FmxCell%253E%253CmxCell%2520id%253D%25223%2522%2520value%253D%2522%2522%2520style%253D%2522html%253D1%253Bpoints%253D%255B%255D%253Bperimeter%253DorthogonalPerimeter%253BoutlineConnect%253D0%253BtargetShapes%253DumlLifeline%253BportConstraint%253Deastwest%253BnewEdgeStyle%253D%257B%2526quot%253BedgeStyle%2526quot%253B%253A%2526quot%253BelbowEdgeStyle%2526quot%253B%252C%2526quot%253Belbow%2526quot%253B%253A%2526quot%253Bvertical%2526quot%253B%252C%2526quot%253Bcurved%2526quot%253B%253A0%252C%2526quot%253Brounded%2526quot%253B%253A0%257D%253B%2522%2520vertex%253D%25221%2522%2520parent%253D%25222%2522%253E%253CmxGeometry%2520x%253D%252245%2522%2520y%253D%252280%2522%2520width%253D%252210%2522%2520height%253D%2522110%2522%2520as%253D%2522geometry%2522%252F%253E%253C%252FmxCell%253E%253C%252Froot%253E%253C%252FmxGraphModel%253E%26lt%3B%2Fspan%26gt%3B%22%20style%3D%22endArrow%3Dblock%3Bhtml%3D1%3Brounded%3D0%3BendFill%3D1%3B%22%20edge%3D%221%22%20parent%3D%221%22%3E%3CmxGeometry%20width%3D%2250%22%20height%3D%2250%22%20relative%3D%221%22%20as%3D%22geometry%22%3E%3CmxPoint%20x%3D%22525%22%20y%3D%22220%22%20as%3D%22sourcePoint%22%2F%3E%3CmxPoint%20x%3D%22410%22%20y%3D%22220%22%20as%3D%22targetPoint%22%2F%3E%3CArray%20as%3D%22points%22%3E%3CmxPoint%20x%3D%22470%22%20y%3D%22220%22%2F%3E%3C%2FArray%3E%3C%2FmxGeometry%3E%3C%2FmxCell%3E%3CmxCell%20id%3D%223%22%20value%3D%22Skill%20Result%22%20style%3D%22edgeLabel%3Bhtml%3D1%3Balign%3Dcenter%3BverticalAlign%3Dmiddle%3Bresizable%3D0%3Bpoints%3D%5B%5D%3BlabelBackgroundColor%3Dnone%3B%22%20vertex%3D%221%22%20connectable%3D%220%22%20parent%3D%222%22%3E%3CmxGeometry%20x%3D%220.1879%22%20relative%3D%221%22%20as%3D%22geometry%22%3E%3CmxPoint%20x%3D%2213%22%20y%3D%22-10%22%20as%3D%22offset%22%2F%3E%3C%2FmxGeometry%3E%3C%2FmxCell%3E%3C%2Froot%3E%3C%2FmxGraphModel%3E&lt;/span&gt;&lt;span style=&quot;color: rgba(0, 0, 0, 0); font-family: monospace; font-size: 0px; text-align: start;&quot;&gt;%3CmxGraphModel%3E%3Croot%3E%3CmxCell%20id%3D%220%22%2F%3E%3CmxCell%20id%3D%221%22%20parent%3D%220%22%2F%3E%3CmxCell%20id%3D%222%22%20value%3D%22%26lt%3Bspan%20style%3D%26quot%3Bcolor%3A%20rgba(0%2C%200%2C%200%2C%200)%3B%20font-family%3A%20monospace%3B%20font-size%3A%200px%3B%20text-align%3A%20start%3B%20background-color%3A%20rgb(27%2C%2029%2C%2030)%3B%26quot%3B%26gt%3B%253CmxGraphModel%253E%253Croot%253E%253CmxCell%2520id%253D%25220%2522%252F%253E%253CmxCell%2520id%253D%25221%2522%2520parent%253D%25220%2522%252F%253E%253CmxCell%2520id%253D%25222%2522%2520value%253D%2522Module%2526lt%253Bdiv%2526gt%253BAgent%2526lt%253B%252Fdiv%2526gt%253B%2522%2520style%253D%2522shape%253DumlLifeline%253Bperimeter%253DlifelinePerimeter%253BwhiteSpace%253Dwrap%253Bhtml%253D1%253Bcontainer%253D0%253BdropTarget%253D0%253Bcollapsible%253D0%253BrecursiveResize%253D0%253BoutlineConnect%253D0%253BportConstraint%253Deastwest%253BnewEdgeStyle%253D%257B%2526quot%253BedgeStyle%2526quot%253B%253A%2526quot%253BelbowEdgeStyle%2526quot%253B%252C%2526quot%253Belbow%2526quot%253B%253A%2526quot%253Bvertical%2526quot%253B%252C%2526quot%253Bcurved%2526quot%253B%253A0%252C%2526quot%253Brounded%2526quot%253B%253A0%257D%253B%2522%2520vertex%253D%25221%2522%2520parent%253D%25221%2522%253E%253CmxGeometry%2520x%253D%2522220%2522%2520y%253D%252240%2522%2520width%253D%2522100%2522%2520height%253D%2522240%2522%2520as%253D%2522geometry%2522%252F%253E%253C%252FmxCell%253E%253CmxCell%2520id%253D%25223%2522%2520value%253D%2522%2522%2520style%253D%2522html%253D1%253Bpoints%253D%255B%255D%253Bperimeter%253DorthogonalPerimeter%253BoutlineConnect%253D0%253BtargetShapes%253DumlLifeline%253BportConstraint%253Deastwest%253BnewEdgeStyle%253D%257B%2526quot%253BedgeStyle%2526quot%253B%253A%2526quot%253BelbowEdgeStyle%2526quot%253B%252C%2526quot%253Belbow%2526quot%253B%253A%2526quot%253Bvertical%2526quot%253B%252C%2526quot%253Bcurved%2526quot%253B%253A0%252C%2526quot%253Brounded%2526quot%253B%253A0%257D%253B%2522%2520vertex%253D%25221%2522%2520parent%253D%25222%2522%253E%253CmxGeometry%2520x%253D%252245%2522%2520y%253D%252280%2522%2520width%253D%252210%2522%2520height%253D%2522110%2522%2520as%253D%2522geometry%2522%252F%253E%253C%252FmxCell%253E%253C%252Froot%253E%253C%252FmxGraphModel%253E%26lt%3B%2Fspan%26gt%3B%22%20style%3D%22endArrow%3Dblock%3Bhtml%3D1%3Brounded%3D0%3BendFill%3D1%3B%22%20edge%3D%221%22%20parent%3D%221%22%3E%3CmxGeometry%20width%3D%2250%22%20height%3D%2250%22%20relative%3D%221%22%20as%3D%22geometry%22%3E%3CmxPoint%20x%3D%22525%22%20y%3D%22220%22%20as%3D%22sourcePoint%22%2F%3E%3CmxPoint%20x%3D%22410%22%20y%3D%22220%22%20as%3D%22targetPoint%22%2F%3E%3CArray%20as%3D%22points%22%3E%3CmxPoint%20x%3D%22470%22%20y%3D%22220%22%2F%3E%3C%2FArray%3E%3C%2FmxGeometry%3E%3C%2FmxCell%3E%3CmxCell%20id%3D%223%22%20value%3D%22Skill%20Result%22%20style%3D%22edgeLabel%3Bhtml%3D1%3Balign%3Dcenter%3BverticalAlign%3Dmiddle%3Bresizable%3D0%3Bpoints%3D%5B%5D%3BlabelBackgroundColor%3Dnone%3B%22%20vertex%3D%221%22%20connectable%3D%220%22%20parent%3D%222%22%3E%3CmxGeometry%20x%3D%220.1879%22%20relative%3D%221%22%20as%3D%22geometry%22%3E%3CmxPoint%20x%3D%2213%22%20y%3D%22-10%22%20as%3D%22offset%22%2F%3E%3C%2FmxGeometry%3E%3C%2FmxCell%3E%3C%2Froot%3E%3C%2FmxGraphModel%3E&lt;/span&gt;" style="html=1;points=[];perimeter=orthogonalPerimeter;outlineConnect=0;targetShapes=umlLifeline;portConstraint=eastwest;newEdgeStyle={&quot;edgeStyle&quot;:&quot;elbowEdgeStyle&quot;,&quot;elbow&quot;:&quot;vertical&quot;,&quot;curved&quot;:0,&quot;rounded&quot;:0};" parent="aM9ryv3xv72pqoxQDRHE-1" vertex="1">
          <mxGeometry x="45" y="180" width="10" height="50" as="geometry" />
        </mxCell>
        <mxCell id="DJSpjsadpEVMZx1hX49n-17" value="&lt;span style=&quot;color: rgba(0, 0, 0, 0); font-family: monospace; font-size: 0px; text-align: start; background-color: rgb(27, 29, 30);&quot;&gt;%3CmxGraphModel%3E%3Croot%3E%3CmxCell%20id%3D%220%22%2F%3E%3CmxCell%20id%3D%221%22%20parent%3D%220%22%2F%3E%3CmxCell%20id%3D%222%22%20value%3D%22Module%26lt%3Bdiv%26gt%3BAgent%26lt%3B%2Fdiv%26gt%3B%22%20style%3D%22shape%3DumlLifeline%3Bperimeter%3DlifelinePerimeter%3BwhiteSpace%3Dwrap%3Bhtml%3D1%3Bcontainer%3D0%3BdropTarget%3D0%3Bcollapsible%3D0%3BrecursiveResize%3D0%3BoutlineConnect%3D0%3BportConstraint%3Deastwest%3BnewEdgeStyle%3D%7B%26quot%3BedgeStyle%26quot%3B%3A%26quot%3BelbowEdgeStyle%26quot%3B%2C%26quot%3Belbow%26quot%3B%3A%26quot%3Bvertical%26quot%3B%2C%26quot%3Bcurved%26quot%3B%3A0%2C%26quot%3Brounded%26quot%3B%3A0%7D%3B%22%20vertex%3D%221%22%20parent%3D%221%22%3E%3CmxGeometry%20x%3D%22220%22%20y%3D%2240%22%20width%3D%22100%22%20height%3D%22240%22%20as%3D%22geometry%22%2F%3E%3C%2FmxCell%3E%3CmxCell%20id%3D%223%22%20value%3D%22%22%20style%3D%22html%3D1%3Bpoints%3D%5B%5D%3Bperimeter%3DorthogonalPerimeter%3BoutlineConnect%3D0%3BtargetShapes%3DumlLifeline%3BportConstraint%3Deastwest%3BnewEdgeStyle%3D%7B%26quot%3BedgeStyle%26quot%3B%3A%26quot%3BelbowEdgeStyle%26quot%3B%2C%26quot%3Belbow%26quot%3B%3A%26quot%3Bvertical%26quot%3B%2C%26quot%3Bcurved%26quot%3B%3A0%2C%26quot%3Brounded%26quot%3B%3A0%7D%3B%22%20vertex%3D%221%22%20parent%3D%222%22%3E%3CmxGeometry%20x%3D%2245%22%20y%3D%2280%22%20width%3D%2210%22%20height%3D%22110%22%20as%3D%22geometry%22%2F%3E%3C%2FmxCell%3E%3C%2Froot%3E%3C%2FmxGraphModel%3E&lt;/span&gt;" style="endArrow=open;html=1;rounded=0;endFill=0;" parent="aM9ryv3xv72pqoxQDRHE-1" edge="1">
          <mxGeometry width="50" height="50" relative="1" as="geometry">
            <mxPoint x="289.5" y="180" as="sourcePoint" />
            <mxPoint x="170.16666666666674" y="180" as="targetPoint" />
            <Array as="points">
              <mxPoint x="230" y="180" />
            </Array>
          </mxGeometry>
        </mxCell>
        <mxCell id="DJSpjsadpEVMZx1hX49n-18" value="Result" style="edgeLabel;html=1;align=center;verticalAlign=middle;resizable=0;points=[];labelBackgroundColor=none;" parent="DJSpjsadpEVMZx1hX49n-17" vertex="1" connectable="0">
          <mxGeometry x="0.1879" relative="1" as="geometry">
            <mxPoint x="13" y="-10" as="offset" />
          </mxGeometry>
        </mxCell>
        <mxCell id="DJSpjsadpEVMZx1hX49n-19" value="&lt;span style=&quot;color: rgba(0, 0, 0, 0); font-family: monospace; font-size: 0px; text-align: start; background-color: rgb(27, 29, 30);&quot;&gt;%3CmxGraphModel%3E%3Croot%3E%3CmxCell%20id%3D%220%22%2F%3E%3CmxCell%20id%3D%221%22%20parent%3D%220%22%2F%3E%3CmxCell%20id%3D%222%22%20value%3D%22Module%26lt%3Bdiv%26gt%3BAgent%26lt%3B%2Fdiv%26gt%3B%22%20style%3D%22shape%3DumlLifeline%3Bperimeter%3DlifelinePerimeter%3BwhiteSpace%3Dwrap%3Bhtml%3D1%3Bcontainer%3D0%3BdropTarget%3D0%3Bcollapsible%3D0%3BrecursiveResize%3D0%3BoutlineConnect%3D0%3BportConstraint%3Deastwest%3BnewEdgeStyle%3D%7B%26quot%3BedgeStyle%26quot%3B%3A%26quot%3BelbowEdgeStyle%26quot%3B%2C%26quot%3Belbow%26quot%3B%3A%26quot%3Bvertical%26quot%3B%2C%26quot%3Bcurved%26quot%3B%3A0%2C%26quot%3Brounded%26quot%3B%3A0%7D%3B%22%20vertex%3D%221%22%20parent%3D%221%22%3E%3CmxGeometry%20x%3D%22220%22%20y%3D%2240%22%20width%3D%22100%22%20height%3D%22240%22%20as%3D%22geometry%22%2F%3E%3C%2FmxCell%3E%3CmxCell%20id%3D%223%22%20value%3D%22%22%20style%3D%22html%3D1%3Bpoints%3D%5B%5D%3Bperimeter%3DorthogonalPerimeter%3BoutlineConnect%3D0%3BtargetShapes%3DumlLifeline%3BportConstraint%3Deastwest%3BnewEdgeStyle%3D%7B%26quot%3BedgeStyle%26quot%3B%3A%26quot%3BelbowEdgeStyle%26quot%3B%2C%26quot%3Belbow%26quot%3B%3A%26quot%3Bvertical%26quot%3B%2C%26quot%3Bcurved%26quot%3B%3A0%2C%26quot%3Brounded%26quot%3B%3A0%7D%3B%22%20vertex%3D%221%22%20parent%3D%222%22%3E%3CmxGeometry%20x%3D%2245%22%20y%3D%2280%22%20width%3D%2210%22%20height%3D%22110%22%20as%3D%22geometry%22%2F%3E%3C%2FmxCell%3E%3C%2Froot%3E%3C%2FmxGraphModel%3E&lt;/span&gt;" style="endArrow=open;html=1;rounded=0;endFill=0;" parent="aM9ryv3xv72pqoxQDRHE-1" edge="1" target="DJSpjsadpEVMZx1hX49n-23">
          <mxGeometry width="50" height="50" relative="1" as="geometry">
            <mxPoint x="215" y="180" as="sourcePoint" />
            <mxPoint x="60" y="180" as="targetPoint" />
            <Array as="points" />
          </mxGeometry>
        </mxCell>
        <mxCell id="DJSpjsadpEVMZx1hX49n-20" value="Result" style="edgeLabel;html=1;align=center;verticalAlign=middle;resizable=0;points=[];labelBackgroundColor=none;" parent="DJSpjsadpEVMZx1hX49n-19" vertex="1" connectable="0">
          <mxGeometry x="0.1879" relative="1" as="geometry">
            <mxPoint x="-3" y="-10" as="offset" />
          </mxGeometry>
        </mxCell>
        <mxCell id="aM9ryv3xv72pqoxQDRHE-5" value="&lt;div style=&quot;&quot;&gt;&lt;font style=&quot;font-size: 12px;&quot;&gt;Module&lt;/font&gt;&lt;/div&gt;&lt;div style=&quot;&quot;&gt;&lt;font style=&quot;font-size: 12px;&quot;&gt;Engine&lt;/font&gt;&lt;/div&gt;" style="shape=umlLifeline;perimeter=lifelinePerimeter;whiteSpace=wrap;html=1;container=0;dropTarget=0;collapsible=0;recursiveResize=0;outlineConnect=0;portConstraint=eastwest;newEdgeStyle={&quot;edgeStyle&quot;:&quot;elbowEdgeStyle&quot;,&quot;elbow&quot;:&quot;vertical&quot;,&quot;curved&quot;:0,&quot;rounded&quot;:0};" parent="1" vertex="1">
          <mxGeometry x="430" y="100" width="100" height="250" as="geometry" />
        </mxCell>
        <mxCell id="1Jfup5qmZFh4_z64vbdW-1" value="&lt;div style=&quot;&quot;&gt;&lt;font style=&quot;font-size: 12px;&quot;&gt;Link&lt;/font&gt;&lt;/div&gt;&lt;div style=&quot;&quot;&gt;&lt;font style=&quot;font-size: 12px;&quot;&gt;Library&lt;/font&gt;&lt;/div&gt;" style="shape=umlLifeline;perimeter=lifelinePerimeter;whiteSpace=wrap;html=1;container=0;dropTarget=0;collapsible=0;recursiveResize=0;outlineConnect=0;portConstraint=eastwest;newEdgeStyle={&quot;edgeStyle&quot;:&quot;elbowEdgeStyle&quot;,&quot;elbow&quot;:&quot;vertical&quot;,&quot;curved&quot;:0,&quot;rounded&quot;:0};" parent="1" vertex="1">
          <mxGeometry x="550" y="100" width="100" height="250" as="geometry" />
        </mxCell>
        <mxCell id="1Jfup5qmZFh4_z64vbdW-3" value="" style="html=1;points=[];perimeter=orthogonalPerimeter;outlineConnect=0;targetShapes=umlLifeline;portConstraint=eastwest;newEdgeStyle={&quot;edgeStyle&quot;:&quot;elbowEdgeStyle&quot;,&quot;elbow&quot;:&quot;vertical&quot;,&quot;curved&quot;:0,&quot;rounded&quot;:0};" parent="1Jfup5qmZFh4_z64vbdW-1" vertex="1">
          <mxGeometry x="45" y="70" width="10" height="20" as="geometry" />
        </mxCell>
        <mxCell id="oKaU3eYprb6nmrxzooQU-1" value="" style="html=1;points=[];perimeter=orthogonalPerimeter;outlineConnect=0;targetShapes=umlLifeline;portConstraint=eastwest;newEdgeStyle={&quot;edgeStyle&quot;:&quot;elbowEdgeStyle&quot;,&quot;elbow&quot;:&quot;vertical&quot;,&quot;curved&quot;:0,&quot;rounded&quot;:0};" parent="1Jfup5qmZFh4_z64vbdW-1" vertex="1">
          <mxGeometry x="45" y="130" width="10" height="10" as="geometry" />
        </mxCell>
        <mxCell id="6QHOhuDn9c8oIxTG1jtL-1" value="" style="html=1;points=[];perimeter=orthogonalPerimeter;outlineConnect=0;targetShapes=umlLifeline;portConstraint=eastwest;newEdgeStyle={&quot;edgeStyle&quot;:&quot;elbowEdgeStyle&quot;,&quot;elbow&quot;:&quot;vertical&quot;,&quot;curved&quot;:0,&quot;rounded&quot;:0};" parent="1Jfup5qmZFh4_z64vbdW-1" vertex="1">
          <mxGeometry x="45" y="170" width="10" height="10" as="geometry" />
        </mxCell>
        <mxCell id="1Jfup5qmZFh4_z64vbdW-8" value="&lt;div style=&quot;&quot;&gt;&lt;font style=&quot;font-size: 12px;&quot;&gt;Hardware&lt;/font&gt;&lt;/div&gt;" style="shape=umlLifeline;perimeter=lifelinePerimeter;whiteSpace=wrap;html=1;container=0;dropTarget=0;collapsible=0;recursiveResize=0;outlineConnect=0;portConstraint=eastwest;newEdgeStyle={&quot;edgeStyle&quot;:&quot;elbowEdgeStyle&quot;,&quot;elbow&quot;:&quot;vertical&quot;,&quot;curved&quot;:0,&quot;rounded&quot;:0};" parent="1" vertex="1">
          <mxGeometry x="670" y="60" width="100" height="290" as="geometry" />
        </mxCell>
        <mxCell id="1Jfup5qmZFh4_z64vbdW-10" value="" style="html=1;points=[];perimeter=orthogonalPerimeter;outlineConnect=0;targetShapes=umlLifeline;portConstraint=eastwest;newEdgeStyle={&quot;edgeStyle&quot;:&quot;elbowEdgeStyle&quot;,&quot;elbow&quot;:&quot;vertical&quot;,&quot;curved&quot;:0,&quot;rounded&quot;:0};" parent="1Jfup5qmZFh4_z64vbdW-8" vertex="1">
          <mxGeometry x="45" y="130" width="10" height="10" as="geometry" />
        </mxCell>
        <mxCell id="DJSpjsadpEVMZx1hX49n-12" value="" style="html=1;points=[];perimeter=orthogonalPerimeter;outlineConnect=0;targetShapes=umlLifeline;portConstraint=eastwest;newEdgeStyle={&quot;edgeStyle&quot;:&quot;elbowEdgeStyle&quot;,&quot;elbow&quot;:&quot;vertical&quot;,&quot;curved&quot;:0,&quot;rounded&quot;:0};" parent="1Jfup5qmZFh4_z64vbdW-8" vertex="1">
          <mxGeometry x="45" y="180" width="10" height="30" as="geometry" />
        </mxCell>
        <mxCell id="DJSpjsadpEVMZx1hX49n-5" value="&lt;span style=&quot;color: rgba(0, 0, 0, 0); font-family: monospace; font-size: 0px; text-align: start; background-color: rgb(27, 29, 30);&quot;&gt;%3CmxGraphModel%3E%3Croot%3E%3CmxCell%20id%3D%220%22%2F%3E%3CmxCell%20id%3D%221%22%20parent%3D%220%22%2F%3E%3CmxCell%20id%3D%222%22%20value%3D%22Module%26lt%3Bdiv%26gt%3BAgent%26lt%3B%2Fdiv%26gt%3B%22%20style%3D%22shape%3DumlLifeline%3Bperimeter%3DlifelinePerimeter%3BwhiteSpace%3Dwrap%3Bhtml%3D1%3Bcontainer%3D0%3BdropTarget%3D0%3Bcollapsible%3D0%3BrecursiveResize%3D0%3BoutlineConnect%3D0%3BportConstraint%3Deastwest%3BnewEdgeStyle%3D%7B%26quot%3BedgeStyle%26quot%3B%3A%26quot%3BelbowEdgeStyle%26quot%3B%2C%26quot%3Belbow%26quot%3B%3A%26quot%3Bvertical%26quot%3B%2C%26quot%3Bcurved%26quot%3B%3A0%2C%26quot%3Brounded%26quot%3B%3A0%7D%3B%22%20vertex%3D%221%22%20parent%3D%221%22%3E%3CmxGeometry%20x%3D%22220%22%20y%3D%2240%22%20width%3D%22100%22%20height%3D%22240%22%20as%3D%22geometry%22%2F%3E%3C%2FmxCell%3E%3CmxCell%20id%3D%223%22%20value%3D%22%22%20style%3D%22html%3D1%3Bpoints%3D%5B%5D%3Bperimeter%3DorthogonalPerimeter%3BoutlineConnect%3D0%3BtargetShapes%3DumlLifeline%3BportConstraint%3Deastwest%3BnewEdgeStyle%3D%7B%26quot%3BedgeStyle%26quot%3B%3A%26quot%3BelbowEdgeStyle%26quot%3B%2C%26quot%3Belbow%26quot%3B%3A%26quot%3Bvertical%26quot%3B%2C%26quot%3Bcurved%26quot%3B%3A0%2C%26quot%3Brounded%26quot%3B%3A0%7D%3B%22%20vertex%3D%221%22%20parent%3D%222%22%3E%3CmxGeometry%20x%3D%2245%22%20y%3D%2280%22%20width%3D%2210%22%20height%3D%22110%22%20as%3D%22geometry%22%2F%3E%3C%2FmxCell%3E%3C%2Froot%3E%3C%2FmxGraphModel%3E&lt;/span&gt;" style="endArrow=open;html=1;rounded=0;endFill=0;" parent="1" edge="1">
          <mxGeometry width="50" height="50" relative="1" as="geometry">
            <mxPoint x="365" y="230" as="sourcePoint" />
            <mxPoint x="479.5" y="230" as="targetPoint" />
            <Array as="points">
              <mxPoint x="420" y="230" />
            </Array>
          </mxGeometry>
        </mxCell>
        <mxCell id="DJSpjsadpEVMZx1hX49n-9" value="Command" style="edgeLabel;html=1;align=center;verticalAlign=middle;resizable=0;points=[];" parent="DJSpjsadpEVMZx1hX49n-5" vertex="1" connectable="0">
          <mxGeometry x="0.1879" relative="1" as="geometry">
            <mxPoint x="-10" y="-10" as="offset" />
          </mxGeometry>
        </mxCell>
        <mxCell id="DJSpjsadpEVMZx1hX49n-6" value="" style="endArrow=open;html=1;rounded=0;endFill=0;" parent="1" source="1Jfup5qmZFh4_z64vbdW-3" target="1Jfup5qmZFh4_z64vbdW-10" edge="1">
          <mxGeometry width="50" height="50" relative="1" as="geometry">
            <mxPoint x="640" y="250" as="sourcePoint" />
            <mxPoint x="690" y="200" as="targetPoint" />
          </mxGeometry>
        </mxCell>
        <mxCell id="DJSpjsadpEVMZx1hX49n-7" value="Establish&lt;div&gt;Connection&lt;/div&gt;" style="edgeLabel;html=1;align=center;verticalAlign=middle;resizable=0;points=[];labelBackgroundColor=none;" parent="DJSpjsadpEVMZx1hX49n-6" vertex="1" connectable="0">
          <mxGeometry x="-0.2017" y="-2" relative="1" as="geometry">
            <mxPoint x="11" y="-22" as="offset" />
          </mxGeometry>
        </mxCell>
        <mxCell id="DJSpjsadpEVMZx1hX49n-10" value="&lt;span style=&quot;color: rgba(0, 0, 0, 0); font-family: monospace; font-size: 0px; text-align: start; background-color: rgb(27, 29, 30);&quot;&gt;%3CmxGraphModel%3E%3Croot%3E%3CmxCell%20id%3D%220%22%2F%3E%3CmxCell%20id%3D%221%22%20parent%3D%220%22%2F%3E%3CmxCell%20id%3D%222%22%20value%3D%22Module%26lt%3Bdiv%26gt%3BAgent%26lt%3B%2Fdiv%26gt%3B%22%20style%3D%22shape%3DumlLifeline%3Bperimeter%3DlifelinePerimeter%3BwhiteSpace%3Dwrap%3Bhtml%3D1%3Bcontainer%3D0%3BdropTarget%3D0%3Bcollapsible%3D0%3BrecursiveResize%3D0%3BoutlineConnect%3D0%3BportConstraint%3Deastwest%3BnewEdgeStyle%3D%7B%26quot%3BedgeStyle%26quot%3B%3A%26quot%3BelbowEdgeStyle%26quot%3B%2C%26quot%3Belbow%26quot%3B%3A%26quot%3Bvertical%26quot%3B%2C%26quot%3Bcurved%26quot%3B%3A0%2C%26quot%3Brounded%26quot%3B%3A0%7D%3B%22%20vertex%3D%221%22%20parent%3D%221%22%3E%3CmxGeometry%20x%3D%22220%22%20y%3D%2240%22%20width%3D%22100%22%20height%3D%22240%22%20as%3D%22geometry%22%2F%3E%3C%2FmxCell%3E%3CmxCell%20id%3D%223%22%20value%3D%22%22%20style%3D%22html%3D1%3Bpoints%3D%5B%5D%3Bperimeter%3DorthogonalPerimeter%3BoutlineConnect%3D0%3BtargetShapes%3DumlLifeline%3BportConstraint%3Deastwest%3BnewEdgeStyle%3D%7B%26quot%3BedgeStyle%26quot%3B%3A%26quot%3BelbowEdgeStyle%26quot%3B%2C%26quot%3Belbow%26quot%3B%3A%26quot%3Bvertical%26quot%3B%2C%26quot%3Bcurved%26quot%3B%3A0%2C%26quot%3Brounded%26quot%3B%3A0%7D%3B%22%20vertex%3D%221%22%20parent%3D%222%22%3E%3CmxGeometry%20x%3D%2245%22%20y%3D%2280%22%20width%3D%2210%22%20height%3D%22110%22%20as%3D%22geometry%22%2F%3E%3C%2FmxCell%3E%3C%2Froot%3E%3C%2FmxGraphModel%3E&lt;/span&gt;" style="endArrow=open;html=1;rounded=0;endFill=0;" parent="1" edge="1">
          <mxGeometry width="50" height="50" relative="1" as="geometry">
            <mxPoint x="430" y="230" as="sourcePoint" />
            <mxPoint x="595" y="230" as="targetPoint" />
            <Array as="points" />
          </mxGeometry>
        </mxCell>
        <mxCell id="DJSpjsadpEVMZx1hX49n-11" value="Command" style="edgeLabel;html=1;align=center;verticalAlign=middle;resizable=0;points=[];" parent="DJSpjsadpEVMZx1hX49n-10" vertex="1" connectable="0">
          <mxGeometry x="0.1879" relative="1" as="geometry">
            <mxPoint x="-10" y="-10" as="offset" />
          </mxGeometry>
        </mxCell>
        <mxCell id="DJSpjsadpEVMZx1hX49n-13" value="&lt;span style=&quot;color: rgba(0, 0, 0, 0); font-family: monospace; font-size: 0px; text-align: start; background-color: rgb(27, 29, 30);&quot;&gt;%3CmxGraphModel%3E%3Croot%3E%3CmxCell%20id%3D%220%22%2F%3E%3CmxCell%20id%3D%221%22%20parent%3D%220%22%2F%3E%3CmxCell%20id%3D%222%22%20value%3D%22Module%26lt%3Bdiv%26gt%3BAgent%26lt%3B%2Fdiv%26gt%3B%22%20style%3D%22shape%3DumlLifeline%3Bperimeter%3DlifelinePerimeter%3BwhiteSpace%3Dwrap%3Bhtml%3D1%3Bcontainer%3D0%3BdropTarget%3D0%3Bcollapsible%3D0%3BrecursiveResize%3D0%3BoutlineConnect%3D0%3BportConstraint%3Deastwest%3BnewEdgeStyle%3D%7B%26quot%3BedgeStyle%26quot%3B%3A%26quot%3BelbowEdgeStyle%26quot%3B%2C%26quot%3Belbow%26quot%3B%3A%26quot%3Bvertical%26quot%3B%2C%26quot%3Bcurved%26quot%3B%3A0%2C%26quot%3Brounded%26quot%3B%3A0%7D%3B%22%20vertex%3D%221%22%20parent%3D%221%22%3E%3CmxGeometry%20x%3D%22220%22%20y%3D%2240%22%20width%3D%22100%22%20height%3D%22240%22%20as%3D%22geometry%22%2F%3E%3C%2FmxCell%3E%3CmxCell%20id%3D%223%22%20value%3D%22%22%20style%3D%22html%3D1%3Bpoints%3D%5B%5D%3Bperimeter%3DorthogonalPerimeter%3BoutlineConnect%3D0%3BtargetShapes%3DumlLifeline%3BportConstraint%3Deastwest%3BnewEdgeStyle%3D%7B%26quot%3BedgeStyle%26quot%3B%3A%26quot%3BelbowEdgeStyle%26quot%3B%2C%26quot%3Belbow%26quot%3B%3A%26quot%3Bvertical%26quot%3B%2C%26quot%3Bcurved%26quot%3B%3A0%2C%26quot%3Brounded%26quot%3B%3A0%7D%3B%22%20vertex%3D%221%22%20parent%3D%222%22%3E%3CmxGeometry%20x%3D%2245%22%20y%3D%2280%22%20width%3D%2210%22%20height%3D%22110%22%20as%3D%22geometry%22%2F%3E%3C%2FmxCell%3E%3C%2Froot%3E%3C%2FmxGraphModel%3E&lt;/span&gt;" style="endArrow=open;html=1;rounded=0;endFill=0;" parent="1" source="oKaU3eYprb6nmrxzooQU-1" target="DJSpjsadpEVMZx1hX49n-12" edge="1">
          <mxGeometry width="50" height="50" relative="1" as="geometry">
            <mxPoint x="600.0238095238095" y="230" as="sourcePoint" />
            <mxPoint x="715" y="230" as="targetPoint" />
            <Array as="points" />
          </mxGeometry>
        </mxCell>
        <mxCell id="DJSpjsadpEVMZx1hX49n-14" value="Command" style="edgeLabel;html=1;align=center;verticalAlign=middle;resizable=0;points=[];" parent="DJSpjsadpEVMZx1hX49n-13" vertex="1" connectable="0">
          <mxGeometry x="0.1879" relative="1" as="geometry">
            <mxPoint x="-10" y="-10" as="offset" />
          </mxGeometry>
        </mxCell>
        <mxCell id="DJSpjsadpEVMZx1hX49n-15" value="&lt;span style=&quot;color: rgba(0, 0, 0, 0); font-family: monospace; font-size: 0px; text-align: start; background-color: rgb(27, 29, 30);&quot;&gt;%3CmxGraphModel%3E%3Croot%3E%3CmxCell%20id%3D%220%22%2F%3E%3CmxCell%20id%3D%221%22%20parent%3D%220%22%2F%3E%3CmxCell%20id%3D%222%22%20value%3D%22Module%26lt%3Bdiv%26gt%3BAgent%26lt%3B%2Fdiv%26gt%3B%22%20style%3D%22shape%3DumlLifeline%3Bperimeter%3DlifelinePerimeter%3BwhiteSpace%3Dwrap%3Bhtml%3D1%3Bcontainer%3D0%3BdropTarget%3D0%3Bcollapsible%3D0%3BrecursiveResize%3D0%3BoutlineConnect%3D0%3BportConstraint%3Deastwest%3BnewEdgeStyle%3D%7B%26quot%3BedgeStyle%26quot%3B%3A%26quot%3BelbowEdgeStyle%26quot%3B%2C%26quot%3Belbow%26quot%3B%3A%26quot%3Bvertical%26quot%3B%2C%26quot%3Bcurved%26quot%3B%3A0%2C%26quot%3Brounded%26quot%3B%3A0%7D%3B%22%20vertex%3D%221%22%20parent%3D%221%22%3E%3CmxGeometry%20x%3D%22220%22%20y%3D%2240%22%20width%3D%22100%22%20height%3D%22240%22%20as%3D%22geometry%22%2F%3E%3C%2FmxCell%3E%3CmxCell%20id%3D%223%22%20value%3D%22%22%20style%3D%22html%3D1%3Bpoints%3D%5B%5D%3Bperimeter%3DorthogonalPerimeter%3BoutlineConnect%3D0%3BtargetShapes%3DumlLifeline%3BportConstraint%3Deastwest%3BnewEdgeStyle%3D%7B%26quot%3BedgeStyle%26quot%3B%3A%26quot%3BelbowEdgeStyle%26quot%3B%2C%26quot%3Belbow%26quot%3B%3A%26quot%3Bvertical%26quot%3B%2C%26quot%3Bcurved%26quot%3B%3A0%2C%26quot%3Brounded%26quot%3B%3A0%7D%3B%22%20vertex%3D%221%22%20parent%3D%222%22%3E%3CmxGeometry%20x%3D%2245%22%20y%3D%2280%22%20width%3D%2210%22%20height%3D%22110%22%20as%3D%22geometry%22%2F%3E%3C%2FmxCell%3E%3C%2Froot%3E%3C%2FmxGraphModel%3E&lt;/span&gt;" style="endArrow=open;html=1;rounded=0;endFill=0;" parent="1" source="DJSpjsadpEVMZx1hX49n-12" target="6QHOhuDn9c8oIxTG1jtL-1" edge="1">
          <mxGeometry width="50" height="50" relative="1" as="geometry">
            <mxPoint x="600" y="260" as="sourcePoint" />
            <mxPoint x="605" y="340" as="targetPoint" />
            <Array as="points" />
          </mxGeometry>
        </mxCell>
        <mxCell id="DJSpjsadpEVMZx1hX49n-16" value="Result" style="edgeLabel;html=1;align=center;verticalAlign=middle;resizable=0;points=[];labelBackgroundColor=none;" parent="DJSpjsadpEVMZx1hX49n-15" vertex="1" connectable="0">
          <mxGeometry x="0.1879" relative="1" as="geometry">
            <mxPoint x="13" y="-10" as="offset" />
          </mxGeometry>
        </mxCell>
        <mxCell id="fNC70rHiMfFs5VwdoTCS-1" value="&lt;div style=&quot;&quot;&gt;&lt;font style=&quot;font-size: 12px;&quot;&gt;Deployment&lt;/font&gt;&lt;/div&gt;&lt;div style=&quot;&quot;&gt;&lt;font style=&quot;font-size: 12px;&quot;&gt;Entity&lt;/font&gt;&lt;/div&gt;" style="shape=umlLifeline;perimeter=lifelinePerimeter;whiteSpace=wrap;html=1;container=0;dropTarget=0;collapsible=0;recursiveResize=0;outlineConnect=0;portConstraint=eastwest;newEdgeStyle={&quot;edgeStyle&quot;:&quot;elbowEdgeStyle&quot;,&quot;elbow&quot;:&quot;vertical&quot;,&quot;curved&quot;:0,&quot;rounded&quot;:0};" parent="1" vertex="1">
          <mxGeometry x="190" y="60" width="100" height="290" as="geometry" />
        </mxCell>
        <mxCell id="fNC70rHiMfFs5VwdoTCS-15" value="&lt;span style=&quot;color: rgba(0, 0, 0, 0); font-family: monospace; font-size: 0px; text-align: start;&quot;&gt;%3CmxGraphModel%3E%3Croot%3E%3CmxCell%20id%3D%220%22%2F%3E%3CmxCell%20id%3D%221%22%20parent%3D%220%22%2F%3E%3CmxCell%20id%3D%222%22%20value%3D%22%26lt%3Bspan%20style%3D%26quot%3Bcolor%3A%20rgba(0%2C%200%2C%200%2C%200)%3B%20font-family%3A%20monospace%3B%20font-size%3A%200px%3B%20text-align%3A%20start%3B%20background-color%3A%20rgb(27%2C%2029%2C%2030)%3B%26quot%3B%26gt%3B%253CmxGraphModel%253E%253Croot%253E%253CmxCell%2520id%253D%25220%2522%252F%253E%253CmxCell%2520id%253D%25221%2522%2520parent%253D%25220%2522%252F%253E%253CmxCell%2520id%253D%25222%2522%2520value%253D%2522Module%2526lt%253Bdiv%2526gt%253BAgent%2526lt%253B%252Fdiv%2526gt%253B%2522%2520style%253D%2522shape%253DumlLifeline%253Bperimeter%253DlifelinePerimeter%253BwhiteSpace%253Dwrap%253Bhtml%253D1%253Bcontainer%253D0%253BdropTarget%253D0%253Bcollapsible%253D0%253BrecursiveResize%253D0%253BoutlineConnect%253D0%253BportConstraint%253Deastwest%253BnewEdgeStyle%253D%257B%2526quot%253BedgeStyle%2526quot%253B%253A%2526quot%253BelbowEdgeStyle%2526quot%253B%252C%2526quot%253Belbow%2526quot%253B%253A%2526quot%253Bvertical%2526quot%253B%252C%2526quot%253Bcurved%2526quot%253B%253A0%252C%2526quot%253Brounded%2526quot%253B%253A0%257D%253B%2522%2520vertex%253D%25221%2522%2520parent%253D%25221%2522%253E%253CmxGeometry%2520x%253D%2522220%2522%2520y%253D%252240%2522%2520width%253D%2522100%2522%2520height%253D%2522240%2522%2520as%253D%2522geometry%2522%252F%253E%253C%252FmxCell%253E%253CmxCell%2520id%253D%25223%2522%2520value%253D%2522%2522%2520style%253D%2522html%253D1%253Bpoints%253D%255B%255D%253Bperimeter%253DorthogonalPerimeter%253BoutlineConnect%253D0%253BtargetShapes%253DumlLifeline%253BportConstraint%253Deastwest%253BnewEdgeStyle%253D%257B%2526quot%253BedgeStyle%2526quot%253B%253A%2526quot%253BelbowEdgeStyle%2526quot%253B%252C%2526quot%253Belbow%2526quot%253B%253A%2526quot%253Bvertical%2526quot%253B%252C%2526quot%253Bcurved%2526quot%253B%253A0%252C%2526quot%253Brounded%2526quot%253B%253A0%257D%253B%2522%2520vertex%253D%25221%2522%2520parent%253D%25222%2522%253E%253CmxGeometry%2520x%253D%252245%2522%2520y%253D%252280%2522%2520width%253D%252210%2522%2520height%253D%2522110%2522%2520as%253D%2522geometry%2522%252F%253E%253C%252FmxCell%253E%253C%252Froot%253E%253C%252FmxGraphModel%253E%26lt%3B%2Fspan%26gt%3B%22%20style%3D%22endArrow%3Dblock%3Bhtml%3D1%3Brounded%3D0%3BendFill%3D1%3B%22%20edge%3D%221%22%20parent%3D%221%22%3E%3CmxGeometry%20width%3D%2250%22%20height%3D%2250%22%20relative%3D%221%22%20as%3D%22geometry%22%3E%3CmxPoint%20x%3D%22525%22%20y%3D%22220%22%20as%3D%22sourcePoint%22%2F%3E%3CmxPoint%20x%3D%22410%22%20y%3D%22220%22%20as%3D%22targetPoint%22%2F%3E%3CArray%20as%3D%22points%22%3E%3CmxPoint%20x%3D%22470%22%20y%3D%22220%22%2F%3E%3C%2FArray%3E%3C%2FmxGeometry%3E%3C%2FmxCell%3E%3CmxCell%20id%3D%223%22%20value%3D%22Skill%20Result%22%20style%3D%22edgeLabel%3Bhtml%3D1%3Balign%3Dcenter%3BverticalAlign%3Dmiddle%3Bresizable%3D0%3Bpoints%3D%5B%5D%3BlabelBackgroundColor%3Dnone%3B%22%20vertex%3D%221%22%20connectable%3D%220%22%20parent%3D%222%22%3E%3CmxGeometry%20x%3D%220.1879%22%20relative%3D%221%22%20as%3D%22geometry%22%3E%3CmxPoint%20x%3D%2213%22%20y%3D%22-10%22%20as%3D%22offset%22%2F%3E%3C%2FmxGeometry%3E%3C%2FmxCell%3E%3C%2Froot%3E%3C%2FmxGraphModel%3E&lt;/span&gt;&lt;span style=&quot;color: rgba(0, 0, 0, 0); font-family: monospace; font-size: 0px; text-align: start;&quot;&gt;%3CmxGraphModel%3E%3Croot%3E%3CmxCell%20id%3D%220%22%2F%3E%3CmxCell%20id%3D%221%22%20parent%3D%220%22%2F%3E%3CmxCell%20id%3D%222%22%20value%3D%22%26lt%3Bspan%20style%3D%26quot%3Bcolor%3A%20rgba(0%2C%200%2C%200%2C%200)%3B%20font-family%3A%20monospace%3B%20font-size%3A%200px%3B%20text-align%3A%20start%3B%20background-color%3A%20rgb(27%2C%2029%2C%2030)%3B%26quot%3B%26gt%3B%253CmxGraphModel%253E%253Croot%253E%253CmxCell%2520id%253D%25220%2522%252F%253E%253CmxCell%2520id%253D%25221%2522%2520parent%253D%25220%2522%252F%253E%253CmxCell%2520id%253D%25222%2522%2520value%253D%2522Module%2526lt%253Bdiv%2526gt%253BAgent%2526lt%253B%252Fdiv%2526gt%253B%2522%2520style%253D%2522shape%253DumlLifeline%253Bperimeter%253DlifelinePerimeter%253BwhiteSpace%253Dwrap%253Bhtml%253D1%253Bcontainer%253D0%253BdropTarget%253D0%253Bcollapsible%253D0%253BrecursiveResize%253D0%253BoutlineConnect%253D0%253BportConstraint%253Deastwest%253BnewEdgeStyle%253D%257B%2526quot%253BedgeStyle%2526quot%253B%253A%2526quot%253BelbowEdgeStyle%2526quot%253B%252C%2526quot%253Belbow%2526quot%253B%253A%2526quot%253Bvertical%2526quot%253B%252C%2526quot%253Bcurved%2526quot%253B%253A0%252C%2526quot%253Brounded%2526quot%253B%253A0%257D%253B%2522%2520vertex%253D%25221%2522%2520parent%253D%25221%2522%253E%253CmxGeometry%2520x%253D%2522220%2522%2520y%253D%252240%2522%2520width%253D%2522100%2522%2520height%253D%2522240%2522%2520as%253D%2522geometry%2522%252F%253E%253C%252FmxCell%253E%253CmxCell%2520id%253D%25223%2522%2520value%253D%2522%2522%2520style%253D%2522html%253D1%253Bpoints%253D%255B%255D%253Bperimeter%253DorthogonalPerimeter%253BoutlineConnect%253D0%253BtargetShapes%253DumlLifeline%253BportConstraint%253Deastwest%253BnewEdgeStyle%253D%257B%2526quot%253BedgeStyle%2526quot%253B%253A%2526quot%253BelbowEdgeStyle%2526quot%253B%252C%2526quot%253Belbow%2526quot%253B%253A%2526quot%253Bvertical%2526quot%253B%252C%2526quot%253Bcurved%2526quot%253B%253A0%252C%2526quot%253Brounded%2526quot%253B%253A0%257D%253B%2522%2520vertex%253D%25221%2522%2520parent%253D%25222%2522%253E%253CmxGeometry%2520x%253D%252245%2522%2520y%253D%252280%2522%2520width%253D%252210%2522%2520height%253D%2522110%2522%2520as%253D%2522geometry%2522%252F%253E%253C%252FmxCell%253E%253C%252Froot%253E%253C%252FmxGraphModel%253E%26lt%3B%2Fspan%26gt%3B%22%20style%3D%22endArrow%3Dblock%3Bhtml%3D1%3Brounded%3D0%3BendFill%3D1%3B%22%20edge%3D%221%22%20parent%3D%221%22%3E%3CmxGeometry%20width%3D%2250%22%20height%3D%2250%22%20relative%3D%221%22%20as%3D%22geometry%22%3E%3CmxPoint%20x%3D%22525%22%20y%3D%22220%22%20as%3D%22sourcePoint%22%2F%3E%3CmxPoint%20x%3D%22410%22%20y%3D%22220%22%20as%3D%22targetPoint%22%2F%3E%3CArray%20as%3D%22points%22%3E%3CmxPoint%20x%3D%22470%22%20y%3D%22220%22%2F%3E%3C%2FArray%3E%3C%2FmxGeometry%3E%3C%2FmxCell%3E%3CmxCell%20id%3D%223%22%20value%3D%22Skill%20Result%22%20style%3D%22edgeLabel%3Bhtml%3D1%3Balign%3Dcenter%3BverticalAlign%3Dmiddle%3Bresizable%3D0%3Bpoints%3D%5B%5D%3BlabelBackgroundColor%3Dnone%3B%22%20vertex%3D%221%22%20connectable%3D%220%22%20parent%3D%222%22%3E%3CmxGeometry%20x%3D%220.1879%22%20relative%3D%221%22%20as%3D%22geometry%22%3E%3CmxPoint%20x%3D%2213%22%20y%3D%22-10%22%20as%3D%22offset%22%2F%3E%3C%2FmxGeometry%3E%3C%2FmxCell%3E%3C%2Froot%3E%3C%2FmxGraphModel%3E&lt;/span&gt;&lt;span style=&quot;color: rgba(0, 0, 0, 0); font-family: monospace; font-size: 0px; text-align: start;&quot;&gt;%3CmxGraphModel%3E%3Croot%3E%3CmxCell%20id%3D%220%22%2F%3E%3CmxCell%20id%3D%221%22%20parent%3D%220%22%2F%3E%3CmxCell%20id%3D%222%22%20value%3D%22%26lt%3Bspan%20style%3D%26quot%3Bcolor%3A%20rgba(0%2C%200%2C%200%2C%200)%3B%20font-family%3A%20monospace%3B%20font-size%3A%200px%3B%20text-align%3A%20start%3B%20background-color%3A%20rgb(27%2C%2029%2C%2030)%3B%26quot%3B%26gt%3B%253CmxGraphModel%253E%253Croot%253E%253CmxCell%2520id%253D%25220%2522%252F%253E%253CmxCell%2520id%253D%25221%2522%2520parent%253D%25220%2522%252F%253E%253CmxCell%2520id%253D%25222%2522%2520value%253D%2522Module%2526lt%253Bdiv%2526gt%253BAgent%2526lt%253B%252Fdiv%2526gt%253B%2522%2520style%253D%2522shape%253DumlLifeline%253Bperimeter%253DlifelinePerimeter%253BwhiteSpace%253Dwrap%253Bhtml%253D1%253Bcontainer%253D0%253BdropTarget%253D0%253Bcollapsible%253D0%253BrecursiveResize%253D0%253BoutlineConnect%253D0%253BportConstraint%253Deastwest%253BnewEdgeStyle%253D%257B%2526quot%253BedgeStyle%2526quot%253B%253A%2526quot%253BelbowEdgeStyle%2526quot%253B%252C%2526quot%253Belbow%2526quot%253B%253A%2526quot%253Bvertical%2526quot%253B%252C%2526quot%253Bcurved%2526quot%253B%253A0%252C%2526quot%253Brounded%2526quot%253B%253A0%257D%253B%2522%2520vertex%253D%25221%2522%2520parent%253D%25221%2522%253E%253CmxGeometry%2520x%253D%2522220%2522%2520y%253D%252240%2522%2520width%253D%2522100%2522%2520height%253D%2522240%2522%2520as%253D%2522geometry%2522%252F%253E%253C%252FmxCell%253E%253CmxCell%2520id%253D%25223%2522%2520value%253D%2522%2522%2520style%253D%2522html%253D1%253Bpoints%253D%255B%255D%253Bperimeter%253DorthogonalPerimeter%253BoutlineConnect%253D0%253BtargetShapes%253DumlLifeline%253BportConstraint%253Deastwest%253BnewEdgeStyle%253D%257B%2526quot%253BedgeStyle%2526quot%253B%253A%2526quot%253BelbowEdgeStyle%2526quot%253B%252C%2526quot%253Belbow%2526quot%253B%253A%2526quot%253Bvertical%2526quot%253B%252C%2526quot%253Bcurved%2526quot%253B%253A0%252C%2526quot%253Brounded%2526quot%253B%253A0%257D%253B%2522%2520vertex%253D%25221%2522%2520parent%253D%25222%2522%253E%253CmxGeometry%2520x%253D%252245%2522%2520y%253D%252280%2522%2520width%253D%252210%2522%2520height%253D%2522110%2522%2520as%253D%2522geometry%2522%252F%253E%253C%252FmxCell%253E%253C%252Froot%253E%253C%252FmxGraphModel%253E%26lt%3B%2Fspan%26gt%3B%22%20style%3D%22endArrow%3Dblock%3Bhtml%3D1%3Brounded%3D0%3BendFill%3D1%3B%22%20edge%3D%221%22%20parent%3D%221%22%3E%3CmxGeometry%20width%3D%2250%22%20height%3D%2250%22%20relative%3D%221%22%20as%3D%22geometry%22%3E%3CmxPoint%20x%3D%22525%22%20y%3D%22220%22%20as%3D%22sourcePoint%22%2F%3E%3CmxPoint%20x%3D%22410%22%20y%3D%22220%22%20as%3D%22targetPoint%22%2F%3E%3CArray%20as%3D%22points%22%3E%3CmxPoint%20x%3D%22470%22%20y%3D%22220%22%2F%3E%3C%2FArray%3E%3C%2FmxGeometry%3E%3C%2FmxCell%3E%3CmxCell%20id%3D%223%22%20value%3D%22Skill%20Result%22%20style%3D%22edgeLabel%3Bhtml%3D1%3Balign%3Dcenter%3BverticalAlign%3Dmiddle%3Bresizable%3D0%3Bpoints%3D%5B%5D%3BlabelBackgroundColor%3Dnone%3B%22%20vertex%3D%221%22%20connectable%3D%220%22%20parent%3D%222%22%3E%3CmxGeometry%20x%3D%220.1879%22%20relative%3D%221%22%20as%3D%22geometry%22%3E%3CmxPoint%20x%3D%2213%22%20y%3D%22-10%22%20as%3D%22offset%22%2F%3E%3C%2FmxGeometry%3E%3C%2FmxCell%3E%3C%2Froot%3E%3C%2FmxGraphModel%3E&lt;/span&gt;&lt;span style=&quot;color: rgba(0, 0, 0, 0); font-family: monospace; font-size: 0px; text-align: start;&quot;&gt;%3CmxGraphModel%3E%3Croot%3E%3CmxCell%20id%3D%220%22%2F%3E%3CmxCell%20id%3D%221%22%20parent%3D%220%22%2F%3E%3CmxCell%20id%3D%222%22%20value%3D%22%26lt%3Bspan%20style%3D%26quot%3Bcolor%3A%20rgba(0%2C%200%2C%200%2C%200)%3B%20font-family%3A%20monospace%3B%20font-size%3A%200px%3B%20text-align%3A%20start%3B%20background-color%3A%20rgb(27%2C%2029%2C%2030)%3B%26quot%3B%26gt%3B%253CmxGraphModel%253E%253Croot%253E%253CmxCell%2520id%253D%25220%2522%252F%253E%253CmxCell%2520id%253D%25221%2522%2520parent%253D%25220%2522%252F%253E%253CmxCell%2520id%253D%25222%2522%2520value%253D%2522Module%2526lt%253Bdiv%2526gt%253BAgent%2526lt%253B%252Fdiv%2526gt%253B%2522%2520style%253D%2522shape%253DumlLifeline%253Bperimeter%253DlifelinePerimeter%253BwhiteSpace%253Dwrap%253Bhtml%253D1%253Bcontainer%253D0%253BdropTarget%253D0%253Bcollapsible%253D0%253BrecursiveResize%253D0%253BoutlineConnect%253D0%253BportConstraint%253Deastwest%253BnewEdgeStyle%253D%257B%2526quot%253BedgeStyle%2526quot%253B%253A%2526quot%253BelbowEdgeStyle%2526quot%253B%252C%2526quot%253Belbow%2526quot%253B%253A%2526quot%253Bvertical%2526quot%253B%252C%2526quot%253Bcurved%2526quot%253B%253A0%252C%2526quot%253Brounded%2526quot%253B%253A0%257D%253B%2522%2520vertex%253D%25221%2522%2520parent%253D%25221%2522%253E%253CmxGeometry%2520x%253D%2522220%2522%2520y%253D%252240%2522%2520width%253D%2522100%2522%2520height%253D%2522240%2522%2520as%253D%2522geometry%2522%252F%253E%253C%252FmxCell%253E%253CmxCell%2520id%253D%25223%2522%2520value%253D%2522%2522%2520style%253D%2522html%253D1%253Bpoints%253D%255B%255D%253Bperimeter%253DorthogonalPerimeter%253BoutlineConnect%253D0%253BtargetShapes%253DumlLifeline%253BportConstraint%253Deastwest%253BnewEdgeStyle%253D%257B%2526quot%253BedgeStyle%2526quot%253B%253A%2526quot%253BelbowEdgeStyle%2526quot%253B%252C%2526quot%253Belbow%2526quot%253B%253A%2526quot%253Bvertical%2526quot%253B%252C%2526quot%253Bcurved%2526quot%253B%253A0%252C%2526quot%253Brounded%2526quot%253B%253A0%257D%253B%2522%2520vertex%253D%25221%2522%2520parent%253D%25222%2522%253E%253CmxGeometry%2520x%253D%252245%2522%2520y%253D%252280%2522%2520width%253D%252210%2522%2520height%253D%2522110%2522%2520as%253D%2522geometry%2522%252F%253E%253C%252FmxCell%253E%253C%252Froot%253E%253C%252FmxGraphModel%253E%26lt%3B%2Fspan%26gt%3B%22%20style%3D%22endArrow%3Dblock%3Bhtml%3D1%3Brounded%3D0%3BendFill%3D1%3B%22%20edge%3D%221%22%20parent%3D%221%22%3E%3CmxGeometry%20width%3D%2250%22%20height%3D%2250%22%20relative%3D%221%22%20as%3D%22geometry%22%3E%3CmxPoint%20x%3D%22525%22%20y%3D%22220%22%20as%3D%22sourcePoint%22%2F%3E%3CmxPoint%20x%3D%22410%22%20y%3D%22220%22%20as%3D%22targetPoint%22%2F%3E%3CArray%20as%3D%22points%22%3E%3CmxPoint%20x%3D%22470%22%20y%3D%22220%22%2F%3E%3C%2FArray%3E%3C%2FmxGeometry%3E%3C%2FmxCell%3E%3CmxCell%20id%3D%223%22%20value%3D%22Skill%20Result%22%20style%3D%22edgeLabel%3Bhtml%3D1%3Balign%3Dcenter%3BverticalAlign%3Dmiddle%3Bresizable%3D0%3Bpoints%3D%5B%5D%3BlabelBackgroundColor%3Dnone%3B%22%20vertex%3D%221%22%20connectable%3D%220%22%20parent%3D%222%22%3E%3CmxGeometry%20x%3D%220.1879%22%20relative%3D%221%22%20as%3D%22geometry%22%3E%3CmxPoint%20x%3D%2213%22%20y%3D%22-10%22%20as%3D%22offset%22%2F%3E%3C%2FmxGeometry%3E%3C%2FmxCell%3E%3C%2Froot%3E%3C%2FmxGraphModel%3E&lt;/span&gt;&lt;span style=&quot;color: rgba(0, 0, 0, 0); font-family: monospace; font-size: 0px; text-align: start;&quot;&gt;%3CmxGraphModel%3E%3Croot%3E%3CmxCell%20id%3D%220%22%2F%3E%3CmxCell%20id%3D%221%22%20parent%3D%220%22%2F%3E%3CmxCell%20id%3D%222%22%20value%3D%22%26lt%3Bspan%20style%3D%26quot%3Bcolor%3A%20rgba(0%2C%200%2C%200%2C%200)%3B%20font-family%3A%20monospace%3B%20font-size%3A%200px%3B%20text-align%3A%20start%3B%20background-color%3A%20rgb(27%2C%2029%2C%2030)%3B%26quot%3B%26gt%3B%253CmxGraphModel%253E%253Croot%253E%253CmxCell%2520id%253D%25220%2522%252F%253E%253CmxCell%2520id%253D%25221%2522%2520parent%253D%25220%2522%252F%253E%253CmxCell%2520id%253D%25222%2522%2520value%253D%2522Module%2526lt%253Bdiv%2526gt%253BAgent%2526lt%253B%252Fdiv%2526gt%253B%2522%2520style%253D%2522shape%253DumlLifeline%253Bperimeter%253DlifelinePerimeter%253BwhiteSpace%253Dwrap%253Bhtml%253D1%253Bcontainer%253D0%253BdropTarget%253D0%253Bcollapsible%253D0%253BrecursiveResize%253D0%253BoutlineConnect%253D0%253BportConstraint%253Deastwest%253BnewEdgeStyle%253D%257B%2526quot%253BedgeStyle%2526quot%253B%253A%2526quot%253BelbowEdgeStyle%2526quot%253B%252C%2526quot%253Belbow%2526quot%253B%253A%2526quot%253Bvertical%2526quot%253B%252C%2526quot%253Bcurved%2526quot%253B%253A0%252C%2526quot%253Brounded%2526quot%253B%253A0%257D%253B%2522%2520vertex%253D%25221%2522%2520parent%253D%25221%2522%253E%253CmxGeometry%2520x%253D%2522220%2522%2520y%253D%252240%2522%2520width%253D%2522100%2522%2520height%253D%2522240%2522%2520as%253D%2522geometry%2522%252F%253E%253C%252FmxCell%253E%253CmxCell%2520id%253D%25223%2522%2520value%253D%2522%2522%2520style%253D%2522html%253D1%253Bpoints%253D%255B%255D%253Bperimeter%253DorthogonalPerimeter%253BoutlineConnect%253D0%253BtargetShapes%253DumlLifeline%253BportConstraint%253Deastwest%253BnewEdgeStyle%253D%257B%2526quot%253BedgeStyle%2526quot%253B%253A%2526quot%253BelbowEdgeStyle%2526quot%253B%252C%2526quot%253Belbow%2526quot%253B%253A%2526quot%253Bvertical%2526quot%253B%252C%2526quot%253Bcurved%2526quot%253B%253A0%252C%2526quot%253Brounded%2526quot%253B%253A0%257D%253B%2522%2520vertex%253D%25221%2522%2520parent%253D%25222%2522%253E%253CmxGeometry%2520x%253D%252245%2522%2520y%253D%252280%2522%2520width%253D%252210%2522%2520height%253D%2522110%2522%2520as%253D%2522geometry%2522%252F%253E%253C%252FmxCell%253E%253C%252Froot%253E%253C%252FmxGraphModel%253E%26lt%3B%2Fspan%26gt%3B%22%20style%3D%22endArrow%3Dblock%3Bhtml%3D1%3Brounded%3D0%3BendFill%3D1%3B%22%20edge%3D%221%22%20parent%3D%221%22%3E%3CmxGeometry%20width%3D%2250%22%20height%3D%2250%22%20relative%3D%221%22%20as%3D%22geometry%22%3E%3CmxPoint%20x%3D%22525%22%20y%3D%22220%22%20as%3D%22sourcePoint%22%2F%3E%3CmxPoint%20x%3D%22410%22%20y%3D%22220%22%20as%3D%22targetPoint%22%2F%3E%3CArray%20as%3D%22points%22%3E%3CmxPoint%20x%3D%22470%22%20y%3D%22220%22%2F%3E%3C%2FArray%3E%3C%2FmxGeometry%3E%3C%2FmxCell%3E%3CmxCell%20id%3D%223%22%20value%3D%22Skill%20Result%22%20style%3D%22edgeLabel%3Bhtml%3D1%3Balign%3Dcenter%3BverticalAlign%3Dmiddle%3Bresizable%3D0%3Bpoints%3D%5B%5D%3BlabelBackgroundColor%3Dnone%3B%22%20vertex%3D%221%22%20connectable%3D%220%22%20parent%3D%222%22%3E%3CmxGeometry%20x%3D%220.1879%22%20relative%3D%221%22%20as%3D%22geometry%22%3E%3CmxPoint%20x%3D%2213%22%20y%3D%22-10%22%20as%3D%22offset%22%2F%3E%3C%2FmxGeometry%3E%3C%2FmxCell%3E%3C%2Froot%3E%3C%2FmxGraphModel%3E&lt;/span&gt;&lt;span style=&quot;color: rgba(0, 0, 0, 0); font-family: monospace; font-size: 0px; text-align: start;&quot;&gt;%3CmxGraphModel%3E%3Croot%3E%3CmxCell%20id%3D%220%22%2F%3E%3CmxCell%20id%3D%221%22%20parent%3D%220%22%2F%3E%3CmxCell%20id%3D%222%22%20value%3D%22%26lt%3Bspan%20style%3D%26quot%3Bcolor%3A%20rgba(0%2C%200%2C%200%2C%200)%3B%20font-family%3A%20monospace%3B%20font-size%3A%200px%3B%20text-align%3A%20start%3B%20background-color%3A%20rgb(27%2C%2029%2C%2030)%3B%26quot%3B%26gt%3B%253CmxGraphModel%253E%253Croot%253E%253CmxCell%2520id%253D%25220%2522%252F%253E%253CmxCell%2520id%253D%25221%2522%2520parent%253D%25220%2522%252F%253E%253CmxCell%2520id%253D%25222%2522%2520value%253D%2522Module%2526lt%253Bdiv%2526gt%253BAgent%2526lt%253B%252Fdiv%2526gt%253B%2522%2520style%253D%2522shape%253DumlLifeline%253Bperimeter%253DlifelinePerimeter%253BwhiteSpace%253Dwrap%253Bhtml%253D1%253Bcontainer%253D0%253BdropTarget%253D0%253Bcollapsible%253D0%253BrecursiveResize%253D0%253BoutlineConnect%253D0%253BportConstraint%253Deastwest%253BnewEdgeStyle%253D%257B%2526quot%253BedgeStyle%2526quot%253B%253A%2526quot%253BelbowEdgeStyle%2526quot%253B%252C%2526quot%253Belbow%2526quot%253B%253A%2526quot%253Bvertical%2526quot%253B%252C%2526quot%253Bcurved%2526quot%253B%253A0%252C%2526quot%253Brounded%2526quot%253B%253A0%257D%253B%2522%2520vertex%253D%25221%2522%2520parent%253D%25221%2522%253E%253CmxGeometry%2520x%253D%2522220%2522%2520y%253D%252240%2522%2520width%253D%2522100%2522%2520height%253D%2522240%2522%2520as%253D%2522geometry%2522%252F%253E%253C%252FmxCell%253E%253CmxCell%2520id%253D%25223%2522%2520value%253D%2522%2522%2520style%253D%2522html%253D1%253Bpoints%253D%255B%255D%253Bperimeter%253DorthogonalPerimeter%253BoutlineConnect%253D0%253BtargetShapes%253DumlLifeline%253BportConstraint%253Deastwest%253BnewEdgeStyle%253D%257B%2526quot%253BedgeStyle%2526quot%253B%253A%2526quot%253BelbowEdgeStyle%2526quot%253B%252C%2526quot%253Belbow%2526quot%253B%253A%2526quot%253Bvertical%2526quot%253B%252C%2526quot%253Bcurved%2526quot%253B%253A0%252C%2526quot%253Brounded%2526quot%253B%253A0%257D%253B%2522%2520vertex%253D%25221%2522%2520parent%253D%25222%2522%253E%253CmxGeometry%2520x%253D%252245%2522%2520y%253D%252280%2522%2520width%253D%252210%2522%2520height%253D%2522110%2522%2520as%253D%2522geometry%2522%252F%253E%253C%252FmxCell%253E%253C%252Froot%253E%253C%252FmxGraphModel%253E%26lt%3B%2Fspan%26gt%3B%22%20style%3D%22endArrow%3Dblock%3Bhtml%3D1%3Brounded%3D0%3BendFill%3D1%3B%22%20edge%3D%221%22%20parent%3D%221%22%3E%3CmxGeometry%20width%3D%2250%22%20height%3D%2250%22%20relative%3D%221%22%20as%3D%22geometry%22%3E%3CmxPoint%20x%3D%22525%22%20y%3D%22220%22%20as%3D%22sourcePoint%22%2F%3E%3CmxPoint%20x%3D%22410%22%20y%3D%22220%22%20as%3D%22targetPoint%22%2F%3E%3CArray%20as%3D%22points%22%3E%3CmxPoint%20x%3D%22470%22%20y%3D%22220%22%2F%3E%3C%2FArray%3E%3C%2FmxGeometry%3E%3C%2FmxCell%3E%3CmxCell%20id%3D%223%22%20value%3D%22Skill%20Result%22%20style%3D%22edgeLabel%3Bhtml%3D1%3Balign%3Dcenter%3BverticalAlign%3Dmiddle%3Bresizable%3D0%3Bpoints%3D%5B%5D%3BlabelBackgroundColor%3Dnone%3B%22%20vertex%3D%221%22%20connectable%3D%220%22%20parent%3D%222%22%3E%3CmxGeometry%20x%3D%220.1879%22%20relative%3D%221%22%20as%3D%22geometry%22%3E%3CmxPoint%20x%3D%2213%22%20y%3D%22-10%22%20as%3D%22offset%22%2F%3E%3C%2FmxGeometry%3E%3C%2FmxCell%3E%3C%2Froot%3E%3C%2FmxGraphModel%3E&lt;/span&gt;&lt;span style=&quot;color: rgba(0, 0, 0, 0); font-family: monospace; font-size: 0px; text-align: start;&quot;&gt;%3CmxGraphModel%3E%3Croot%3E%3CmxCell%20id%3D%220%22%2F%3E%3CmxCell%20id%3D%221%22%20parent%3D%220%22%2F%3E%3CmxCell%20id%3D%222%22%20value%3D%22%26lt%3Bspan%20style%3D%26quot%3Bcolor%3A%20rgba(0%2C%200%2C%200%2C%200)%3B%20font-family%3A%20monospace%3B%20font-size%3A%200px%3B%20text-align%3A%20start%3B%20background-color%3A%20rgb(27%2C%2029%2C%2030)%3B%26quot%3B%26gt%3B%253CmxGraphModel%253E%253Croot%253E%253CmxCell%2520id%253D%25220%2522%252F%253E%253CmxCell%2520id%253D%25221%2522%2520parent%253D%25220%2522%252F%253E%253CmxCell%2520id%253D%25222%2522%2520value%253D%2522Module%2526lt%253Bdiv%2526gt%253BAgent%2526lt%253B%252Fdiv%2526gt%253B%2522%2520style%253D%2522shape%253DumlLifeline%253Bperimeter%253DlifelinePerimeter%253BwhiteSpace%253Dwrap%253Bhtml%253D1%253Bcontainer%253D0%253BdropTarget%253D0%253Bcollapsible%253D0%253BrecursiveResize%253D0%253BoutlineConnect%253D0%253BportConstraint%253Deastwest%253BnewEdgeStyle%253D%257B%2526quot%253BedgeStyle%2526quot%253B%253A%2526quot%253BelbowEdgeStyle%2526quot%253B%252C%2526quot%253Belbow%2526quot%253B%253A%2526quot%253Bvertical%2526quot%253B%252C%2526quot%253Bcurved%2526quot%253B%253A0%252C%2526quot%253Brounded%2526quot%253B%253A0%257D%253B%2522%2520vertex%253D%25221%2522%2520parent%253D%25221%2522%253E%253CmxGeometry%2520x%253D%2522220%2522%2520y%253D%252240%2522%2520width%253D%2522100%2522%2520height%253D%2522240%2522%2520as%253D%2522geometry%2522%252F%253E%253C%252FmxCell%253E%253CmxCell%2520id%253D%25223%2522%2520value%253D%2522%2522%2520style%253D%2522html%253D1%253Bpoints%253D%255B%255D%253Bperimeter%253DorthogonalPerimeter%253BoutlineConnect%253D0%253BtargetShapes%253DumlLifeline%253BportConstraint%253Deastwest%253BnewEdgeStyle%253D%257B%2526quot%253BedgeStyle%2526quot%253B%253A%2526quot%253BelbowEdgeStyle%2526quot%253B%252C%2526quot%253Belbow%2526quot%253B%253A%2526quot%253Bvertical%2526quot%253B%252C%2526quot%253Bcurved%2526quot%253B%253A0%252C%2526quot%253Brounded%2526quot%253B%253A0%257D%253B%2522%2520vertex%253D%25221%2522%2520parent%253D%25222%2522%253E%253CmxGeometry%2520x%253D%252245%2522%2520y%253D%252280%2522%2520width%253D%252210%2522%2520height%253D%2522110%2522%2520as%253D%2522geometry%2522%252F%253E%253C%252FmxCell%253E%253C%252Froot%253E%253C%252FmxGraphModel%253E%26lt%3B%2Fspan%26gt%3B%22%20style%3D%22endArrow%3Dblock%3Bhtml%3D1%3Brounded%3D0%3BendFill%3D1%3B%22%20edge%3D%221%22%20parent%3D%221%22%3E%3CmxGeometry%20width%3D%2250%22%20height%3D%2250%22%20relative%3D%221%22%20as%3D%22geometry%22%3E%3CmxPoint%20x%3D%22525%22%20y%3D%22220%22%20as%3D%22sourcePoint%22%2F%3E%3CmxPoint%20x%3D%22410%22%20y%3D%22220%22%20as%3D%22targetPoint%22%2F%3E%3CArray%20as%3D%22points%22%3E%3CmxPoint%20x%3D%22470%22%20y%3D%22220%22%2F%3E%3C%2FArray%3E%3C%2FmxGeometry%3E%3C%2FmxCell%3E%3CmxCell%20id%3D%223%22%20value%3D%22Skill%20Result%22%20style%3D%22edgeLabel%3Bhtml%3D1%3Balign%3Dcenter%3BverticalAlign%3Dmiddle%3Bresizable%3D0%3Bpoints%3D%5B%5D%3BlabelBackgroundColor%3Dnone%3B%22%20vertex%3D%221%22%20connectable%3D%220%22%20parent%3D%222%22%3E%3CmxGeometry%20x%3D%220.1879%22%20relative%3D%221%22%20as%3D%22geometry%22%3E%3CmxPoint%20x%3D%2213%22%20y%3D%22-10%22%20as%3D%22offset%22%2F%3E%3C%2FmxGeometry%3E%3C%2FmxCell%3E%3C%2Froot%3E%3C%2FmxGraphModel%3E&lt;/span&gt;&lt;span style=&quot;color: rgba(0, 0, 0, 0); font-family: monospace; font-size: 0px; text-align: start;&quot;&gt;%3CmxGraphModel%3E%3Croot%3E%3CmxCell%20id%3D%220%22%2F%3E%3CmxCell%20id%3D%221%22%20parent%3D%220%22%2F%3E%3CmxCell%20id%3D%222%22%20value%3D%22%26lt%3Bspan%20style%3D%26quot%3Bcolor%3A%20rgba(0%2C%200%2C%200%2C%200)%3B%20font-family%3A%20monospace%3B%20font-size%3A%200px%3B%20text-align%3A%20start%3B%20background-color%3A%20rgb(27%2C%2029%2C%2030)%3B%26quot%3B%26gt%3B%253CmxGraphModel%253E%253Croot%253E%253CmxCell%2520id%253D%25220%2522%252F%253E%253CmxCell%2520id%253D%25221%2522%2520parent%253D%25220%2522%252F%253E%253CmxCell%2520id%253D%25222%2522%2520value%253D%2522Module%2526lt%253Bdiv%2526gt%253BAgent%2526lt%253B%252Fdiv%2526gt%253B%2522%2520style%253D%2522shape%253DumlLifeline%253Bperimeter%253DlifelinePerimeter%253BwhiteSpace%253Dwrap%253Bhtml%253D1%253Bcontainer%253D0%253BdropTarget%253D0%253Bcollapsible%253D0%253BrecursiveResize%253D0%253BoutlineConnect%253D0%253BportConstraint%253Deastwest%253BnewEdgeStyle%253D%257B%2526quot%253BedgeStyle%2526quot%253B%253A%2526quot%253BelbowEdgeStyle%2526quot%253B%252C%2526quot%253Belbow%2526quot%253B%253A%2526quot%253Bvertical%2526quot%253B%252C%2526quot%253Bcurved%2526quot%253B%253A0%252C%2526quot%253Brounded%2526quot%253B%253A0%257D%253B%2522%2520vertex%253D%25221%2522%2520parent%253D%25221%2522%253E%253CmxGeometry%2520x%253D%2522220%2522%2520y%253D%252240%2522%2520width%253D%2522100%2522%2520height%253D%2522240%2522%2520as%253D%2522geometry%2522%252F%253E%253C%252FmxCell%253E%253CmxCell%2520id%253D%25223%2522%2520value%253D%2522%2522%2520style%253D%2522html%253D1%253Bpoints%253D%255B%255D%253Bperimeter%253DorthogonalPerimeter%253BoutlineConnect%253D0%253BtargetShapes%253DumlLifeline%253BportConstraint%253Deastwest%253BnewEdgeStyle%253D%257B%2526quot%253BedgeStyle%2526quot%253B%253A%2526quot%253BelbowEdgeStyle%2526quot%253B%252C%2526quot%253Belbow%2526quot%253B%253A%2526quot%253Bvertical%2526quot%253B%252C%2526quot%253Bcurved%2526quot%253B%253A0%252C%2526quot%253Brounded%2526quot%253B%253A0%257D%253B%2522%2520vertex%253D%25221%2522%2520parent%253D%25222%2522%253E%253CmxGeometry%2520x%253D%252245%2522%2520y%253D%252280%2522%2520width%253D%252210%2522%2520height%253D%2522110%2522%2520as%253D%2522geometry%2522%252F%253E%253C%252FmxCell%253E%253C%252Froot%253E%253C%252FmxGraphModel%253E%26lt%3B%2Fspan%26gt%3B%22%20style%3D%22endArrow%3Dblock%3Bhtml%3D1%3Brounded%3D0%3BendFill%3D1%3B%22%20edge%3D%221%22%20parent%3D%221%22%3E%3CmxGeometry%20width%3D%2250%22%20height%3D%2250%22%20relative%3D%221%22%20as%3D%22geometry%22%3E%3CmxPoint%20x%3D%22525%22%20y%3D%22220%22%20as%3D%22sourcePoint%22%2F%3E%3CmxPoint%20x%3D%22410%22%20y%3D%22220%22%20as%3D%22targetPoint%22%2F%3E%3CArray%20as%3D%22points%22%3E%3CmxPoint%20x%3D%22470%22%20y%3D%22220%22%2F%3E%3C%2FArray%3E%3C%2FmxGeometry%3E%3C%2FmxCell%3E%3CmxCell%20id%3D%223%22%20value%3D%22Skill%20Result%22%20style%3D%22edgeLabel%3Bhtml%3D1%3Balign%3Dcenter%3BverticalAlign%3Dmiddle%3Bresizable%3D0%3Bpoints%3D%5B%5D%3BlabelBackgroundColor%3Dnone%3B%22%20vertex%3D%221%22%20connectable%3D%220%22%20parent%3D%222%22%3E%3CmxGeometry%20x%3D%220.1879%22%20relative%3D%221%22%20as%3D%22geometry%22%3E%3CmxPoint%20x%3D%2213%22%20y%3D%22-10%22%20as%3D%22offset%22%2F%3E%3C%2FmxGeometry%3E%3C%2FmxCell%3E%3C%2Froot%3E%3C%2FmxGraphModel%3E&lt;/span&gt;&lt;span style=&quot;color: rgba(0, 0, 0, 0); font-family: monospace; font-size: 0px; text-align: start;&quot;&gt;%3CmxGraphModel%3E%3Croot%3E%3CmxCell%20id%3D%220%22%2F%3E%3CmxCell%20id%3D%221%22%20parent%3D%220%22%2F%3E%3CmxCell%20id%3D%222%22%20value%3D%22%26lt%3Bspan%20style%3D%26quot%3Bcolor%3A%20rgba(0%2C%200%2C%200%2C%200)%3B%20font-family%3A%20monospace%3B%20font-size%3A%200px%3B%20text-align%3A%20start%3B%20background-color%3A%20rgb(27%2C%2029%2C%2030)%3B%26quot%3B%26gt%3B%253CmxGraphModel%253E%253Croot%253E%253CmxCell%2520id%253D%25220%2522%252F%253E%253CmxCell%2520id%253D%25221%2522%2520parent%253D%25220%2522%252F%253E%253CmxCell%2520id%253D%25222%2522%2520value%253D%2522Module%2526lt%253Bdiv%2526gt%253BAgent%2526lt%253B%252Fdiv%2526gt%253B%2522%2520style%253D%2522shape%253DumlLifeline%253Bperimeter%253DlifelinePerimeter%253BwhiteSpace%253Dwrap%253Bhtml%253D1%253Bcontainer%253D0%253BdropTarget%253D0%253Bcollapsible%253D0%253BrecursiveResize%253D0%253BoutlineConnect%253D0%253BportConstraint%253Deastwest%253BnewEdgeStyle%253D%257B%2526quot%253BedgeStyle%2526quot%253B%253A%2526quot%253BelbowEdgeStyle%2526quot%253B%252C%2526quot%253Belbow%2526quot%253B%253A%2526quot%253Bvertical%2526quot%253B%252C%2526quot%253Bcurved%2526quot%253B%253A0%252C%2526quot%253Brounded%2526quot%253B%253A0%257D%253B%2522%2520vertex%253D%25221%2522%2520parent%253D%25221%2522%253E%253CmxGeometry%2520x%253D%2522220%2522%2520y%253D%252240%2522%2520width%253D%2522100%2522%2520height%253D%2522240%2522%2520as%253D%2522geometry%2522%252F%253E%253C%252FmxCell%253E%253CmxCell%2520id%253D%25223%2522%2520value%253D%2522%2522%2520style%253D%2522html%253D1%253Bpoints%253D%255B%255D%253Bperimeter%253DorthogonalPerimeter%253BoutlineConnect%253D0%253BtargetShapes%253DumlLifeline%253BportConstraint%253Deastwest%253BnewEdgeStyle%253D%257B%2526quot%253BedgeStyle%2526quot%253B%253A%2526quot%253BelbowEdgeStyle%2526quot%253B%252C%2526quot%253Belbow%2526quot%253B%253A%2526quot%253Bvertical%2526quot%253B%252C%2526quot%253Bcurved%2526quot%253B%253A0%252C%2526quot%253Brounded%2526quot%253B%253A0%257D%253B%2522%2520vertex%253D%25221%2522%2520parent%253D%25222%2522%253E%253CmxGeometry%2520x%253D%252245%2522%2520y%253D%252280%2522%2520width%253D%252210%2522%2520height%253D%2522110%2522%2520as%253D%2522geometry%2522%252F%253E%253C%252FmxCell%253E%253C%252Froot%253E%253C%252FmxGraphModel%253E%26lt%3B%2Fspan%26gt%3B%22%20style%3D%22endArrow%3Dblock%3Bhtml%3D1%3Brounded%3D0%3BendFill%3D1%3B%22%20edge%3D%221%22%20parent%3D%221%22%3E%3CmxGeometry%20width%3D%2250%22%20height%3D%2250%22%20relative%3D%221%22%20as%3D%22geometry%22%3E%3CmxPoint%20x%3D%22525%22%20y%3D%22220%22%20as%3D%22sourcePoint%22%2F%3E%3CmxPoint%20x%3D%22410%22%20y%3D%22220%22%20as%3D%22targetPoint%22%2F%3E%3CArray%20as%3D%22points%22%3E%3CmxPoint%20x%3D%22470%22%20y%3D%22220%22%2F%3E%3C%2FArray%3E%3C%2FmxGeometry%3E%3C%2FmxCell%3E%3CmxCell%20id%3D%223%22%20value%3D%22Skill%20Result%22%20style%3D%22edgeLabel%3Bhtml%3D1%3Balign%3Dcenter%3BverticalAlign%3Dmiddle%3Bresizable%3D0%3Bpoints%3D%5B%5D%3BlabelBackgroundColor%3Dnone%3B%22%20vertex%3D%221%22%20connectable%3D%220%22%20parent%3D%222%22%3E%3CmxGeometry%20x%3D%220.1879%22%20relative%3D%221%22%20as%3D%22geometry%22%3E%3CmxPoint%20x%3D%2213%22%20y%3D%22-10%22%20as%3D%22offset%22%2F%3E%3C%2FmxGeometry%3E%3C%2FmxCell%3E%3C%2Froot%3E%3C%2FmxGraphModel%3E&lt;/span&gt;&lt;span style=&quot;color: rgba(0, 0, 0, 0); font-family: monospace; font-size: 0px; text-align: start;&quot;&gt;%3CmxGraphModel%3E%3Croot%3E%3CmxCell%20id%3D%220%22%2F%3E%3CmxCell%20id%3D%221%22%20parent%3D%220%22%2F%3E%3CmxCell%20id%3D%222%22%20value%3D%22%26lt%3Bspan%20style%3D%26quot%3Bcolor%3A%20rgba(0%2C%200%2C%200%2C%200)%3B%20font-family%3A%20monospace%3B%20font-size%3A%200px%3B%20text-align%3A%20start%3B%20background-color%3A%20rgb(27%2C%2029%2C%2030)%3B%26quot%3B%26gt%3B%253CmxGraphModel%253E%253Croot%253E%253CmxCell%2520id%253D%25220%2522%252F%253E%253CmxCell%2520id%253D%25221%2522%2520parent%253D%25220%2522%252F%253E%253CmxCell%2520id%253D%25222%2522%2520value%253D%2522Module%2526lt%253Bdiv%2526gt%253BAgent%2526lt%253B%252Fdiv%2526gt%253B%2522%2520style%253D%2522shape%253DumlLifeline%253Bperimeter%253DlifelinePerimeter%253BwhiteSpace%253Dwrap%253Bhtml%253D1%253Bcontainer%253D0%253BdropTarget%253D0%253Bcollapsible%253D0%253BrecursiveResize%253D0%253BoutlineConnect%253D0%253BportConstraint%253Deastwest%253BnewEdgeStyle%253D%257B%2526quot%253BedgeStyle%2526quot%253B%253A%2526quot%253BelbowEdgeStyle%2526quot%253B%252C%2526quot%253Belbow%2526quot%253B%253A%2526quot%253Bvertical%2526quot%253B%252C%2526quot%253Bcurved%2526quot%253B%253A0%252C%2526quot%253Brounded%2526quot%253B%253A0%257D%253B%2522%2520vertex%253D%25221%2522%2520parent%253D%25221%2522%253E%253CmxGeometry%2520x%253D%2522220%2522%2520y%253D%252240%2522%2520width%253D%2522100%2522%2520height%253D%2522240%2522%2520as%253D%2522geometry%2522%252F%253E%253C%252FmxCell%253E%253CmxCell%2520id%253D%25223%2522%2520value%253D%2522%2522%2520style%253D%2522html%253D1%253Bpoints%253D%255B%255D%253Bperimeter%253DorthogonalPerimeter%253BoutlineConnect%253D0%253BtargetShapes%253DumlLifeline%253BportConstraint%253Deastwest%253BnewEdgeStyle%253D%257B%2526quot%253BedgeStyle%2526quot%253B%253A%2526quot%253BelbowEdgeStyle%2526quot%253B%252C%2526quot%253Belbow%2526quot%253B%253A%2526quot%253Bvertical%2526quot%253B%252C%2526quot%253Bcurved%2526quot%253B%253A0%252C%2526quot%253Brounded%2526quot%253B%253A0%257D%253B%2522%2520vertex%253D%25221%2522%2520parent%253D%25222%2522%253E%253CmxGeometry%2520x%253D%252245%2522%2520y%253D%252280%2522%2520width%253D%252210%2522%2520height%253D%2522110%2522%2520as%253D%2522geometry%2522%252F%253E%253C%252FmxCell%253E%253C%252Froot%253E%253C%252FmxGraphModel%253E%26lt%3B%2Fspan%26gt%3B%22%20style%3D%22endArrow%3Dblock%3Bhtml%3D1%3Brounded%3D0%3BendFill%3D1%3B%22%20edge%3D%221%22%20parent%3D%221%22%3E%3CmxGeometry%20width%3D%2250%22%20height%3D%2250%22%20relative%3D%221%22%20as%3D%22geometry%22%3E%3CmxPoint%20x%3D%22525%22%20y%3D%22220%22%20as%3D%22sourcePoint%22%2F%3E%3CmxPoint%20x%3D%22410%22%20y%3D%22220%22%20as%3D%22targetPoint%22%2F%3E%3CArray%20as%3D%22points%22%3E%3CmxPoint%20x%3D%22470%22%20y%3D%22220%22%2F%3E%3C%2FArray%3E%3C%2FmxGeometry%3E%3C%2FmxCell%3E%3CmxCell%20id%3D%223%22%20value%3D%22Skill%20Result%22%20style%3D%22edgeLabel%3Bhtml%3D1%3Balign%3Dcenter%3BverticalAlign%3Dmiddle%3Bresizable%3D0%3Bpoints%3D%5B%5D%3BlabelBackgroundColor%3Dnone%3B%22%20vertex%3D%221%22%20connectable%3D%220%22%20parent%3D%222%22%3E%3CmxGeometry%20x%3D%220.1879%22%20relative%3D%221%22%20as%3D%22geometry%22%3E%3CmxPoint%20x%3D%2213%22%20y%3D%22-10%22%20as%3D%22offset%22%2F%3E%3C%2FmxGeometry%3E%3C%2FmxCell%3E%3C%2Froot%3E%3C%2FmxGraphModel%3E&lt;/span&gt;&lt;span style=&quot;color: rgba(0, 0, 0, 0); font-family: monospace; font-size: 0px; text-align: start;&quot;&gt;%3CmxGraphModel%3E%3Croot%3E%3CmxCell%20id%3D%220%22%2F%3E%3CmxCell%20id%3D%221%22%20parent%3D%220%22%2F%3E%3CmxCell%20id%3D%222%22%20value%3D%22%26lt%3Bspan%20style%3D%26quot%3Bcolor%3A%20rgba(0%2C%200%2C%200%2C%200)%3B%20font-family%3A%20monospace%3B%20font-size%3A%200px%3B%20text-align%3A%20start%3B%20background-color%3A%20rgb(27%2C%2029%2C%2030)%3B%26quot%3B%26gt%3B%253CmxGraphModel%253E%253Croot%253E%253CmxCell%2520id%253D%25220%2522%252F%253E%253CmxCell%2520id%253D%25221%2522%2520parent%253D%25220%2522%252F%253E%253CmxCell%2520id%253D%25222%2522%2520value%253D%2522Module%2526lt%253Bdiv%2526gt%253BAgent%2526lt%253B%252Fdiv%2526gt%253B%2522%2520style%253D%2522shape%253DumlLifeline%253Bperimeter%253DlifelinePerimeter%253BwhiteSpace%253Dwrap%253Bhtml%253D1%253Bcontainer%253D0%253BdropTarget%253D0%253Bcollapsible%253D0%253BrecursiveResize%253D0%253BoutlineConnect%253D0%253BportConstraint%253Deastwest%253BnewEdgeStyle%253D%257B%2526quot%253BedgeStyle%2526quot%253B%253A%2526quot%253BelbowEdgeStyle%2526quot%253B%252C%2526quot%253Belbow%2526quot%253B%253A%2526quot%253Bvertical%2526quot%253B%252C%2526quot%253Bcurved%2526quot%253B%253A0%252C%2526quot%253Brounded%2526quot%253B%253A0%257D%253B%2522%2520vertex%253D%25221%2522%2520parent%253D%25221%2522%253E%253CmxGeometry%2520x%253D%2522220%2522%2520y%253D%252240%2522%2520width%253D%2522100%2522%2520height%253D%2522240%2522%2520as%253D%2522geometry%2522%252F%253E%253C%252FmxCell%253E%253CmxCell%2520id%253D%25223%2522%2520value%253D%2522%2522%2520style%253D%2522html%253D1%253Bpoints%253D%255B%255D%253Bperimeter%253DorthogonalPerimeter%253BoutlineConnect%253D0%253BtargetShapes%253DumlLifeline%253BportConstraint%253Deastwest%253BnewEdgeStyle%253D%257B%2526quot%253BedgeStyle%2526quot%253B%253A%2526quot%253BelbowEdgeStyle%2526quot%253B%252C%2526quot%253Belbow%2526quot%253B%253A%2526quot%253Bvertical%2526quot%253B%252C%2526quot%253Bcurved%2526quot%253B%253A0%252C%2526quot%253Brounded%2526quot%253B%253A0%257D%253B%2522%2520vertex%253D%25221%2522%2520parent%253D%25222%2522%253E%253CmxGeometry%2520x%253D%252245%2522%2520y%253D%252280%2522%2520width%253D%252210%2522%2520height%253D%2522110%2522%2520as%253D%2522geometry%2522%252F%253E%253C%252FmxCell%253E%253C%252Froot%253E%253C%252FmxGraphModel%253E%26lt%3B%2Fspan%26gt%3B%22%20style%3D%22endArrow%3Dblock%3Bhtml%3D1%3Brounded%3D0%3BendFill%3D1%3B%22%20edge%3D%221%22%20parent%3D%221%22%3E%3CmxGeometry%20width%3D%2250%22%20height%3D%2250%22%20relative%3D%221%22%20as%3D%22geometry%22%3E%3CmxPoint%20x%3D%22525%22%20y%3D%22220%22%20as%3D%22sourcePoint%22%2F%3E%3CmxPoint%20x%3D%22410%22%20y%3D%22220%22%20as%3D%22targetPoint%22%2F%3E%3CArray%20as%3D%22points%22%3E%3CmxPoint%20x%3D%22470%22%20y%3D%22220%22%2F%3E%3C%2FArray%3E%3C%2FmxGeometry%3E%3C%2FmxCell%3E%3CmxCell%20id%3D%223%22%20value%3D%22Skill%20Result%22%20style%3D%22edgeLabel%3Bhtml%3D1%3Balign%3Dcenter%3BverticalAlign%3Dmiddle%3Bresizable%3D0%3Bpoints%3D%5B%5D%3BlabelBackgroundColor%3Dnone%3B%22%20vertex%3D%221%22%20connectable%3D%220%22%20parent%3D%222%22%3E%3CmxGeometry%20x%3D%220.1879%22%20relative%3D%221%22%20as%3D%22geometry%22%3E%3CmxPoint%20x%3D%2213%22%20y%3D%22-10%22%20as%3D%22offset%22%2F%3E%3C%2FmxGeometry%3E%3C%2FmxCell%3E%3C%2Froot%3E%3C%2FmxGraphModel%3E&lt;/span&gt;&lt;span style=&quot;color: rgba(0, 0, 0, 0); font-family: monospace; font-size: 0px; text-align: start;&quot;&gt;%3CmxGraphModel%3E%3Croot%3E%3CmxCell%20id%3D%220%22%2F%3E%3CmxCell%20id%3D%221%22%20parent%3D%220%22%2F%3E%3CmxCell%20id%3D%222%22%20value%3D%22%26lt%3Bspan%20style%3D%26quot%3Bcolor%3A%20rgba(0%2C%200%2C%200%2C%200)%3B%20font-family%3A%20monospace%3B%20font-size%3A%200px%3B%20text-align%3A%20start%3B%20background-color%3A%20rgb(27%2C%2029%2C%2030)%3B%26quot%3B%26gt%3B%253CmxGraphModel%253E%253Croot%253E%253CmxCell%2520id%253D%25220%2522%252F%253E%253CmxCell%2520id%253D%25221%2522%2520parent%253D%25220%2522%252F%253E%253CmxCell%2520id%253D%25222%2522%2520value%253D%2522Module%2526lt%253Bdiv%2526gt%253BAgent%2526lt%253B%252Fdiv%2526gt%253B%2522%2520style%253D%2522shape%253DumlLifeline%253Bperimeter%253DlifelinePerimeter%253BwhiteSpace%253Dwrap%253Bhtml%253D1%253Bcontainer%253D0%253BdropTarget%253D0%253Bcollapsible%253D0%253BrecursiveResize%253D0%253BoutlineConnect%253D0%253BportConstraint%253Deastwest%253BnewEdgeStyle%253D%257B%2526quot%253BedgeStyle%2526quot%253B%253A%2526quot%253BelbowEdgeStyle%2526quot%253B%252C%2526quot%253Belbow%2526quot%253B%253A%2526quot%253Bvertical%2526quot%253B%252C%2526quot%253Bcurved%2526quot%253B%253A0%252C%2526quot%253Brounded%2526quot%253B%253A0%257D%253B%2522%2520vertex%253D%25221%2522%2520parent%253D%25221%2522%253E%253CmxGeometry%2520x%253D%2522220%2522%2520y%253D%252240%2522%2520width%253D%2522100%2522%2520height%253D%2522240%2522%2520as%253D%2522geometry%2522%252F%253E%253C%252FmxCell%253E%253CmxCell%2520id%253D%25223%2522%2520value%253D%2522%2522%2520style%253D%2522html%253D1%253Bpoints%253D%255B%255D%253Bperimeter%253DorthogonalPerimeter%253BoutlineConnect%253D0%253BtargetShapes%253DumlLifeline%253BportConstraint%253Deastwest%253BnewEdgeStyle%253D%257B%2526quot%253BedgeStyle%2526quot%253B%253A%2526quot%253BelbowEdgeStyle%2526quot%253B%252C%2526quot%253Belbow%2526quot%253B%253A%2526quot%253Bvertical%2526quot%253B%252C%2526quot%253Bcurved%2526quot%253B%253A0%252C%2526quot%253Brounded%2526quot%253B%253A0%257D%253B%2522%2520vertex%253D%25221%2522%2520parent%253D%25222%2522%253E%253CmxGeometry%2520x%253D%252245%2522%2520y%253D%252280%2522%2520width%253D%252210%2522%2520height%253D%2522110%2522%2520as%253D%2522geometry%2522%252F%253E%253C%252FmxCell%253E%253C%252Froot%253E%253C%252FmxGraphModel%253E%26lt%3B%2Fspan%26gt%3B%22%20style%3D%22endArrow%3Dblock%3Bhtml%3D1%3Brounded%3D0%3BendFill%3D1%3B%22%20edge%3D%221%22%20parent%3D%221%22%3E%3CmxGeometry%20width%3D%2250%22%20height%3D%2250%22%20relative%3D%221%22%20as%3D%22geometry%22%3E%3CmxPoint%20x%3D%22525%22%20y%3D%22220%22%20as%3D%22sourcePoint%22%2F%3E%3CmxPoint%20x%3D%22410%22%20y%3D%22220%22%20as%3D%22targetPoint%22%2F%3E%3CArray%20as%3D%22points%22%3E%3CmxPoint%20x%3D%22470%22%20y%3D%22220%22%2F%3E%3C%2FArray%3E%3C%2FmxGeometry%3E%3C%2FmxCell%3E%3CmxCell%20id%3D%223%22%20value%3D%22Skill%20Result%22%20style%3D%22edgeLabel%3Bhtml%3D1%3Balign%3Dcenter%3BverticalAlign%3Dmiddle%3Bresizable%3D0%3Bpoints%3D%5B%5D%3BlabelBackgroundColor%3Dnone%3B%22%20vertex%3D%221%22%20connectable%3D%220%22%20parent%3D%222%22%3E%3CmxGeometry%20x%3D%220.1879%22%20relative%3D%221%22%20as%3D%22geometry%22%3E%3CmxPoint%20x%3D%2213%22%20y%3D%22-10%22%20as%3D%22offset%22%2F%3E%3C%2FmxGeometry%3E%3C%2FmxCell%3E%3C%2Froot%3E%3C%2FmxGraphModel%3E&lt;/span&gt;&lt;span style=&quot;color: rgba(0, 0, 0, 0); font-family: monospace; font-size: 0px; text-align: start;&quot;&gt;%3CmxGraphModel%3E%3Croot%3E%3CmxCell%20id%3D%220%22%2F%3E%3CmxCell%20id%3D%221%22%20parent%3D%220%22%2F%3E%3CmxCell%20id%3D%222%22%20value%3D%22%26lt%3Bspan%20style%3D%26quot%3Bcolor%3A%20rgba(0%2C%200%2C%200%2C%200)%3B%20font-family%3A%20monospace%3B%20font-size%3A%200px%3B%20text-align%3A%20start%3B%20background-color%3A%20rgb(27%2C%2029%2C%2030)%3B%26quot%3B%26gt%3B%253CmxGraphModel%253E%253Croot%253E%253CmxCell%2520id%253D%25220%2522%252F%253E%253CmxCell%2520id%253D%25221%2522%2520parent%253D%25220%2522%252F%253E%253CmxCell%2520id%253D%25222%2522%2520value%253D%2522Module%2526lt%253Bdiv%2526gt%253BAgent%2526lt%253B%252Fdiv%2526gt%253B%2522%2520style%253D%2522shape%253DumlLifeline%253Bperimeter%253DlifelinePerimeter%253BwhiteSpace%253Dwrap%253Bhtml%253D1%253Bcontainer%253D0%253BdropTarget%253D0%253Bcollapsible%253D0%253BrecursiveResize%253D0%253BoutlineConnect%253D0%253BportConstraint%253Deastwest%253BnewEdgeStyle%253D%257B%2526quot%253BedgeStyle%2526quot%253B%253A%2526quot%253BelbowEdgeStyle%2526quot%253B%252C%2526quot%253Belbow%2526quot%253B%253A%2526quot%253Bvertical%2526quot%253B%252C%2526quot%253Bcurved%2526quot%253B%253A0%252C%2526quot%253Brounded%2526quot%253B%253A0%257D%253B%2522%2520vertex%253D%25221%2522%2520parent%253D%25221%2522%253E%253CmxGeometry%2520x%253D%2522220%2522%2520y%253D%252240%2522%2520width%253D%2522100%2522%2520height%253D%2522240%2522%2520as%253D%2522geometry%2522%252F%253E%253C%252FmxCell%253E%253CmxCell%2520id%253D%25223%2522%2520value%253D%2522%2522%2520style%253D%2522html%253D1%253Bpoints%253D%255B%255D%253Bperimeter%253DorthogonalPerimeter%253BoutlineConnect%253D0%253BtargetShapes%253DumlLifeline%253BportConstraint%253Deastwest%253BnewEdgeStyle%253D%257B%2526quot%253BedgeStyle%2526quot%253B%253A%2526quot%253BelbowEdgeStyle%2526quot%253B%252C%2526quot%253Belbow%2526quot%253B%253A%2526quot%253Bvertical%2526quot%253B%252C%2526quot%253Bcurved%2526quot%253B%253A0%252C%2526quot%253Brounded%2526quot%253B%253A0%257D%253B%2522%2520vertex%253D%25221%2522%2520parent%253D%25222%2522%253E%253CmxGeometry%2520x%253D%252245%2522%2520y%253D%252280%2522%2520width%253D%252210%2522%2520height%253D%2522110%2522%2520as%253D%2522geometry%2522%252F%253E%253C%252FmxCell%253E%253C%252Froot%253E%253C%252FmxGraphModel%253E%26lt%3B%2Fspan%26gt%3B%22%20style%3D%22endArrow%3Dblock%3Bhtml%3D1%3Brounded%3D0%3BendFill%3D1%3B%22%20edge%3D%221%22%20parent%3D%221%22%3E%3CmxGeometry%20width%3D%2250%22%20height%3D%2250%22%20relative%3D%221%22%20as%3D%22geometry%22%3E%3CmxPoint%20x%3D%22525%22%20y%3D%22220%22%20as%3D%22sourcePoint%22%2F%3E%3CmxPoint%20x%3D%22410%22%20y%3D%22220%22%20as%3D%22targetPoint%22%2F%3E%3CArray%20as%3D%22points%22%3E%3CmxPoint%20x%3D%22470%22%20y%3D%22220%22%2F%3E%3C%2FArray%3E%3C%2FmxGeometry%3E%3C%2FmxCell%3E%3CmxCell%20id%3D%223%22%20value%3D%22Skill%20Result%22%20style%3D%22edgeLabel%3Bhtml%3D1%3Balign%3Dcenter%3BverticalAlign%3Dmiddle%3Bresizable%3D0%3Bpoints%3D%5B%5D%3BlabelBackgroundColor%3Dnone%3B%22%20vertex%3D%221%22%20connectable%3D%220%22%20parent%3D%222%22%3E%3CmxGeometry%20x%3D%220.1879%22%20relative%3D%221%22%20as%3D%22geometry%22%3E%3CmxPoint%20x%3D%2213%22%20y%3D%22-10%22%20as%3D%22offset%22%2F%3E%3C%2FmxGeometry%3E%3C%2FmxCell%3E%3C%2Froot%3E%3C%2FmxGraphModel%3E&lt;/span&gt;&lt;span style=&quot;color: rgba(0, 0, 0, 0); font-family: monospace; font-size: 0px; text-align: start;&quot;&gt;%3CmxGraphModel%3E%3Croot%3E%3CmxCell%20id%3D%220%22%2F%3E%3CmxCell%20id%3D%221%22%20parent%3D%220%22%2F%3E%3CmxCell%20id%3D%222%22%20value%3D%22%26lt%3Bspan%20style%3D%26quot%3Bcolor%3A%20rgba(0%2C%200%2C%200%2C%200)%3B%20font-family%3A%20monospace%3B%20font-size%3A%200px%3B%20text-align%3A%20start%3B%20background-color%3A%20rgb(27%2C%2029%2C%2030)%3B%26quot%3B%26gt%3B%253CmxGraphModel%253E%253Croot%253E%253CmxCell%2520id%253D%25220%2522%252F%253E%253CmxCell%2520id%253D%25221%2522%2520parent%253D%25220%2522%252F%253E%253CmxCell%2520id%253D%25222%2522%2520value%253D%2522Module%2526lt%253Bdiv%2526gt%253BAgent%2526lt%253B%252Fdiv%2526gt%253B%2522%2520style%253D%2522shape%253DumlLifeline%253Bperimeter%253DlifelinePerimeter%253BwhiteSpace%253Dwrap%253Bhtml%253D1%253Bcontainer%253D0%253BdropTarget%253D0%253Bcollapsible%253D0%253BrecursiveResize%253D0%253BoutlineConnect%253D0%253BportConstraint%253Deastwest%253BnewEdgeStyle%253D%257B%2526quot%253BedgeStyle%2526quot%253B%253A%2526quot%253BelbowEdgeStyle%2526quot%253B%252C%2526quot%253Belbow%2526quot%253B%253A%2526quot%253Bvertical%2526quot%253B%252C%2526quot%253Bcurved%2526quot%253B%253A0%252C%2526quot%253Brounded%2526quot%253B%253A0%257D%253B%2522%2520vertex%253D%25221%2522%2520parent%253D%25221%2522%253E%253CmxGeometry%2520x%253D%2522220%2522%2520y%253D%252240%2522%2520width%253D%2522100%2522%2520height%253D%2522240%2522%2520as%253D%2522geometry%2522%252F%253E%253C%252FmxCell%253E%253CmxCell%2520id%253D%25223%2522%2520value%253D%2522%2522%2520style%253D%2522html%253D1%253Bpoints%253D%255B%255D%253Bperimeter%253DorthogonalPerimeter%253BoutlineConnect%253D0%253BtargetShapes%253DumlLifeline%253BportConstraint%253Deastwest%253BnewEdgeStyle%253D%257B%2526quot%253BedgeStyle%2526quot%253B%253A%2526quot%253BelbowEdgeStyle%2526quot%253B%252C%2526quot%253Belbow%2526quot%253B%253A%2526quot%253Bvertical%2526quot%253B%252C%2526quot%253Bcurved%2526quot%253B%253A0%252C%2526quot%253Brounded%2526quot%253B%253A0%257D%253B%2522%2520vertex%253D%25221%2522%2520parent%253D%25222%2522%253E%253CmxGeometry%2520x%253D%252245%2522%2520y%253D%252280%2522%2520width%253D%252210%2522%2520height%253D%2522110%2522%2520as%253D%2522geometry%2522%252F%253E%253C%252FmxCell%253E%253C%252Froot%253E%253C%252FmxGraphModel%253E%26lt%3B%2Fspan%26gt%3B%22%20style%3D%22endArrow%3Dblock%3Bhtml%3D1%3Brounded%3D0%3BendFill%3D1%3B%22%20edge%3D%221%22%20parent%3D%221%22%3E%3CmxGeometry%20width%3D%2250%22%20height%3D%2250%22%20relative%3D%221%22%20as%3D%22geometry%22%3E%3CmxPoint%20x%3D%22525%22%20y%3D%22220%22%20as%3D%22sourcePoint%22%2F%3E%3CmxPoint%20x%3D%22410%22%20y%3D%22220%22%20as%3D%22targetPoint%22%2F%3E%3CArray%20as%3D%22points%22%3E%3CmxPoint%20x%3D%22470%22%20y%3D%22220%22%2F%3E%3C%2FArray%3E%3C%2FmxGeometry%3E%3C%2FmxCell%3E%3CmxCell%20id%3D%223%22%20value%3D%22Skill%20Result%22%20style%3D%22edgeLabel%3Bhtml%3D1%3Balign%3Dcenter%3BverticalAlign%3Dmiddle%3Bresizable%3D0%3Bpoints%3D%5B%5D%3BlabelBackgroundColor%3Dnone%3B%22%20vertex%3D%221%22%20connectable%3D%220%22%20parent%3D%222%22%3E%3CmxGeometry%20x%3D%220.1879%22%20relative%3D%221%22%20as%3D%22geometry%22%3E%3CmxPoint%20x%3D%2213%22%20y%3D%22-10%22%20as%3D%22offset%22%2F%3E%3C%2FmxGeometry%3E%3C%2FmxCell%3E%3C%2Froot%3E%3C%2FmxGraphModel%3E&lt;/span&gt;" style="html=1;points=[];perimeter=orthogonalPerimeter;outlineConnect=0;targetShapes=umlLifeline;portConstraint=eastwest;newEdgeStyle={&quot;edgeStyle&quot;:&quot;elbowEdgeStyle&quot;,&quot;elbow&quot;:&quot;vertical&quot;,&quot;curved&quot;:0,&quot;rounded&quot;:0};" parent="fNC70rHiMfFs5VwdoTCS-1" vertex="1">
          <mxGeometry x="45" y="50" width="10" height="20" as="geometry" />
        </mxCell>
        <mxCell id="fNC70rHiMfFs5VwdoTCS-4" value="&lt;span style=&quot;color: rgba(0, 0, 0, 0); font-family: monospace; font-size: 0px; text-align: start; background-color: rgb(27, 29, 30);&quot;&gt;%3CmxGraphModel%3E%3Croot%3E%3CmxCell%20id%3D%220%22%2F%3E%3CmxCell%20id%3D%221%22%20parent%3D%220%22%2F%3E%3CmxCell%20id%3D%222%22%20value%3D%22Module%26lt%3Bdiv%26gt%3BAgent%26lt%3B%2Fdiv%26gt%3B%22%20style%3D%22shape%3DumlLifeline%3Bperimeter%3DlifelinePerimeter%3BwhiteSpace%3Dwrap%3Bhtml%3D1%3Bcontainer%3D0%3BdropTarget%3D0%3Bcollapsible%3D0%3BrecursiveResize%3D0%3BoutlineConnect%3D0%3BportConstraint%3Deastwest%3BnewEdgeStyle%3D%7B%26quot%3BedgeStyle%26quot%3B%3A%26quot%3BelbowEdgeStyle%26quot%3B%2C%26quot%3Belbow%26quot%3B%3A%26quot%3Bvertical%26quot%3B%2C%26quot%3Bcurved%26quot%3B%3A0%2C%26quot%3Brounded%26quot%3B%3A0%7D%3B%22%20vertex%3D%221%22%20parent%3D%221%22%3E%3CmxGeometry%20x%3D%22220%22%20y%3D%2240%22%20width%3D%22100%22%20height%3D%22240%22%20as%3D%22geometry%22%2F%3E%3C%2FmxCell%3E%3CmxCell%20id%3D%223%22%20value%3D%22%22%20style%3D%22html%3D1%3Bpoints%3D%5B%5D%3Bperimeter%3DorthogonalPerimeter%3BoutlineConnect%3D0%3BtargetShapes%3DumlLifeline%3BportConstraint%3Deastwest%3BnewEdgeStyle%3D%7B%26quot%3BedgeStyle%26quot%3B%3A%26quot%3BelbowEdgeStyle%26quot%3B%2C%26quot%3Belbow%26quot%3B%3A%26quot%3Bvertical%26quot%3B%2C%26quot%3Bcurved%26quot%3B%3A0%2C%26quot%3Brounded%26quot%3B%3A0%7D%3B%22%20vertex%3D%221%22%20parent%3D%222%22%3E%3CmxGeometry%20x%3D%2245%22%20y%3D%2280%22%20width%3D%2210%22%20height%3D%22110%22%20as%3D%22geometry%22%2F%3E%3C%2FmxCell%3E%3C%2Froot%3E%3C%2FmxGraphModel%3E&lt;/span&gt;" style="endArrow=open;html=1;rounded=0;endFill=0;" parent="1" edge="1">
          <mxGeometry width="50" height="50" relative="1" as="geometry">
            <mxPoint x="240.00034482758616" y="130" as="sourcePoint" />
            <mxPoint x="310" y="130" as="targetPoint" />
            <Array as="points" />
          </mxGeometry>
        </mxCell>
        <mxCell id="fNC70rHiMfFs5VwdoTCS-5" value="Deploys" style="edgeLabel;html=1;align=center;verticalAlign=middle;resizable=0;points=[];" parent="fNC70rHiMfFs5VwdoTCS-4" vertex="1" connectable="0">
          <mxGeometry x="0.1879" relative="1" as="geometry">
            <mxPoint x="-10" y="-10" as="offset" />
          </mxGeometry>
        </mxCell>
        <mxCell id="fNC70rHiMfFs5VwdoTCS-12" value="&lt;span style=&quot;color: rgba(0, 0, 0, 0); font-family: monospace; font-size: 0px; text-align: start; background-color: rgb(27, 29, 30);&quot;&gt;%3CmxGraphModel%3E%3Croot%3E%3CmxCell%20id%3D%220%22%2F%3E%3CmxCell%20id%3D%221%22%20parent%3D%220%22%2F%3E%3CmxCell%20id%3D%222%22%20value%3D%22Module%26lt%3Bdiv%26gt%3BAgent%26lt%3B%2Fdiv%26gt%3B%22%20style%3D%22shape%3DumlLifeline%3Bperimeter%3DlifelinePerimeter%3BwhiteSpace%3Dwrap%3Bhtml%3D1%3Bcontainer%3D0%3BdropTarget%3D0%3Bcollapsible%3D0%3BrecursiveResize%3D0%3BoutlineConnect%3D0%3BportConstraint%3Deastwest%3BnewEdgeStyle%3D%7B%26quot%3BedgeStyle%26quot%3B%3A%26quot%3BelbowEdgeStyle%26quot%3B%2C%26quot%3Belbow%26quot%3B%3A%26quot%3Bvertical%26quot%3B%2C%26quot%3Bcurved%26quot%3B%3A0%2C%26quot%3Brounded%26quot%3B%3A0%7D%3B%22%20vertex%3D%221%22%20parent%3D%221%22%3E%3CmxGeometry%20x%3D%22220%22%20y%3D%2240%22%20width%3D%22100%22%20height%3D%22240%22%20as%3D%22geometry%22%2F%3E%3C%2FmxCell%3E%3CmxCell%20id%3D%223%22%20value%3D%22%22%20style%3D%22html%3D1%3Bpoints%3D%5B%5D%3Bperimeter%3DorthogonalPerimeter%3BoutlineConnect%3D0%3BtargetShapes%3DumlLifeline%3BportConstraint%3Deastwest%3BnewEdgeStyle%3D%7B%26quot%3BedgeStyle%26quot%3B%3A%26quot%3BelbowEdgeStyle%26quot%3B%2C%26quot%3Belbow%26quot%3B%3A%26quot%3Bvertical%26quot%3B%2C%26quot%3Bcurved%26quot%3B%3A0%2C%26quot%3Brounded%26quot%3B%3A0%7D%3B%22%20vertex%3D%221%22%20parent%3D%222%22%3E%3CmxGeometry%20x%3D%2245%22%20y%3D%2280%22%20width%3D%2210%22%20height%3D%22110%22%20as%3D%22geometry%22%2F%3E%3C%2FmxCell%3E%3C%2Froot%3E%3C%2FmxGraphModel%3E&lt;/span&gt;" style="endArrow=open;html=1;rounded=0;endFill=0;" parent="1" edge="1" target="1Jfup5qmZFh4_z64vbdW-3">
          <mxGeometry width="50" height="50" relative="1" as="geometry">
            <mxPoint x="460" y="170" as="sourcePoint" />
            <mxPoint x="595" y="170" as="targetPoint" />
            <Array as="points" />
          </mxGeometry>
        </mxCell>
        <mxCell id="fNC70rHiMfFs5VwdoTCS-13" value="Pass LL Configurations" style="edgeLabel;html=1;align=center;verticalAlign=middle;resizable=0;points=[];" parent="fNC70rHiMfFs5VwdoTCS-12" vertex="1" connectable="0">
          <mxGeometry x="0.1879" relative="1" as="geometry">
            <mxPoint x="-3" y="-11" as="offset" />
          </mxGeometry>
        </mxCell>
        <mxCell id="3e6VDn0_hGGO2ViBp2a8-1" value="&lt;span style=&quot;color: rgba(0, 0, 0, 0); font-family: monospace; font-size: 0px; text-align: start; background-color: rgb(27, 29, 30);&quot;&gt;%3CmxGraphModel%3E%3Croot%3E%3CmxCell%20id%3D%220%22%2F%3E%3CmxCell%20id%3D%221%22%20parent%3D%220%22%2F%3E%3CmxCell%20id%3D%222%22%20value%3D%22Module%26lt%3Bdiv%26gt%3BAgent%26lt%3B%2Fdiv%26gt%3B%22%20style%3D%22shape%3DumlLifeline%3Bperimeter%3DlifelinePerimeter%3BwhiteSpace%3Dwrap%3Bhtml%3D1%3Bcontainer%3D0%3BdropTarget%3D0%3Bcollapsible%3D0%3BrecursiveResize%3D0%3BoutlineConnect%3D0%3BportConstraint%3Deastwest%3BnewEdgeStyle%3D%7B%26quot%3BedgeStyle%26quot%3B%3A%26quot%3BelbowEdgeStyle%26quot%3B%2C%26quot%3Belbow%26quot%3B%3A%26quot%3Bvertical%26quot%3B%2C%26quot%3Bcurved%26quot%3B%3A0%2C%26quot%3Brounded%26quot%3B%3A0%7D%3B%22%20vertex%3D%221%22%20parent%3D%221%22%3E%3CmxGeometry%20x%3D%22220%22%20y%3D%2240%22%20width%3D%22100%22%20height%3D%22240%22%20as%3D%22geometry%22%2F%3E%3C%2FmxCell%3E%3CmxCell%20id%3D%223%22%20value%3D%22%22%20style%3D%22html%3D1%3Bpoints%3D%5B%5D%3Bperimeter%3DorthogonalPerimeter%3BoutlineConnect%3D0%3BtargetShapes%3DumlLifeline%3BportConstraint%3Deastwest%3BnewEdgeStyle%3D%7B%26quot%3BedgeStyle%26quot%3B%3A%26quot%3BelbowEdgeStyle%26quot%3B%2C%26quot%3Belbow%26quot%3B%3A%26quot%3Bvertical%26quot%3B%2C%26quot%3Bcurved%26quot%3B%3A0%2C%26quot%3Brounded%26quot%3B%3A0%7D%3B%22%20vertex%3D%221%22%20parent%3D%222%22%3E%3CmxGeometry%20x%3D%2245%22%20y%3D%2280%22%20width%3D%2210%22%20height%3D%22110%22%20as%3D%22geometry%22%2F%3E%3C%2FmxCell%3E%3C%2Froot%3E%3C%2FmxGraphModel%3E&lt;/span&gt;" style="endArrow=open;html=1;rounded=0;endFill=0;" edge="1" parent="1" target="aM9ryv3xv72pqoxQDRHE-1">
          <mxGeometry width="50" height="50" relative="1" as="geometry">
            <mxPoint x="240.00034482758616" y="170" as="sourcePoint" />
            <mxPoint x="355" y="170" as="targetPoint" />
            <Array as="points" />
          </mxGeometry>
        </mxCell>
        <mxCell id="3e6VDn0_hGGO2ViBp2a8-2" value="Pass ME Parameters" style="edgeLabel;html=1;align=center;verticalAlign=middle;resizable=0;points=[];" vertex="1" connectable="0" parent="3e6VDn0_hGGO2ViBp2a8-1">
          <mxGeometry x="0.1879" relative="1" as="geometry">
            <mxPoint x="-14" y="-10" as="offset" />
          </mxGeometry>
        </mxCell>
        <mxCell id="3e6VDn0_hGGO2ViBp2a8-3" value="Pass ME Parameters" style="endArrow=open;html=1;rounded=0;endFill=0;" edge="1" parent="1">
          <mxGeometry x="0.0769" y="10" width="50" height="50" relative="1" as="geometry">
            <mxPoint x="350" y="170" as="sourcePoint" />
            <mxPoint x="480" y="170" as="targetPoint" />
            <Array as="points" />
            <mxPoint as="offset" />
          </mxGeometry>
        </mxCell>
      </root>
    </mxGraphModel>
  </diagram>
</mxfile>
